<?xml version="1.0" encoding="iso-8859-1"?>
<!-- Generator: Adobe Illustrator 19.0.0, SVG Export Plug-In . SVG Version: 6.00 Build 0)  -->
<svg version="1.1" id="Capa_1" xmlns="http://www.w3.org/2000/svg" xmlns:xlink="http://www.w3.org/1999/xlink" x="0px" y="0px"
	 viewBox="0 0 512.001 512.001" style="enable-background:new 0 0 512.001 512.001;" xml:space="preserve">
<g>
	<g>
		<g>
			<circle cx="156.048" cy="148.431" r="9.496"/>
			<circle cx="190.032" cy="148.431" r="9.496"/>
			<circle cx="224.017" cy="148.431" r="9.496"/>
			<path d="M447.634,266.949c-1.393-2.069-3.724-3.31-6.219-3.31h-44.979V135.678c0-11.433-9.301-20.732-20.732-20.732h-89.331
				V99.899l18.675-32.535c1.488-2.593,1.293-5.821-0.495-8.217L264.025,4.875C262.962,2.028,260.219,0,257,0
				c-3.218,0-5.962,2.028-7.025,4.875l-40.527,54.273c-1.789,2.395-1.983,5.624-0.495,8.217L227.629,99.9v15.047h-91.331
				c-11.432,0-20.732,9.301-20.732,20.732v127.961H70.587c-2.495,0-4.826,1.24-6.219,3.31c-1.393,2.07-1.665,4.697-0.727,7.008
				l26.248,64.615v157.253c0,8.919,7.257,16.175,16.175,16.175h300.873c8.919,0,16.175-7.257,16.175-16.175V336.344
				c0-0.075-0.001-0.149-0.004-0.223l25.251-62.164C449.299,271.646,449.026,269.019,447.634,266.949z M257,62.971
				c1.929,0,3.498,1.569,3.498,3.498c0,1.929-1.569,3.498-3.498,3.498c-1.929,0-3.498-1.569-3.498-3.498
				C253.502,64.54,255.071,62.971,257,62.971z M224.407,64.171l25.096-33.607v19.002c-6.472,2.882-10.995,9.374-10.995,16.903
				c0,10.196,8.295,18.491,18.491,18.491c10.196,0,18.491-8.295,18.491-18.491c0-7.53-4.523-14.021-10.995-16.903V30.565
				l25.096,33.607l-17.219,29.996c-0.652,1.135-0.996,2.422-0.996,3.731v17.047h-28.758V97.899c0-1.31-0.343-2.597-0.996-3.731
				L224.407,64.171z M136.298,129.94h239.406c3.164,0,5.739,2.575,5.739,5.739v32.243H130.56v-32.243h-0.001
				C130.559,132.514,133.134,129.94,136.298,129.94z M130.559,182.915h250.883v80.724H340.92c-3.035,0-5.769,1.829-6.929,4.634
				l-25.031,60.574H130.559V182.915z M81.724,278.633h33.842v50.215h-13.445L81.724,278.633z M408.12,495.826
				c0,0.652-0.531,1.182-1.182,1.182h-84.319v-33.723c0-4.141-3.356-7.497-7.497-7.497s-7.497,3.355-7.497,7.497v33.722H106.064
				c-0.652,0-1.182-0.53-1.182-1.182V343.84h202.744v89.458c0,4.141,3.356,7.497,7.497,7.497s7.497-3.355,7.497-7.497V343.84h85.501
				V495.826z M409.88,328.847h-84.698l20.75-50.215h84.344L409.88,328.847z"/>
			<path d="M156.047,219.898h47.978c4.14,0,7.497-3.355,7.497-7.497c0-4.141-3.356-7.497-7.497-7.497h-47.978
				c-4.14,0-7.496,3.355-7.496,7.497C148.551,216.542,151.907,219.898,156.047,219.898z"/>
			<path d="M234.011,219.898h112.947c4.14,0,7.497-3.355,7.497-7.497c0-4.141-3.356-7.497-7.497-7.497H234.011
				c-4.14,0-7.497,3.355-7.497,7.497C226.514,216.542,229.871,219.898,234.011,219.898z"/>
			<path d="M156.047,249.884h23.989c4.14,0,7.497-3.355,7.497-7.497c0-4.141-3.356-7.497-7.497-7.497h-23.989
				c-4.14,0-7.496,3.355-7.496,7.497C148.551,246.528,151.907,249.884,156.047,249.884z"/>
			<path d="M346.958,234.891H208.023c-4.14,0-7.496,3.355-7.496,7.497c0,4.141,3.356,7.497,7.496,7.497h138.935
				c4.14,0,7.497-3.355,7.497-7.497C354.455,238.246,351.098,234.891,346.958,234.891z"/>
			<path d="M156.047,281.869h77.964c4.14,0,7.497-3.355,7.497-7.497c0-4.141-3.356-7.497-7.497-7.497h-77.964
				c-4.14,0-7.496,3.355-7.496,7.497C148.551,278.514,151.907,281.869,156.047,281.869z"/>
			<path d="M298.981,266.876h-38.982c-4.14,0-7.497,3.355-7.497,7.497c0,4.141,3.356,7.497,7.497,7.497h38.982
				c4.14,0,7.497-3.355,7.497-7.497C306.477,270.231,303.121,266.876,298.981,266.876z"/>
			<path d="M263.997,297.862h-107.95c-4.14,0-7.497,3.355-7.497,7.497c0,4.141,3.356,7.497,7.497,7.497h107.95
				c4.14,0,7.497-3.355,7.497-7.497C271.493,301.217,268.137,297.862,263.997,297.862z"/>
			<path d="M298.981,297.862h-11.994c-4.14,0-7.497,3.355-7.497,7.497c0,4.141,3.356,7.497,7.497,7.497h11.994
				c4.14,0,7.497-3.355,7.497-7.497C306.477,301.217,303.121,297.862,298.981,297.862z"/>
			<path d="M179.839,386.516c-2.928-2.927-7.674-2.927-10.601,0l-28.487,28.487c-2.928,2.929-2.928,7.674,0,10.602l27.487,27.487
				c1.463,1.463,3.382,2.195,5.301,2.195s3.837-0.732,5.301-2.195c2.928-2.929,2.928-7.674,0-10.602l-22.186-22.186l23.186-23.185
				C182.768,394.191,182.768,389.445,179.839,386.516z"/>
			<path d="M239.811,386.516c-2.928-2.927-7.674-2.927-10.601,0c-2.928,2.929-2.928,7.674,0,10.602l23.186,23.185l-22.187,22.186
				c-2.928,2.929-2.928,7.674,0,10.602c1.463,1.463,3.382,2.195,5.301,2.195s3.837-0.732,5.301-2.195l27.487-27.487
				c2.928-2.929,2.928-7.674,0-10.602L239.811,386.516z"/>
			<path d="M217.719,384.324c-3.863-1.491-8.202,0.431-9.693,4.295l-21.99,56.974c-1.49,3.862,0.432,8.202,4.294,9.693
				c0.888,0.343,1.8,0.505,2.698,0.505c3.009,0,5.847-1.824,6.996-4.8l21.99-56.974
				C223.504,390.155,221.582,385.815,217.719,384.324z"/>
		</g>
	</g>
</g>
<g>
</g>
<g>
</g>
<g>
</g>
<g>
</g>
<g>
</g>
<g>
</g>
<g>
</g>
<g>
</g>
<g>
</g>
<g>
</g>
<g>
</g>
<g>
</g>
<g>
</g>
<g>
</g>
<g>
</g>
</svg>
