<?xml version="1.0" encoding="iso-8859-1"?>
<!-- Generator: Adobe Illustrator 19.0.0, SVG Export Plug-In . SVG Version: 6.00 Build 0)  -->
<svg version="1.1" id="Capa_1" xmlns="http://www.w3.org/2000/svg" xmlns:xlink="http://www.w3.org/1999/xlink" x="0px" y="0px"
	 viewBox="0 0 511.999 511.999" style="enable-background:new 0 0 511.999 511.999;" xml:space="preserve">
<g>
	<g>
		<g>
			<circle cx="76.549" cy="172.74" r="8.095"/>
			<circle cx="105.71" cy="172.74" r="8.095"/>
			<circle cx="134.861" cy="172.74" r="8.095"/>
			<path d="M477.457,0H353.779c-10.539,0-19.113,8.574-19.113,19.113v122.345h-78.554L95.398,101.209
				c-10.542-2.64-21.266,3.789-23.906,14.331l-6.491,25.918H57.42c-10.867,0-19.709,8.841-19.709,19.709v89.258L16.027,337.01
				c-1.279,5.107-0.493,10.407,2.214,14.922c2.706,4.515,7.01,7.707,12.116,8.985l7.354,1.842v26.719
				c0,10.867,8.841,19.709,19.709,19.709h35.101c1.502,7.253,5.281,13.682,10.553,18.504c-15.074,8.276-25.314,24.304-25.314,42.679
				v26.583h-3.511c-4.155,0-7.524,3.369-7.524,7.523s3.369,7.523,7.524,7.523h107.336c4.155,0,7.523-3.369,7.523-7.523
				s-3.369-7.523-7.523-7.523h-6.52v-26.583c0-18.376-10.241-34.405-25.314-42.679c5.272-4.823,9.05-11.251,10.553-18.504h62.795
				l160.714,40.249c1.599,0.4,3.216,0.599,4.824,0.599c3.524,0,6.996-0.953,10.097-2.813c4.516-2.706,7.707-7.01,8.985-12.117
				l6.49-25.918h7.582c10.867,0,19.708-8.841,19.708-19.709v-89.259l21.684-86.585c1.279-5.107,0.493-10.406-2.214-14.921
				c-2.706-4.515-7.009-7.707-12.116-8.986l-7.354-1.842v-26.719c0-10.867-8.841-19.709-19.708-19.709h-55.227l10.822-20.587
				h100.073c10.539,0,19.113-8.574,19.113-19.113V19.113C496.569,8.574,487.995,0,477.457,0z M37.711,347.246l-3.699-0.926
				c-1.208-0.302-2.226-1.057-2.865-2.125c-0.64-1.067-0.827-2.321-0.524-3.53l7.087-28.3V347.246z M441.498,203.397l3.699,0.926
				c1.207,0.303,2.225,1.057,2.866,2.126c0.64,1.067,0.826,2.32,0.523,3.529l-7.087,28.3V203.397z M86.088,119.195
				c0.625-2.494,3.165-4.015,5.654-3.39l102.431,25.652H80.513L86.088,119.195z M160.017,470.37v26.583h-67.21V470.37
				c0-18.53,15.075-33.605,33.605-33.605C144.941,436.765,160.017,451.84,160.017,470.37z M106.85,402.156c0-0.026,0-0.052,0-0.078
				c0.005-0.093,0.009-0.187,0.011-0.281c0.191-10.588,8.96-19.202,19.55-19.202c10.59,0,19.36,8.614,19.55,19.202
				c0.002,0.093,0.006,0.187,0.011,0.28c0,0.027,0,0.053,0,0.079c0,10.786-8.775,19.561-19.561,19.561
				S106.85,412.942,106.85,402.156z M421.79,394.138H374.94c-4.156,0-7.523,3.369-7.523,7.523c0,4.155,3.367,7.524,7.523,7.524
				h23.757l-5.575,22.264c-0.303,1.208-1.057,2.225-2.125,2.865c-1.067,0.64-2.32,0.828-3.529,0.524l-102.43-25.652h59.808
				c4.156,0,7.523-3.369,7.523-7.524c0-4.155-3.367-7.523-7.523-7.523H160.082c-3.512-14.75-16.492-25.87-32.134-26.556
				c-0.014,0-0.029-0.001-0.043-0.002c-0.1-0.004-0.201-0.008-0.302-0.011c-0.047-0.002-0.094-0.003-0.14-0.004
				c-0.08-0.002-0.159-0.005-0.24-0.007c-0.073-0.002-0.146-0.003-0.22-0.004c-0.06-0.001-0.12-0.002-0.181-0.003
				c-0.136-0.001-0.273-0.002-0.409-0.002s-0.273,0.001-0.409,0.002c-0.06,0.001-0.12,0.002-0.181,0.003
				c-0.073,0.001-0.146,0.002-0.22,0.004c-0.08,0.002-0.159,0.004-0.24,0.007c-0.047,0.001-0.094,0.003-0.141,0.004
				c-0.1,0.003-0.201,0.007-0.302,0.011c-0.014,0.001-0.029,0.001-0.043,0.002c-15.643,0.686-28.622,11.807-32.134,26.556H57.42
				c-2.571,0-4.662-2.091-4.662-4.662V203.603H426.45v185.874h0.001C426.451,392.048,424.36,394.138,421.79,394.138z
				 M421.789,156.505c2.571,0,4.661,2.091,4.661,4.662v27.389H52.758v-27.389c0-2.571,2.091-4.662,4.662-4.662h277.246v6.078
				c0,1.125,0.191,2.214,0.546,3.229c0.044,0.126,0.091,0.253,0.14,0.377s0.101,0.248,0.155,0.37
				c0.054,0.122,0.111,0.243,0.171,0.362c0.147,0.299,0.311,0.589,0.487,0.871c1.311,2.081,3.397,3.646,5.925,4.27
				c0.041,0.01,0.082,0.02,0.123,0.029c0.01,0.002,0.021,0.005,0.031,0.007c0.038,0.009,0.077,0.018,0.115,0.026
				c0.02,0.004,0.041,0.009,0.061,0.013c0.036,0.008,0.072,0.015,0.107,0.022c0.05,0.01,0.101,0.02,0.151,0.029
				c0.027,0.005,0.054,0.01,0.081,0.014c0.037,0.007,0.074,0.013,0.111,0.019c0.022,0.003,0.044,0.007,0.066,0.01
				c0.052,0.008,0.104,0.016,0.156,0.023c0.008,0.001,0.016,0.002,0.024,0.003c0.06,0.008,0.121,0.016,0.182,0.023
				c0.016,0.002,0.033,0.004,0.049,0.006c0.05,0.006,0.1,0.011,0.15,0.016c0.012,0.001,0.024,0.002,0.036,0.004
				c0.064,0.006,0.128,0.011,0.192,0.016c0.002,0,0.004,0,0.007,0c0.062,0.005,0.124,0.008,0.186,0.012
				c0.009,0,0.017,0.001,0.026,0.001c0.13,0.006,0.261,0.01,0.39,0.012c0.005,0,0.01,0,0.014,0c0.03,0,0.06,0.001,0.089,0.001
				c0.027,0,0.055,0,0.082-0.001c0.012,0,0.025,0,0.037,0c0.061-0.001,0.123-0.002,0.185-0.004c0.002,0,0.003,0,0.005,0
				c0.13-0.004,0.26-0.011,0.389-0.02c0.015-0.001,0.029-0.002,0.043-0.003c0.048-0.003,0.095-0.007,0.143-0.012
				c0.019-0.002,0.038-0.004,0.057-0.005c0.045-0.004,0.089-0.009,0.134-0.014c0.018-0.002,0.036-0.004,0.054-0.006
				c0.054-0.006,0.109-0.013,0.164-0.02c0.007-0.001,0.015-0.002,0.022-0.003c0.061-0.008,0.122-0.017,0.183-0.027
				c0.02-0.003,0.04-0.006,0.059-0.01c0.041-0.007,0.081-0.013,0.121-0.02c0.026-0.005,0.051-0.009,0.076-0.014
				c0.034-0.006,0.068-0.012,0.101-0.019c0.028-0.006,0.057-0.011,0.085-0.017c0.032-0.007,0.064-0.013,0.095-0.02
				c0.028-0.006,0.056-0.012,0.084-0.018c0.035-0.008,0.069-0.016,0.104-0.024c0.051-0.012,0.102-0.024,0.152-0.037
				c0.027-0.007,0.055-0.014,0.082-0.021c0.032-0.008,0.064-0.017,0.097-0.026c0.026-0.007,0.052-0.014,0.077-0.021
				c0.033-0.01,0.067-0.019,0.1-0.029c0.023-0.007,0.045-0.013,0.068-0.02c0.035-0.01,0.07-0.021,0.105-0.032
				c0.02-0.006,0.04-0.013,0.06-0.019c0.13-0.042,0.259-0.086,0.387-0.133c0.012-0.005,0.025-0.009,0.037-0.014
				c0.04-0.015,0.08-0.03,0.119-0.046c0.015-0.006,0.03-0.011,0.044-0.017c0.039-0.016,0.079-0.031,0.118-0.047
				c0.013-0.005,0.027-0.011,0.04-0.016c0.188-0.077,0.372-0.16,0.554-0.25c0.008-0.004,0.015-0.008,0.023-0.011
				c0.042-0.021,0.083-0.042,0.125-0.063l0.03-0.015c0.042-0.021,0.083-0.043,0.125-0.065l0.015-0.008
				c0.138-0.074,0.274-0.15,0.408-0.231c0.003-0.002,0.006-0.003,0.008-0.005c0.041-0.024,0.081-0.049,0.121-0.074l0.029-0.018
				c0.039-0.024,0.078-0.049,0.116-0.074c0.009-0.006,0.018-0.011,0.026-0.017c0.171-0.11,0.338-0.227,0.502-0.348
				c0.01-0.007,0.02-0.014,0.029-0.022c0.035-0.026,0.07-0.052,0.104-0.079c0.012-0.01,0.025-0.019,0.037-0.029
				c0.034-0.026,0.067-0.052,0.1-0.079c0.011-0.009,0.021-0.017,0.032-0.026c0.112-0.09,0.223-0.183,0.33-0.278
				c0.01-0.009,0.02-0.017,0.03-0.026c0.031-0.028,0.062-0.056,0.093-0.084c0.013-0.012,0.026-0.023,0.039-0.035
				c0.03-0.028,0.061-0.056,0.091-0.084c0.013-0.013,0.026-0.025,0.04-0.038c0.03-0.029,0.059-0.057,0.089-0.086
				c0.012-0.012,0.024-0.024,0.037-0.037c0.054-0.054,0.108-0.108,0.161-0.164c0.014-0.015,0.029-0.029,0.042-0.044
				c0.024-0.025,0.047-0.051,0.071-0.076c0.018-0.019,0.035-0.038,0.053-0.057c0.024-0.026,0.048-0.053,0.072-0.08
				c0.017-0.019,0.034-0.038,0.051-0.057c0.023-0.026,0.047-0.053,0.07-0.08c0.017-0.02,0.035-0.041,0.052-0.061
				c0.022-0.026,0.045-0.052,0.067-0.079c0.026-0.031,0.052-0.063,0.077-0.095c0.026-0.031,0.051-0.063,0.076-0.095
				c0.023-0.029,0.046-0.059,0.069-0.088c0.018-0.024,0.036-0.047,0.054-0.071c0.021-0.027,0.041-0.054,0.061-0.082
				c0.017-0.023,0.034-0.047,0.051-0.07c0.021-0.029,0.042-0.058,0.062-0.087c0.015-0.022,0.031-0.043,0.046-0.065
				c0.024-0.034,0.047-0.068,0.07-0.103c0.012-0.019,0.025-0.037,0.037-0.055c0.034-0.052,0.068-0.103,0.102-0.156
				c0.009-0.013,0.017-0.027,0.026-0.041c0.026-0.041,0.051-0.081,0.076-0.122c0.012-0.019,0.023-0.038,0.035-0.057
				c0.022-0.036,0.043-0.072,0.064-0.108c0.012-0.021,0.025-0.042,0.037-0.064c0.021-0.036,0.041-0.072,0.061-0.107
				c0.012-0.021,0.023-0.042,0.035-0.062c0.031-0.056,0.061-0.111,0.09-0.169l5.587-10.621H421.789z M481.522,101.757
				c0,2.242-1.824,4.066-4.066,4.066H372.839c-2.795,0-5.36,1.549-6.66,4.023l-16.467,31.328V19.113
				c0-2.242,1.824-4.066,4.066-4.066h123.679c2.241,0,4.066,1.824,4.066,4.066V101.757z"/>
			<path d="M173.057,239.648c0-4.155-3.369-7.523-7.524-7.523H84.28c-4.155,0-7.524,3.369-7.524,7.523
				c0,4.155,3.369,7.524,7.524,7.524h81.254C169.689,247.172,173.057,243.803,173.057,239.648z"/>
			<path d="M322.023,232.125H198.637c-4.155,0-7.523,3.369-7.523,7.523c0,4.155,3.369,7.524,7.523,7.524h123.386
				c4.156,0,7.523-3.369,7.523-7.524C329.547,235.493,326.179,232.125,322.023,232.125z"/>
			<path d="M124.907,275.761c0,4.155,3.369,7.523,7.523,7.523h66.207c4.155,0,7.524-3.369,7.524-7.523s-3.369-7.523-7.524-7.523
				H132.43C128.275,268.238,124.907,271.606,124.907,275.761z"/>
			<path d="M285.91,283.285c4.156,0,7.523-3.369,7.523-7.523s-3.368-7.523-7.523-7.523h-62.195c-4.155,0-7.523,3.369-7.523,7.523
				s3.369,7.523,7.523,7.523H285.91z"/>
			<path d="M192.117,310.871c0-4.155-3.369-7.524-7.523-7.524h-21.066c-4.155,0-7.524,3.369-7.524,7.524
				c0,4.155,3.369,7.523,7.524,7.523h21.066C188.748,318.395,192.117,315.026,192.117,310.871z"/>
			<path d="M322.023,303.348H207.666c-4.155,0-7.524,3.369-7.524,7.524c0,4.155,3.369,7.523,7.524,7.523h114.358
				c4.156,0,7.523-3.369,7.523-7.523C329.547,306.716,326.179,303.348,322.023,303.348z"/>
			<path d="M153.496,338.457H132.43c-4.155,0-7.523,3.369-7.523,7.523c0,4.155,3.369,7.524,7.523,7.524h21.066
				c4.155,0,7.523-3.369,7.523-7.524C161.02,341.826,157.651,338.457,153.496,338.457z"/>
			<path d="M290.926,338.457H176.568c-4.155,0-7.524,3.369-7.524,7.523c0,4.155,3.369,7.524,7.524,7.524h114.358
				c4.156,0,7.524-3.369,7.524-7.524C298.449,341.826,295.082,338.457,290.926,338.457z"/>
		</g>
	</g>
</g>
<g>
</g>
<g>
</g>
<g>
</g>
<g>
</g>
<g>
</g>
<g>
</g>
<g>
</g>
<g>
</g>
<g>
</g>
<g>
</g>
<g>
</g>
<g>
</g>
<g>
</g>
<g>
</g>
<g>
</g>
</svg>
