<?xml version="1.0" encoding="iso-8859-1"?>
<!-- Generator: Adobe Illustrator 19.0.0, SVG Export Plug-In . SVG Version: 6.00 Build 0)  -->
<svg version="1.1" id="Capa_1" xmlns="http://www.w3.org/2000/svg" xmlns:xlink="http://www.w3.org/1999/xlink" x="0px" y="0px"
	 viewBox="0 0 512 512" style="enable-background:new 0 0 512 512;" xml:space="preserve">
<g>
	<g>
		<g>
			<path d="M282.725,149h-95c-4.142,0-7.5,3.357-7.5,7.5v66c0,4.143,3.358,7.5,7.5,7.5h41.75c4.142,0,7.5-3.357,7.5-7.5
				s-3.358-7.5-7.5-7.5h-34.25v-51h87.5c14.061,0,25.5,11.439,25.5,25.5c0,14.061-11.439,25.5-25.5,25.5h-23.25
				c-4.142,0-7.5,3.357-7.5,7.5s3.358,7.5,7.5,7.5h23.25c22.331,0,40.5-18.168,40.5-40.5C323.225,167.168,305.057,149,282.725,149z"
				/>
			<path d="M282.725,285h-48.25c-4.142,0-7.5,3.357-7.5,7.5s3.358,7.5,7.5,7.5h48.25c14.061,0,25.5,11.439,25.5,25.5
				c0,14.061-11.439,25.5-25.5,25.5h-87.5v-51h9.25c4.142,0,7.5-3.357,7.5-7.5s-3.358-7.5-7.5-7.5h-16.75
				c-4.142,0-7.5,3.357-7.5,7.5v66c0,4.143,3.358,7.5,7.5,7.5h95c22.331,0,40.5-18.168,40.5-40.5
				C323.225,303.168,305.057,285,282.725,285z"/>
			<path d="M406.725,265c4.142,0,7.5-3.357,7.5-7.5s-3.358-7.5-7.5-7.5h-48.5V129h48c4.142,0,7.5-3.357,7.5-7.5s-3.358-7.5-7.5-7.5
				h-48V7.5c0-4.143-3.358-7.5-7.5-7.5c-4.142,0-7.5,3.357-7.5,7.5V114h-183V7.5c0-4.143-3.358-7.5-7.5-7.5
				c-4.142,0-7.5,3.357-7.5,7.5V114h-49c-4.142,0-7.5,3.357-7.5,7.5s3.358,7.5,7.5,7.5h49v121h-48.5c-4.142,0-7.5,3.357-7.5,7.5
				s3.358,7.5,7.5,7.5h48.5v121h-48.5c-4.142,0-7.5,3.357-7.5,7.5s3.358,7.5,7.5,7.5h48.5v103.5c0,4.143,3.358,7.5,7.5,7.5
				c4.142,0,7.5-3.357,7.5-7.5V401h183v103.5c0,4.143,3.358,7.5,7.5,7.5c4.142,0,7.5-3.357,7.5-7.5V401h48.5
				c4.142,0,7.5-3.357,7.5-7.5s-3.358-7.5-7.5-7.5h-48.5V265H406.725z M343.225,386h-15.381c5.834-4.362,11.019-9.547,15.381-15.381
				V386z M282.725,386H163.391c-1.746,0-3.166-1.42-3.166-3.166V265h122.5c33.36,0,60.5,27.141,60.5,60.5S316.085,386,282.725,386z
				 M343.225,280.382c-4.363-5.834-9.547-11.02-15.381-15.382h15.381V280.382z M343.225,250h-15.381
				c5.834-4.362,11.019-9.548,15.381-15.382V250z M282.725,250h-122.5V132.166c0-1.746,1.42-3.166,3.166-3.166h119.334
				c33.36,0,60.5,27.141,60.5,60.5S316.085,250,282.725,250z M343.225,144.381c-4.362-5.834-9.547-11.019-15.381-15.381h15.381
				V144.381z"/>
			<path d="M501.113,296.811l-18.528-18.528l4.162-4.161c2.987-2.987,3.995-7.327,2.629-11.325
				c-1.366-3.998-4.818-6.813-9.009-7.349h-0.001l-45.623-5.817c-2.302-0.299-4.611,0.495-6.252,2.136
				c-1.641,1.642-2.43,3.95-2.137,6.252l5.817,45.623c0.535,4.191,3.351,7.645,7.35,9.01c3.998,1.366,8.337,0.357,11.324-2.629
				l4.162-4.162l18.529,18.53c2.105,2.104,4.869,3.155,7.633,3.155c2.764,0,5.53-1.053,7.634-3.156l12.308-12.308
				c2.04-2.04,3.164-4.751,3.164-7.636C504.275,301.561,503.152,298.85,501.113,296.811z M481.17,310.81l-20.859-20.86
				c-1.464-1.464-3.384-2.196-5.303-2.196s-3.839,0.732-5.303,2.196l-3.687,3.687l-3.558-27.9l27.901,3.558l-3.687,3.686
				c-1.407,1.407-2.197,3.314-2.197,5.304s0.79,3.896,2.197,5.304l20.86,20.859L481.17,310.81z"/>
			<path d="M17.725,140h50c4.142,0,7.5-3.357,7.5-7.5v-50c0-4.143-3.358-7.5-7.5-7.5h-50c-4.142,0-7.5,3.357-7.5,7.5v50
				C10.225,136.643,13.583,140,17.725,140z M25.225,90h35v35h-35V90z"/>
			<path d="M17.725,215h50c4.142,0,7.5-3.357,7.5-7.5v-50c0-4.143-3.358-7.5-7.5-7.5h-50c-4.142,0-7.5,3.357-7.5,7.5v50
				C10.225,211.643,13.583,215,17.725,215z M25.225,165h35v35h-35V165z"/>
			<path d="M17.725,290h50c4.142,0,7.5-3.357,7.5-7.5v-50c0-4.143-3.358-7.5-7.5-7.5h-50c-4.142,0-7.5,3.357-7.5,7.5v50
				C10.225,286.643,13.583,290,17.725,290z M25.225,240h35v35h-35V240z"/>
			<path d="M17.725,365h50c4.142,0,7.5-3.357,7.5-7.5v-50c0-4.143-3.358-7.5-7.5-7.5h-50c-4.142,0-7.5,3.357-7.5,7.5v50
				C10.225,361.643,13.583,365,17.725,365z M25.225,315h35v35h-35V315z"/>
			<path d="M97.225,412.833H77.391V393c0-4.143-3.358-7.5-7.5-7.5H15.225c-4.142,0-7.5,3.357-7.5,7.5v54.667
				c0,4.143,3.358,7.5,7.5,7.5h19.833V475c0,4.143,3.358,7.5,7.5,7.5h54.667c4.142,0,7.5-3.357,7.5-7.5v-54.667
				C104.725,416.19,101.367,412.833,97.225,412.833z M35.058,420.333v19.834H22.725V400.5h39.667v12.333H42.558
				C38.416,412.833,35.058,416.19,35.058,420.333z M62.391,427.833v12.334H50.058v-12.334H62.391z M50.058,467.5v-12.333h19.833
				c4.142,0,7.5-3.357,7.5-7.5v-19.834h12.333V467.5H50.058z"/>
		</g>
	</g>
</g>
<g>
</g>
<g>
</g>
<g>
</g>
<g>
</g>
<g>
</g>
<g>
</g>
<g>
</g>
<g>
</g>
<g>
</g>
<g>
</g>
<g>
</g>
<g>
</g>
<g>
</g>
<g>
</g>
<g>
</g>
</svg>
