<?xml version="1.0" encoding="iso-8859-1"?>
<!-- Generator: Adobe Illustrator 19.0.0, SVG Export Plug-In . SVG Version: 6.00 Build 0)  -->
<svg version="1.1" id="Capa_1" xmlns="http://www.w3.org/2000/svg" xmlns:xlink="http://www.w3.org/1999/xlink" x="0px" y="0px"
	 viewBox="0 0 512.001 512.001" style="enable-background:new 0 0 512.001 512.001;" xml:space="preserve">
<g>
	<g>
		<g>
			<path d="M446.495,246.758H407.89c-4.147,0-7.507,3.36-7.507,7.507c0,4.147,3.36,7.507,7.507,7.507h38.605
				c3.963,0,7.187,3.224,7.187,7.187v25.844h-97.089v-2.501c0-4.897-2.48-9.368-6.632-11.959l-29.738-18.57h57.64
				c4.147,0,7.507-3.36,7.507-7.507c0-4.147-3.36-7.507-7.507-7.507h-73.49l-12.84-20.661l-0.006-16.873h25.247
				c6.109,0,11.599-3.683,14.328-9.613c3.092-6.715,2.07-14.58-2.602-20.039l-36.998-43.222l-0.004-13.242
				c0.027-3.057-1.142-5.935-3.293-8.106c-0.519-0.523-1.08-0.99-1.676-1.397V96.085l17.682-31.441
				c1.468-2.609,1.244-5.842-0.568-8.226L262.975,2.962C261.556,1.096,259.346,0,257.002,0c-2.344,0-4.555,1.096-5.974,2.962
				l-40.666,53.457c-1.814,2.383-2.037,5.615-0.569,8.226l17.682,31.441v17.492c-3.006,2.034-5.004,5.474-5.04,9.394l0.004,13.452
				l-36.937,43.149c-4.671,5.458-5.693,13.324-2.601,20.039c2.731,5.93,8.221,9.613,14.328,9.613h25.233l0.006,16.678l-14.4,20.856
				H65.506c-12.24,0-22.2,9.959-22.2,22.2v220.842c0,12.24,9.959,22.2,22.2,22.2h380.988c12.24,0,22.2-9.959,22.2-22.2V268.958
				C468.695,256.717,458.735,246.758,446.495,246.758z M291.533,159.473l25.56,29.861c1.019,1.189,0.737,2.786,0.628,3.247
				c-0.25,1.045-0.769,1.566-0.909,1.626c0,0-0.012,0.002-0.039,0.002h-25.24V159.473z M197.23,194.21l-0.029,0.001
				c-0.15-0.063-0.669-0.585-0.919-1.63c-0.109-0.461-0.391-2.058,0.627-3.247l25.538-29.834l0.011,34.71H197.23z M309.55,272.808
				l32.029,20v38.962l-32.029-14.31V272.808z M257.002,67.595c1.38,0,2.502,1.122,2.502,2.502s-1.122,2.502-2.502,2.502
				c-1.38,0-2.502-1.122-2.502-2.502S255.622,67.595,257.002,67.595z M225.297,61.583l24.198-31.81v24.499
				c-5.912,2.817-10.009,8.851-10.009,15.824c0,9.658,7.858,17.516,17.516,17.516c9.658,0,17.516-7.858,17.516-17.516
				c0-6.973-4.097-13.008-10.009-15.824V29.774l24.198,31.81l-16.228,28.855c-0.632,1.124-0.964,2.391-0.964,3.68v17.516h-29.026
				V94.12c0-1.289-0.332-2.556-0.964-3.68L225.297,61.583z M217.466,259.574l0.721-1.043c0.005-0.007,0.009-0.014,0.014-0.021
				l17.954-26.003c0.866-1.255,1.33-2.744,1.329-4.269l-0.034-101.59h39.035l0.035,101.596c0.001,1.398,0.392,2.771,1.131,3.96
				l16.885,27.172v59.448h-77.07V259.574z M276.52,333.837v8.443c0,1.416-1.151,2.567-2.567,2.567h-33.9
				c-1.416,0-2.567-1.151-2.567-2.567v-8.443H276.52z M58.321,268.958c0-3.963,3.224-7.187,7.187-7.187h126.272l-29.736,18.569
				c-4.154,2.592-6.634,7.063-6.634,11.96v2.501H58.321V268.958z M202.452,272.808v45.01l-32.029,17.037v-42.046L202.452,272.808z
				 M446.495,496.987H65.506c-3.963,0-7.187-3.224-7.187-7.187V309.817h97.089v29.471c0,4.376,2.239,8.334,5.99,10.587
				c1.971,1.184,4.16,1.779,6.355,1.779c1.983,0,3.973-0.486,5.806-1.462l32.639-17.361c1.105,0.642,2.389,1.008,3.759,1.008h12.511
				v8.443c0,7.748,5.039,14.342,12.011,16.677v54.454c0,3.587-2.919,6.506-6.506,6.506s-6.506-2.919-6.506-6.506
				c0-4.147-3.36-7.507-7.507-7.507s-7.507,3.36-7.507,7.507c0,11.866,9.654,21.52,21.52,21.52c11.866,0,21.52-9.654,21.52-21.52
				v-53.549h15.014v53.549c0,11.866,9.654,21.52,21.52,21.52c11.866,0,21.52-9.654,21.52-21.52c0-4.147-3.36-7.507-7.507-7.507
				s-7.507,3.36-7.507,7.507c0,3.587-2.919,6.506-6.506,6.506c-3.587,0-6.506-2.919-6.506-6.506v-54.454
				c6.972-2.335,12.011-8.928,12.011-16.677v-8.443h10.51c1.605,0,3.092-0.503,4.312-1.361l32.849,14.676
				c1.618,0.724,3.336,1.08,5.046,1.08c2.344,0,4.673-0.672,6.712-1.993c3.525-2.286,5.631-6.161,5.631-10.363v-26.061h97.089
				v179.985h0.001C453.681,493.763,450.457,496.987,446.495,496.987z"/>
			<path d="M333.589,426.943c-3.038-2.823-7.787-2.647-10.61,0.391c-2.823,3.039-2.647,7.787,0.391,10.61
				c4.642,4.312,7.198,10.173,7.198,16.504c0,12.417-10.103,22.521-22.521,22.521c-5.782,0-11.186-2.151-15.318-6.005
				c1.172-3.628,1.806-7.497,1.806-11.51c0-4.147-3.36-7.507-7.507-7.507s-7.507,3.36-7.507,7.507c0,5.717-2.142,10.944-5.665,14.92
				c-0.008,0.009-0.016,0.018-0.024,0.027c-0.04,0.045-0.08,0.09-0.121,0.134c-4.123,4.538-10.014,7.311-16.271,7.435
				c-0.023,0-0.046,0.001-0.068,0.001c-0.124,0.002-0.247,0.003-0.371,0.003c-0.119,0-0.237-0.001-0.355-0.003
				c-0.033-0.001-0.067-0.001-0.1-0.002c-0.089-0.002-0.178-0.004-0.268-0.007c-0.032-0.001-0.065-0.002-0.097-0.003
				c-0.115-0.004-0.23-0.009-0.345-0.015c-0.024-0.001-0.048-0.003-0.072-0.004c-0.093-0.005-0.186-0.01-0.278-0.017
				c-0.041-0.003-0.082-0.006-0.123-0.009c-0.076-0.005-0.152-0.011-0.229-0.018c-0.043-0.004-0.087-0.007-0.13-0.011
				c-0.102-0.009-0.204-0.019-0.306-0.029c-0.059-0.006-0.118-0.012-0.177-0.019c-0.05-0.005-0.1-0.011-0.15-0.017
				c-0.068-0.008-0.137-0.016-0.205-0.025c-0.028-0.004-0.057-0.008-0.085-0.011c-11.042-1.437-19.598-10.904-19.598-22.331
				c0-4.147-3.36-7.507-7.507-7.507s-7.507,3.36-7.507,7.507c0,4.264,0.716,8.365,2.032,12.188
				c-4.033,3.424-9.147,5.328-14.543,5.328c-12.417,0-22.521-10.103-22.521-22.521c0-5.873,2.247-11.431,6.328-15.651
				c2.882-2.981,2.803-7.733-0.178-10.615c-2.982-2.884-7.734-2.803-10.615,0.178c-6.802,7.034-10.549,16.299-10.549,26.088
				c0,20.697,16.837,37.534,37.534,37.534c8.128,0,15.875-2.59,22.249-7.298c6.171,6.818,14.664,11.162,23.955,12.107
				c0.01,0.001,0.019,0.002,0.029,0.003c0.144,0.015,0.288,0.029,0.432,0.041c0.027,0.002,0.054,0.005,0.081,0.007
				c0.129,0.011,0.258,0.022,0.387,0.032c0.041,0.003,0.083,0.006,0.124,0.009c0.116,0.009,0.233,0.017,0.35,0.024
				c0.056,0.004,0.112,0.007,0.168,0.01c0.104,0.006,0.207,0.012,0.311,0.018c0.073,0.004,0.145,0.007,0.218,0.01
				c0.088,0.004,0.175,0.008,0.263,0.012c0.093,0.004,0.186,0.006,0.279,0.009c0.07,0.002,0.139,0.005,0.209,0.007
				c0.124,0.003,0.248,0.005,0.372,0.007c0.039,0.001,0.078,0.002,0.117,0.002c0.166,0.002,0.332,0.003,0.498,0.003
				c0.169,0,0.337-0.001,0.505-0.003c0.01,0.002,0.019,0.001,0.029,0.001c10.968-0.154,20.814-5.036,27.586-12.695
				c0.017-0.019,0.033-0.037,0.05-0.056c6.471,5,14.431,7.75,22.876,7.75c20.697,0,37.534-16.837,37.534-37.534
				C345.582,444.048,341.211,434.024,333.589,426.943z"/>
			<path d="M256.001,235.748c-9.658,0-17.516,7.858-17.516,17.516v41.037c0,9.658,7.858,17.516,17.516,17.516
				c9.658,0,17.516-7.858,17.516-17.516v-41.037C273.517,243.606,265.659,235.748,256.001,235.748z M258.503,294.301
				c0,1.38-1.122,2.502-2.502,2.502c-1.38,0-2.502-1.122-2.502-2.502v-41.037c0-1.38,1.122-2.502,2.502-2.502
				c1.38,0,2.502,1.122,2.502,2.502V294.301z"/>
			<circle cx="79.843" cy="278.284" r="8.007"/>
			<circle cx="106.368" cy="278.784" r="8.007"/>
			<circle cx="132.892" cy="279.285" r="8.007"/>
			<path d="M79.84,377.878h99.09c4.147,0,7.507-3.36,7.507-7.507s-3.361-7.507-7.507-7.507H79.84c-4.147,0-7.507,3.36-7.507,7.507
				S75.694,377.878,79.84,377.878z"/>
			<path d="M79.84,408.906h14.013c4.147,0,7.507-3.36,7.507-7.507s-3.36-7.507-7.507-7.507H79.84c-4.147,0-7.507,3.36-7.507,7.507
				S75.694,408.906,79.84,408.906z"/>
			<path d="M79.84,438.933h52.047c4.147,0,7.507-3.36,7.507-7.507s-3.36-7.507-7.507-7.507H79.84c-4.147,0-7.507,3.36-7.507,7.507
				S75.694,438.933,79.84,438.933z"/>
			<path d="M146.902,454.948H79.84c-4.147,0-7.507,3.36-7.507,7.507s3.36,7.507,7.507,7.507h67.061c4.147,0,7.507-3.36,7.507-7.507
				S151.047,454.948,146.902,454.948z"/>
			<path d="M178.931,393.892h-63.058c-4.147,0-7.507,3.36-7.507,7.507s3.36,7.507,7.507,7.507h63.058
				c4.147,0,7.507-3.36,7.507-7.507S183.076,393.892,178.931,393.892z"/>
			<path d="M434.164,362.864h-99.09c-4.147,0-7.507,3.361-7.507,7.507c0,4.147,3.36,7.507,7.507,7.507h99.09
				c4.147,0,7.507-3.36,7.507-7.507S438.31,362.864,434.164,362.864z"/>
			<path d="M434.164,393.892h-14.013c-4.147,0-7.507,3.36-7.507,7.507s3.36,7.507,7.507,7.507h14.013
				c4.147,0,7.507-3.36,7.507-7.507S438.309,393.892,434.164,393.892z"/>
			<path d="M434.164,423.92h-52.047c-4.147,0-7.507,3.36-7.507,7.507s3.36,7.507,7.507,7.507h52.047c4.147,0,7.507-3.36,7.507-7.507
				S438.309,423.92,434.164,423.92z"/>
			<path d="M434.164,454.948h-67.061c-4.147,0-7.507,3.36-7.507,7.507s3.36,7.507,7.507,7.507h67.061
				c4.147,0,7.507-3.36,7.507-7.507S438.309,454.948,434.164,454.948z"/>
			<path d="M335.073,408.906h63.057c4.146,0,7.507-3.36,7.507-7.507s-3.36-7.507-7.507-7.507h-63.057
				c-4.147,0-7.507,3.36-7.507,7.507S330.926,408.906,335.073,408.906z"/>
		</g>
	</g>
</g>
<g>
</g>
<g>
</g>
<g>
</g>
<g>
</g>
<g>
</g>
<g>
</g>
<g>
</g>
<g>
</g>
<g>
</g>
<g>
</g>
<g>
</g>
<g>
</g>
<g>
</g>
<g>
</g>
<g>
</g>
</svg>
