<?xml version="1.0" encoding="iso-8859-1"?>
<!-- Generator: Adobe Illustrator 19.0.0, SVG Export Plug-In . SVG Version: 6.00 Build 0)  -->
<svg version="1.1" id="Capa_1" xmlns="http://www.w3.org/2000/svg" xmlns:xlink="http://www.w3.org/1999/xlink" x="0px" y="0px"
	 viewBox="0 0 512 512" style="enable-background:new 0 0 512 512;" xml:space="preserve">
<g>
	<g>
		<g>
			<path d="M488.5,200.5h-32c-12.958,0-23.5,10.542-23.5,23.5s10.542,23.5,23.5,23.5h32c12.958,0,23.5-10.542,23.5-23.5
				S501.458,200.5,488.5,200.5z M488.5,232.5h-32c-4.687,0-8.5-3.813-8.5-8.5s3.813-8.5,8.5-8.5h32c4.687,0,8.5,3.813,8.5,8.5
				S493.187,232.5,488.5,232.5z"/>
			<path d="M337.5,328.5h-22.548c-4.721,0-8.732-3.625-8.942-8.079c-0.111-2.357,0.72-4.59,2.339-6.287
				c1.621-1.699,3.805-2.634,6.151-2.634h91c12.958,0,23.5-10.542,23.5-23.5s-10.542-23.5-23.5-23.5h-64.548
				c-4.721,0-8.732-3.625-8.942-8.079c-0.111-2.357,0.72-4.59,2.339-6.287c1.621-1.699,3.805-2.634,6.151-2.634h34
				c12.958,0,23.5-10.542,23.5-23.5c0-12.958-10.542-23.5-23.5-23.5h-72.548c-4.721,0-8.732-3.625-8.942-8.079
				c-0.111-2.357,0.72-4.59,2.339-6.287c1.621-1.699,3.805-2.634,6.151-2.634h154c6.393,0,12.591-2.653,17.005-7.28
				c4.477-4.693,6.774-10.853,6.469-17.346c-0.591-12.546-11.1-22.374-23.925-22.374H160.25c-4.142,0-7.5,3.358-7.5,7.5
				c0,4.142,3.358,7.5,7.5,7.5h294.798c4.721,0,8.732,3.625,8.942,8.079c0.111,2.357-0.72,4.589-2.338,6.287
				c-1.621,1.699-3.806,2.634-6.152,2.634h-154c-6.393,0-12.59,2.653-17.004,7.28c-4.477,4.692-6.774,10.853-6.469,17.347
				c0.591,12.546,11.1,22.374,23.925,22.374H374.5c4.687,0,8.5,3.813,8.5,8.5c0,4.687-3.813,8.5-8.5,8.5h-34
				c-6.393,0-12.59,2.653-17.004,7.28c-4.477,4.692-6.774,10.853-6.469,17.347c0.591,12.546,11.1,22.374,23.925,22.374H405.5
				c4.687,0,8.5,3.813,8.5,8.5s-3.813,8.5-8.5,8.5h-91c-6.393,0-12.59,2.653-17.004,7.28c-4.477,4.692-6.774,10.853-6.469,17.347
				c0.591,12.546,11.1,22.374,23.925,22.374H337.5c4.687,0,8.5,3.813,8.5,8.5s-3.813,8.5-8.5,8.5H24.737
				c-5.369,0-9.737-4.368-9.737-9.737V196.5h179.5c4.142,0,7.5-3.358,7.5-7.5c0-4.142-3.358-7.5-7.5-7.5H15v-20.263
				c0-5.369,4.368-9.737,9.737-9.737H130.25c4.142,0,7.5-3.358,7.5-7.5c0-4.142-3.358-7.5-7.5-7.5H24.737
				C11.097,136.5,0,147.597,0,161.237v189.525c0,13.64,11.097,24.737,24.737,24.737H337.5c12.958,0,23.5-10.542,23.5-23.5
				S350.458,328.5,337.5,328.5z"/>
			<path d="M434.5,328.5h-28c-12.958,0-23.5,10.542-23.5,23.5s10.542,23.5,23.5,23.5h28c12.958,0,23.5-10.542,23.5-23.5
				S447.458,328.5,434.5,328.5z M434.5,360.5h-28c-4.687,0-8.5-3.813-8.5-8.5s3.813-8.5,8.5-8.5h28c4.687,0,8.5,3.813,8.5,8.5
				S439.187,360.5,434.5,360.5z"/>
			<path d="M258.5,196.5c4.142,0,7.5-3.358,7.5-7.5c0-4.142-3.358-7.5-7.5-7.5h-33c-4.142,0-7.5,3.358-7.5,7.5
				c0,4.142,3.358,7.5,7.5,7.5H258.5z"/>
			<circle cx="33.5" cy="168" r="6.5"/>
			<circle cx="57.5" cy="168" r="6.5"/>
			<circle cx="81.5" cy="168" r="6.5"/>
			<path d="M58.303,224.197c-2.929-2.929-7.678-2.929-10.606,0l-21.5,21.5c-2.929,2.929-2.929,7.678,0,10.606l22.5,22.5
				C50.161,280.268,52.081,281,54,281s3.839-0.732,5.303-2.197c2.929-2.929,2.929-7.678,0-10.606L42.106,251l16.197-16.197
				C61.232,231.875,61.232,227.125,58.303,224.197z"/>
			<path d="M109.697,278.803c1.464,1.464,3.384,2.197,5.303,2.197s3.839-0.732,5.303-2.197l22.5-22.5
				c2.929-2.929,2.929-7.678,0-10.606l-21.5-21.5c-2.929-2.929-7.678-2.929-10.606,0c-2.929,2.929-2.929,7.678,0,10.606L126.894,251
				l-17.197,17.197C106.768,271.125,106.768,275.875,109.697,278.803z"/>
			<path d="M73.493,280.501c2.63,0,5.183-1.386,6.556-3.846l24-43c2.019-3.617,0.723-8.186-2.894-10.204
				c-3.618-2.021-8.186-0.724-10.204,2.894l-24,43c-2.019,3.617-0.723,8.186,2.894,10.204
				C71.002,280.195,72.256,280.501,73.493,280.501z"/>
			<path d="M166.5,271.5h65c4.142,0,7.5-3.358,7.5-7.5c0-4.142-3.358-7.5-7.5-7.5h-65c-4.142,0-7.5,3.358-7.5,7.5
				C159,268.142,162.358,271.5,166.5,271.5z"/>
			<path d="M166.5,236.5h8c4.142,0,7.5-3.358,7.5-7.5c0-4.142-3.358-7.5-7.5-7.5h-8c-4.142,0-7.5,3.358-7.5,7.5
				C159,233.142,162.358,236.5,166.5,236.5z"/>
			<path d="M295,264c0-4.142-3.358-7.5-7.5-7.5h-31c-4.142,0-7.5,3.358-7.5,7.5c0,4.142,3.358,7.5,7.5,7.5h31
				C291.642,271.5,295,268.142,295,264z"/>
			<path d="M181,301c0-4.142-3.358-7.5-7.5-7.5h-120c-4.142,0-7.5,3.358-7.5,7.5c0,4.142,3.358,7.5,7.5,7.5h120
				C177.642,308.5,181,305.142,181,301z"/>
			<path d="M256.5,293.5h-57c-4.142,0-7.5,3.358-7.5,7.5c0,4.142,3.358,7.5,7.5,7.5h57c4.142,0,7.5-3.358,7.5-7.5
				C264,296.858,260.642,293.5,256.5,293.5z"/>
			<path d="M53.5,326.5c-4.142,0-7.5,3.358-7.5,7.5c0,4.142,3.358,7.5,7.5,7.5h39c4.142,0,7.5-3.358,7.5-7.5
				c0-4.142-3.358-7.5-7.5-7.5H53.5z"/>
			<path d="M115.5,326.5c-4.142,0-7.5,3.358-7.5,7.5c0,4.142,3.358,7.5,7.5,7.5h22c4.142,0,7.5-3.358,7.5-7.5
				c0-4.142-3.358-7.5-7.5-7.5H115.5z"/>
			<path d="M157.5,341.5h99c4.142,0,7.5-3.358,7.5-7.5c0-4.142-3.358-7.5-7.5-7.5h-99c-4.142,0-7.5,3.358-7.5,7.5
				C150,338.142,153.358,341.5,157.5,341.5z"/>
			<path d="M190,230c0,4.142,3.358,7.5,7.5,7.5h61c4.142,0,7.5-3.358,7.5-7.5c0-4.142-3.358-7.5-7.5-7.5h-61
				C193.358,222.5,190,225.858,190,230z"/>
		</g>
	</g>
</g>
<g>
</g>
<g>
</g>
<g>
</g>
<g>
</g>
<g>
</g>
<g>
</g>
<g>
</g>
<g>
</g>
<g>
</g>
<g>
</g>
<g>
</g>
<g>
</g>
<g>
</g>
<g>
</g>
<g>
</g>
</svg>
