<?xml version="1.0" encoding="iso-8859-1"?>
<!-- Generator: Adobe Illustrator 19.0.0, SVG Export Plug-In . SVG Version: 6.00 Build 0)  -->
<svg version="1.1" id="Capa_1" xmlns="http://www.w3.org/2000/svg" xmlns:xlink="http://www.w3.org/1999/xlink" x="0px" y="0px"
	 viewBox="0 0 512 512" style="enable-background:new 0 0 512 512;" xml:space="preserve">
<g>
	<g>
		<g>
			<circle cx="175.5" cy="249.919" r="5"/>
			<circle cx="192" cy="250.419" r="5"/>
			<circle cx="208.5" cy="250.919" r="5"/>
			<path d="M491.5,290.424c-8.658,0-16.079,5.395-19.079,13H438v-61.5h39.862c6.417,0,11.638-5.221,11.638-11.638V194.63
				c0-6.417-5.221-11.638-11.638-11.638h-14.997l11.334-10.78c2.253-2.143,3.537-5.034,3.615-8.143
				c0.078-3.108-1.06-6.06-3.202-8.312l-24.573-25.836c-4.422-4.651-11.804-4.835-16.454-0.413l-15.152,14.411v-20.357
				c0-6.417-5.221-11.638-11.638-11.638h-35.656c-6.417,0-11.638,5.221-11.638,11.638v41.862h-80V77.076
				c0-12.407-10.093-22.5-22.5-22.5c-12.407,0-22.5,10.093-22.5,22.5v88.349H93.531c-11.321,0-20.531,9.21-20.531,20.531v117.469
				H39.579c-3-7.605-10.421-13-19.079-13c-11.304,0-20.5,9.196-20.5,20.5c0,11.304,9.196,20.5,20.5,20.5
				c8.658,0,16.079-5.395,19.079-13H73v86H37.595c-6.945,0-12.595,5.65-12.595,12.595v9.154c0,17.232,14.019,31.251,31.251,31.251
				h400.498c17.232,0,31.251-14.019,31.251-31.251v-9.154c0-6.945-5.65-12.595-12.595-12.595H438v-86h34.421
				c3,7.605,10.421,13,19.079,13c11.304,0,20.5-9.196,20.5-20.5C512,299.62,502.804,290.424,491.5,290.424z M20.5,316.424
				c-3.033,0-5.5-2.467-5.5-5.5c0-3.033,2.467-5.5,5.5-5.5s5.5,2.467,5.5,5.5C26,313.956,23.533,316.424,20.5,316.424z
				 M418.433,164.62l23.054-21.927l19.939,20.965l-22.475,21.376c-0.008,0.008-0.016,0.015-0.024,0.022l-20.494,19.493V164.62z
				 M413,241.924h10v61.5h-10V241.924z M403.433,126.924v85.534c0,0.071-0.001,0.143-0.002,0.214c0,0.015-0.001,0.031-0.001,0.046
				c-0.001,0.054-0.002,0.109-0.004,0.164c-0.001,0.019-0.001,0.038-0.002,0.057c-0.002,0.058-0.004,0.115-0.007,0.173
				c0,0.011-0.001,0.022-0.001,0.033c-0.074,1.554-0.396,3.068-0.94,4.489c-0.008,0.02-0.015,0.04-0.023,0.06
				c-0.013,0.034-0.026,0.068-0.04,0.101c-0.016,0.041-0.033,0.082-0.049,0.122l-0.005,0.013c-1.98,4.828-6.498,8.357-11.885,8.917
				c-0.019,0.002-0.039,0.004-0.058,0.006c-0.05,0.005-0.099,0.01-0.149,0.014c-0.064,0.006-0.127,0.011-0.191,0.016
				c-0.031,0.002-0.062,0.004-0.093,0.006c-0.049,0.003-0.098,0.007-0.146,0.01c-0.031,0.002-0.063,0.004-0.094,0.005
				c-0.074,0.004-0.148,0.008-0.222,0.01c-0.016,0.001-0.032,0.001-0.048,0.001c-0.065,0.002-0.13,0.004-0.196,0.006
				c-0.023,0-0.046,0.001-0.068,0.001c-0.08,0.001-0.161,0.002-0.242,0.002c-7.977,0-14.466-6.49-14.466-14.466v-85.534H403.433z
				 M279.5,180.424h80v10h-80V180.424z M279.5,205.424h80v7.034c0,0.127,0.001,0.254,0.002,0.38
				c0.203,15.947,13.137,28.881,29.084,29.083c0.127,0.001,0.253,0.002,0.38,0.002H398v61.5h-35v-64.376
				c0-9.166-7.457-16.623-16.623-16.623H279.5V205.424z M398,318.424v61h-35v-61H398z M279.5,237.424h66.877
				c0.895,0,1.623,0.728,1.623,1.623v23.377h-68.5V237.424z M278.528,287.954c0.637-1.126,0.972-2.399,0.972-3.693v-6.837H348v26
				h-78.224L278.528,287.954z M348,318.424v61H163v-61H348z M249.5,77.076c0-4.136,3.364-7.5,7.5-7.5s7.5,3.364,7.5,7.5v23.849h-15
				V77.076z M249.5,115.924h15v6h-15V115.924z M249.5,136.924h15v145.363l-7.5,13.255l-7.5-13.255V136.924z M235.472,287.953
				l8.752,15.469H163v-25.999h71.5v6.837C234.5,285.555,234.835,286.828,235.472,287.953z M163,262.424v-23.377
				c0-0.895,0.728-1.623,1.623-1.623H234.5v25H163z M88,185.955c0-3.05,2.481-5.531,5.531-5.531H234.5v10h-129
				c-4.142,0-7.5,3.358-7.5,7.5v44c0,4.142,3.358,7.5,7.5,7.5c4.142,0,7.5-3.358,7.5-7.5v-36.5h121.5v17h-69.877
				c-9.166,0-16.623,7.457-16.623,16.623v64.377h-35v-31.5c0-4.142-3.358-7.5-7.5-7.5c-4.142,0-7.5,3.358-7.5,7.5v31.5H88V185.955z
				 M148,318.424v61h-35v-61H148z M88,318.424h10v68.5c0,4.142,3.358,7.5,7.5,7.5h300c4.142,0,7.5-3.358,7.5-7.5v-68.5h10v86H88
				V318.424z M473,419.424v6.749c0,8.961-7.29,16.251-16.251,16.251H56.251c-8.961,0-16.251-7.29-16.251-16.251v-6.749H473z
				 M416.674,226.924l30.42-28.933H474.5v28.933H416.674z M491.5,316.424c-3.033,0-5.5-2.467-5.5-5.5c0-3.033,2.467-5.5,5.5-5.5
				c3.033,0,5.5,2.467,5.5,5.5C497,313.956,494.533,316.424,491.5,316.424z"/>
			<circle cx="389.17" cy="213.749" r="6.389"/>
			<path d="M180.5,347.424h22c4.142,0,7.5-3.358,7.5-7.5c0-4.142-3.358-7.5-7.5-7.5h-22c-4.142,0-7.5,3.358-7.5,7.5
				C173,344.065,176.358,347.424,180.5,347.424z"/>
			<path d="M180.5,370.424h75c4.142,0,7.5-3.358,7.5-7.5c0-4.142-3.358-7.5-7.5-7.5h-75c-4.142,0-7.5,3.358-7.5,7.5
				C173,367.065,176.358,370.424,180.5,370.424z"/>
			<path d="M329.5,355.424h-51c-4.142,0-7.5,3.358-7.5,7.5c0,4.142,3.358,7.5,7.5,7.5h51c4.142,0,7.5-3.358,7.5-7.5
				C337,358.781,333.642,355.424,329.5,355.424z"/>
			<path d="M229.5,347.424h101c4.142,0,7.5-3.358,7.5-7.5c0-4.142-3.358-7.5-7.5-7.5h-101c-4.142,0-7.5,3.358-7.5,7.5
				C222,344.065,225.358,347.424,229.5,347.424z"/>
		</g>
	</g>
</g>
<g>
</g>
<g>
</g>
<g>
</g>
<g>
</g>
<g>
</g>
<g>
</g>
<g>
</g>
<g>
</g>
<g>
</g>
<g>
</g>
<g>
</g>
<g>
</g>
<g>
</g>
<g>
</g>
<g>
</g>
</svg>
