<?xml version="1.0" encoding="iso-8859-1"?>
<!-- Generator: Adobe Illustrator 19.0.0, SVG Export Plug-In . SVG Version: 6.00 Build 0)  -->
<svg version="1.1" id="Capa_1" xmlns="http://www.w3.org/2000/svg" xmlns:xlink="http://www.w3.org/1999/xlink" x="0px" y="0px"
	 viewBox="0 0 512 512" style="enable-background:new 0 0 512 512;" xml:space="preserve">
<g>
	<g>
		<g>
			<path d="M504.5,263.5h-35.43l-6.906-8.5l6.906-8.5h35.43c4.142,0,7.5-3.358,7.5-7.5c0-23.435-19.065-42.5-42.5-42.5h-8
				c-22.932,0-43.649,13.46-53.125,34H369V93.441c0-15.407-12.535-27.941-27.941-27.941H171.941C156.535,65.5,144,78.035,144,93.441
				V230.5h-40.375c-9.477-20.54-30.194-34-53.125-34h-8C19.065,196.5,0,215.565,0,239c0,4.142,3.358,7.5,7.5,7.5h35.43l6.906,8.5
				l-6.906,8.5H7.5c-4.142,0-7.5,3.358-7.5,7.5c0,23.435,19.065,42.5,42.5,42.5h8c21.268,0,40.815-11.626,51.082-30H144v135.059
				c0,15.407,12.535,27.941,27.941,27.941h169.117c15.407,0,27.941-12.535,27.941-27.941V283.5h41.418
				c10.267,18.374,29.814,30,51.082,30h8c23.435,0,42.5-19.065,42.5-42.5C512,266.858,508.642,263.5,504.5,263.5z M144,268.5H96.973
				c-2.945,0-5.618,1.724-6.833,4.407C83.104,288.454,67.543,298.5,50.5,298.5h-8c-12.565,0-23.188-8.47-26.46-20H46.5
				c2.258,0,4.396-1.018,5.821-2.771l13-16c2.239-2.755,2.239-6.704,0-9.459l-13-16c-1.424-1.753-3.563-2.771-5.821-2.771H16.04
				c3.272-11.53,13.896-20,26.46-20h8c18.4,0,34.883,11.654,41.015,29c1.06,2.997,3.893,5,7.071,5H144V268.5z M354,418.559
				L354,418.559c0,7.136-5.806,12.941-12.941,12.941H171.941c-7.136,0-12.941-5.806-12.941-12.941V93.441
				c0-7.136,5.806-12.941,12.941-12.941h169.117c7.136,0,12.941,5.806,12.941,12.941V230.5h-10V101.251
				c0-5.928-4.823-10.751-10.751-10.751H309.93c-3.536,0-6.591,2.47-7.333,5.927L300.329,107h-87.657l-2.269-10.573
				c-0.742-3.457-3.797-5.927-7.333-5.927h-23.319c-5.928,0-10.751,4.823-10.751,10.751v309.498c0,5.928,4.823,10.751,10.751,10.751
				h153.498c5.928,0,10.751-4.823,10.751-10.751V283.5h10V418.559z M469.5,298.5h-8c-17.043,0-32.604-10.046-39.641-25.593
				c-1.214-2.683-3.887-4.407-6.833-4.407H319.25c-4.142,0-7.5,3.358-7.5,7.5c0,4.142,3.358,7.5,7.5,7.5H329v123H184v-301h13.008
				l1.638,7.633c0.995,5.148,5.629,8.867,11.09,8.867h93.527c5.461,0,10.096-3.719,11.09-8.867l1.638-7.633H329v125h-53.5
				c-14.612,0-26.5,11.888-26.5,26.5c0,14.612,11.888,26.5,26.5,26.5h13.75c4.142,0,7.5-3.358,7.5-7.5c0-4.142-3.358-7.5-7.5-7.5
				H275.5c-6.341,0-11.5-5.159-11.5-11.5c0-6.341,5.159-11.5,11.5-11.5h137.914c3.178,0,6.012-2.003,7.071-5
				c6.132-17.346,22.615-29,41.015-29h8c12.565,0,23.188,8.47,26.46,20H465.5c-2.258,0-4.396,1.018-5.821,2.771l-13,16
				c-2.239,2.755-2.239,6.704,0,9.459l13,16c1.424,1.753,3.563,2.771,5.821,2.771h30.46C492.688,290.03,482.065,298.5,469.5,298.5z"
				/>
			<path d="M235.5,100.5h41c4.142,0,7.5-3.358,7.5-7.5c0-4.142-3.358-7.5-7.5-7.5h-41c-4.142,0-7.5,3.358-7.5,7.5
				C228,97.142,231.358,100.5,235.5,100.5z"/>
			<path d="M210.297,326.5c-7.883,0-14.297,6.414-14.297,14.297v32.406c0,7.883,6.414,14.297,14.297,14.297h92.406
				c7.883,0,14.297-6.414,14.297-14.297v-32.406c0-7.883-6.414-14.297-14.297-14.297H210.297z M302,372.5h-91v-31h91V372.5z"/>
			<path d="M209,306c0,4.142,3.358,7.5,7.5,7.5h81c4.142,0,7.5-3.358,7.5-7.5c0-4.142-3.358-7.5-7.5-7.5h-81
				C212.358,298.5,209,301.858,209,306z"/>
			<path d="M202.5,264.5h8c4.142,0,7.5-3.358,7.5-7.5c0-4.142-3.358-7.5-7.5-7.5h-8c-4.142,0-7.5,3.358-7.5,7.5
				C195,261.142,198.358,264.5,202.5,264.5z"/>
			<path d="M237.5,264.5c4.142,0,7.5-3.358,7.5-7.5c0-4.142-3.358-7.5-7.5-7.5h-8c-4.142,0-7.5,3.358-7.5,7.5
				c0,4.142,3.358,7.5,7.5,7.5H237.5z"/>
			<path d="M297.5,206.5h-81c-4.142,0-7.5,3.358-7.5,7.5c0,4.142,3.358,7.5,7.5,7.5h81c4.142,0,7.5-3.358,7.5-7.5
				C305,209.858,301.642,206.5,297.5,206.5z"/>
			<path d="M297.5,178.5h-81c-4.142,0-7.5,3.358-7.5,7.5c0,4.142,3.358,7.5,7.5,7.5h81c4.142,0,7.5-3.358,7.5-7.5
				C305,181.858,301.642,178.5,297.5,178.5z"/>
			<path d="M210.12,171.5h92.761c7.786,0,14.12-6.334,14.12-14.12v-13.76c0-7.786-6.334-14.12-14.12-14.12H210.12
				c-7.786,0-14.12,6.334-14.12,14.12v13.761C196,165.166,202.334,171.5,210.12,171.5z M211,144.5h91v12h-91V144.5z"/>
		</g>
	</g>
</g>
<g>
</g>
<g>
</g>
<g>
</g>
<g>
</g>
<g>
</g>
<g>
</g>
<g>
</g>
<g>
</g>
<g>
</g>
<g>
</g>
<g>
</g>
<g>
</g>
<g>
</g>
<g>
</g>
<g>
</g>
</svg>
