<?xml version="1.0" encoding="iso-8859-1"?>
<!-- Generator: Adobe Illustrator 19.0.0, SVG Export Plug-In . SVG Version: 6.00 Build 0)  -->
<svg version="1.1" id="Capa_1" xmlns="http://www.w3.org/2000/svg" xmlns:xlink="http://www.w3.org/1999/xlink" x="0px" y="0px"
	 viewBox="0 0 512 512" style="enable-background:new 0 0 512 512;" xml:space="preserve">
<g>
	<g>
		<g>
			<path d="M455.501,461H434.5V282.597c0-10.806-8.791-19.597-19.597-19.597H359.5V131h42.298c6.452,0,11.702-5.25,11.702-11.702
				V35.062c0-18.818-15.044-34.541-33.535-35.048c-0.292-0.008-0.583-0.012-0.874-0.013C379.061,0.001,379.03,0,379,0H185
				c-19.023,0-34.5,15.477-34.5,34.5v139c0,4.143,3.358,7.5,7.5,7.5c4.142,0,7.5-3.357,7.5-7.5v-139c0-10.752,8.748-19.5,19.5-19.5
				h165.525c-3.919,5.691-6.025,12.422-6.025,19.5v295c0,4.143,3.358,7.5,7.5,7.5c4.142,0,7.5-3.357,7.5-7.5V303h35v133h-35v-76.5
				c0-4.143-3.358-7.5-7.5-7.5c-4.142,0-7.5,3.357-7.5,7.5V436h-179V203.5c0-4.143-3.358-7.5-7.5-7.5c-4.142,0-7.5,3.357-7.5,7.5
				V263H99.097c-10.806,0-19.597,8.791-19.597,19.597V461H56.499c-6.065,0-10.999,4.935-10.999,10.999v7.801
				c0,17.755,14.445,32.2,32.2,32.2h356.6c17.755,0,32.2-14.445,32.2-32.2v-7.801C466.5,465.935,461.566,461,455.501,461z
				 M359.5,34.5c0-5.311,2.097-10.274,5.903-13.979c3.805-3.7,8.843-5.648,14.15-5.514C390,15.294,398.5,24.29,398.5,35.062V116h-39
				V34.5z M94.5,282.597c0-2.534,2.062-4.597,4.597-4.597H150.5v10H112c-4.142,0-7.5,3.357-7.5,7.5v148c0,4.143,3.358,7.5,7.5,7.5
				h290c4.142,0,7.5-3.357,7.5-7.5v-148c0-4.143-3.358-7.5-7.5-7.5h-42.5v-10h55.403c2.535,0,4.597,2.063,4.597,4.597V461h-325
				V282.597z M150.5,303v133h-31V303H150.5z M451.5,479.8c0,9.484-7.716,17.2-17.2,17.2H77.7c-9.484,0-17.2-7.716-17.2-17.2V476h391
				V479.8z"/>
			<path d="M178.5,214.397c-0.009,0.596,0.054,1.196,0.19,1.787c0.001,0.005,0.002,0.01,0.003,0.015
				c0.011,0.046,0.022,0.092,0.034,0.139c0.005,0.018,0.009,0.036,0.014,0.054c0.008,0.032,0.017,0.064,0.026,0.097
				c0.009,0.031,0.017,0.063,0.026,0.094c0.006,0.02,0.011,0.039,0.017,0.058c0.013,0.043,0.026,0.087,0.04,0.13
				c0.002,0.007,0.004,0.014,0.007,0.021c0.227,0.708,0.556,1.37,0.97,1.969c0.001,0.001,0.001,0.002,0.002,0.003
				c0.044,0.063,0.088,0.125,0.133,0.187c0.006,0.008,0.012,0.016,0.018,0.024c0.042,0.056,0.084,0.111,0.127,0.166
				c0.025,0.033,0.051,0.064,0.077,0.096c0.015,0.018,0.03,0.036,0.045,0.055c0.461,0.556,0.991,1.032,1.57,1.423
				c0.01,0.007,0.02,0.013,0.029,0.02c0.051,0.034,0.102,0.067,0.153,0.1c0.047,0.03,0.094,0.059,0.141,0.088
				c0.016,0.01,0.033,0.02,0.05,0.029c0.054,0.032,0.108,0.063,0.163,0.094c0.006,0.003,0.012,0.007,0.018,0.01
				c0.881,0.491,1.871,0.81,2.925,0.91c0.014,0.001,0.027,0.002,0.041,0.003c0.053,0.005,0.106,0.009,0.159,0.013
				c0.035,0.003,0.07,0.005,0.105,0.007c0.026,0.001,0.052,0.002,0.078,0.004c0.115,0.005,0.23,0.009,0.346,0.009
				c0.041,0,0.081,0,0.122-0.001H323.87c0.041,0,0.081,0.001,0.122,0.001c0.115,0,0.231-0.003,0.346-0.009
				c0.026-0.001,0.052-0.002,0.079-0.004c0.035-0.002,0.07-0.004,0.105-0.007c0.053-0.003,0.107-0.008,0.16-0.013
				c0.013-0.001,0.026-0.002,0.039-0.003c1.056-0.101,2.047-0.42,2.93-0.913c0.003-0.001,0.006-0.003,0.009-0.005
				c0.059-0.033,0.118-0.067,0.177-0.102c0.013-0.007,0.025-0.015,0.038-0.022c0.057-0.035,0.114-0.07,0.17-0.105
				c0.038-0.025,0.076-0.05,0.114-0.075c0.016-0.011,0.032-0.021,0.048-0.032c0.577-0.391,1.106-0.865,1.565-1.42
				c0.015-0.019,0.03-0.037,0.045-0.055c0.026-0.032,0.052-0.063,0.077-0.096c0.044-0.056,0.087-0.112,0.129-0.168
				c0.005-0.006,0.009-0.013,0.014-0.019c0.046-0.063,0.092-0.126,0.136-0.19c0.001-0.001,0.001-0.002,0.002-0.003
				c0.414-0.599,0.743-1.261,0.97-1.969c0.002-0.007,0.004-0.014,0.007-0.021c0.014-0.043,0.027-0.087,0.04-0.13
				c0.006-0.02,0.012-0.039,0.017-0.058c0.009-0.031,0.018-0.063,0.026-0.094c0.009-0.032,0.018-0.064,0.026-0.097
				c0.005-0.018,0.009-0.036,0.014-0.054c0.012-0.046,0.023-0.092,0.034-0.139c0.001-0.005,0.002-0.01,0.003-0.015
				c0.136-0.591,0.199-1.191,0.19-1.787v-81.794c0.009-0.596-0.054-1.196-0.19-1.787c-0.001-0.005-0.002-0.01-0.003-0.015
				c-0.011-0.046-0.022-0.092-0.034-0.139c-0.005-0.018-0.009-0.036-0.014-0.054c-0.008-0.032-0.017-0.064-0.026-0.097
				c-0.009-0.031-0.017-0.063-0.026-0.094c-0.006-0.02-0.011-0.039-0.017-0.058c-0.013-0.043-0.026-0.087-0.04-0.13
				c-0.002-0.007-0.004-0.014-0.007-0.021c-0.251-0.784-0.627-1.511-1.106-2.159c-0.006-0.009-0.013-0.018-0.019-0.026
				c-0.018-0.024-0.036-0.048-0.055-0.072c-0.539-0.708-1.185-1.297-1.902-1.758c-0.01-0.006-0.02-0.013-0.03-0.019
				c-0.032-0.02-0.063-0.04-0.095-0.06c-0.025-0.015-0.05-0.03-0.075-0.045c-0.017-0.01-0.034-0.021-0.052-0.031
				c-0.94-0.555-2.011-0.912-3.156-1.01c-0.02-0.002-0.04-0.004-0.06-0.005c-0.021-0.001-0.043-0.003-0.064-0.004
				c-0.048-0.003-0.096-0.007-0.143-0.009c-0.001,0-0.002,0-0.003,0c-0.167-0.009-0.335-0.012-0.503-0.01H186.153
				c-0.369-0.007-0.738,0.013-1.102,0.06c-0.002,0-0.005,0-0.007,0.001c-0.029,0.004-0.058,0.008-0.087,0.012
				c-0.878,0.122-1.708,0.396-2.461,0.795c-0.012,0.006-0.023,0.012-0.035,0.019c-0.031,0.017-0.062,0.034-0.093,0.051
				c-0.029,0.016-0.058,0.032-0.087,0.048c-0.012,0.007-0.025,0.015-0.037,0.021c-0.848,0.49-1.608,1.151-2.225,1.968
				c-0.011,0.015-0.023,0.03-0.034,0.044c-0.011,0.015-0.022,0.03-0.033,0.045c-0.473,0.644-0.846,1.367-1.095,2.144
				c-0.002,0.007-0.004,0.014-0.007,0.021c-0.014,0.043-0.027,0.087-0.04,0.13c-0.006,0.02-0.012,0.039-0.017,0.058
				c-0.009,0.031-0.018,0.063-0.026,0.094c-0.009,0.032-0.018,0.064-0.026,0.097c-0.005,0.018-0.009,0.036-0.014,0.054
				c-0.012,0.046-0.023,0.092-0.034,0.139c-0.001,0.005-0.002,0.01-0.003,0.015c-0.136,0.591-0.199,1.191-0.19,1.787V214.397z
				 M213.304,207L255,182.224L296.697,207H213.304z M316.5,201.32l-46.819-27.82l46.819-27.82V201.32z M296.696,140L255,164.776
				L213.303,140H296.696z M193.5,145.68l46.819,27.82L193.5,201.32V145.68z"/>
			<path d="M191.205,88h127.591c7.005,0,12.705-5.699,12.705-12.705v-18.59c0-7.006-5.699-12.705-12.705-12.705H191.205
				C184.2,44,178.5,49.699,178.5,56.705v18.59C178.5,82.301,184.199,88,191.205,88z M193.5,59h123v14h-123V59z"/>
			<path d="M324,247H186c-4.142,0-7.5,3.357-7.5,7.5s3.358,7.5,7.5,7.5h138c4.142,0,7.5-3.357,7.5-7.5S328.142,247,324,247z"/>
			<path d="M324,282H186c-4.142,0-7.5,3.357-7.5,7.5s3.358,7.5,7.5,7.5h138c4.142,0,7.5-3.357,7.5-7.5S328.142,282,324,282z"/>
			<path d="M324,317H186c-4.142,0-7.5,3.357-7.5,7.5s3.358,7.5,7.5,7.5h138c4.142,0,7.5-3.357,7.5-7.5S328.142,317,324,317z"/>
			<path d="M324,352H186c-4.142,0-7.5,3.357-7.5,7.5s3.358,7.5,7.5,7.5h138c4.142,0,7.5-3.357,7.5-7.5S328.142,352,324,352z"/>
			<path d="M324,387H186c-4.142,0-7.5,3.357-7.5,7.5s3.358,7.5,7.5,7.5h138c4.142,0,7.5-3.357,7.5-7.5S328.142,387,324,387z"/>
		</g>
	</g>
</g>
<g>
</g>
<g>
</g>
<g>
</g>
<g>
</g>
<g>
</g>
<g>
</g>
<g>
</g>
<g>
</g>
<g>
</g>
<g>
</g>
<g>
</g>
<g>
</g>
<g>
</g>
<g>
</g>
<g>
</g>
</svg>
