<?xml version="1.0" encoding="iso-8859-1"?>
<!-- Generator: Adobe Illustrator 19.0.0, SVG Export Plug-In . SVG Version: 6.00 Build 0)  -->
<svg version="1.1" id="Capa_1" xmlns="http://www.w3.org/2000/svg" xmlns:xlink="http://www.w3.org/1999/xlink" x="0px" y="0px"
	 viewBox="0 0 512 512" style="enable-background:new 0 0 512 512;" xml:space="preserve">
<g>
	<g>
		<g>
			<path d="M239.5,411.5h34c10.201,0,18.5-8.299,18.5-18.5s-8.299-18.5-18.5-18.5h-34c-10.201,0-18.5,8.299-18.5,18.5
				S229.299,411.5,239.5,411.5z M239.5,389.5h34c1.93,0,3.5,1.57,3.5,3.5s-1.57,3.5-3.5,3.5h-34c-1.93,0-3.5-1.57-3.5-3.5
				S237.57,389.5,239.5,389.5z"/>
			<path d="M271.5,108.5h-64c-4.142,0-7.5,3.358-7.5,7.5c0,4.142,3.358,7.5,7.5,7.5h64c4.142,0,7.5-3.358,7.5-7.5
				C279,111.858,275.642,108.5,271.5,108.5z"/>
			<path d="M305.5,108.5h-11c-4.142,0-7.5,3.358-7.5,7.5c0,4.142,3.358,7.5,7.5,7.5h11c4.142,0,7.5-3.358,7.5-7.5
				C313,111.858,309.642,108.5,305.5,108.5z"/>
			<path d="M282.575,235.24C277.768,224.852,267.345,218,255.5,218c-11.845,0-22.268,6.852-27.075,17.24
				c-10.657,0.661-19.125,9.54-19.125,20.36c0,11.249,9.151,20.4,20.4,20.4h51.6c11.249,0,20.4-9.151,20.4-20.4
				C301.7,244.78,293.231,235.9,282.575,235.24z M281.3,261h-51.6c-2.978,0-5.4-2.422-5.4-5.4c0-2.978,2.423-5.4,5.4-5.4h4.045
				c3.478,0,6.499-2.391,7.299-5.775c1.59-6.727,7.534-11.425,14.456-11.425s12.866,4.698,14.456,11.425
				c0.8,3.385,3.821,5.775,7.299,5.775h4.045c2.978,0,5.4,2.422,5.4,5.4C286.7,258.578,284.277,261,281.3,261z"/>
			<path d="M445.5,190.115h30c8.271,0,15-6.729,15-15c0-7.325-5.276-13.439-12.228-14.743c-3.576-6.239-10.257-10.257-17.772-10.257
				s-14.196,4.018-17.772,10.257c-6.952,1.304-12.228,7.418-12.228,14.743C430.5,183.386,437.229,190.115,445.5,190.115z
				 M455.15,169.34c0.588-2.488,2.788-4.225,5.35-4.225s4.762,1.737,5.35,4.225c0.8,3.384,3.821,5.775,7.299,5.775h-25.297
				C451.329,175.115,454.351,172.725,455.15,169.34z"/>
			<path d="M478.272,329.372c-3.576-6.239-10.257-10.257-17.772-10.257s-14.196,4.018-17.772,10.257
				c-6.952,1.304-12.228,7.418-12.228,14.743c0,8.271,6.729,15,15,15h30c8.271,0,15-6.729,15-15
				C490.5,336.791,485.224,330.676,478.272,329.372z M447.852,344.115c3.478,0,6.499-2.391,7.299-5.775
				c0.588-2.488,2.788-4.225,5.35-4.225s4.762,1.737,5.35,4.225c0.8,3.384,3.821,5.775,7.299,5.775H447.852z"/>
			<path d="M468,291.045v-67.089c24.855-3.642,44-25.105,44-50.955c0-28.397-23.103-51.5-51.5-51.5
				c-27.209,0-49.558,21.211-51.38,47.966L361,211.07V102.11c0-12.467-10.143-22.61-22.61-22.61H172.61
				c-12.467,0-22.61,10.143-22.61,22.61V226.5H75.469v-63h35.682c7.085,0,12.85-5.764,12.85-12.85v-28.3
				c0-7.085-5.764-12.85-12.85-12.85H12.85C5.764,109.5,0,115.264,0,122.35v28.301c0,7.085,5.764,12.85,12.85,12.85h47.619v63H39.5
				c-4.142,0-7.5,3.358-7.5,7.5v92.214C13.794,329.728,0,345.783,0,365c0,21.78,17.72,39.5,39.5,39.5S79,386.78,79,365
				c0-19.217-13.794-35.272-32-38.786V241.5h20.5c0.078,0,0.156-0.001,0.234-0.004c0.078,0.002,0.156,0.004,0.234,0.004H150V290
				c0,4.142,3.358,7.5,7.5,7.5c4.142,0,7.5-3.358,7.5-7.5V149.887h181v74.152l-18.927,16.364
				C321.506,205.919,291.53,179.5,255.5,179.5c-39.977,0-72.5,32.523-72.5,72.5s32.523,72.5,72.5,72.5
				c33.543,0,61.838-22.897,70.077-53.882L346,288.913V353.5H165V320c0-4.142-3.358-7.5-7.5-7.5c-4.142,0-7.5,3.358-7.5,7.5v89.89
				c0,12.467,10.143,22.61,22.61,22.61h165.78c12.467,0,22.61-10.143,22.61-22.61V302.351l48.115,43.103
				c1.783,26.793,24.149,48.046,51.385,48.046c28.397,0,51.5-23.103,51.5-51.5C512,316.15,492.855,294.687,468,291.045z M64,365
				c0,13.509-10.991,24.5-24.5,24.5S15,378.509,15,365c0-13.509,10.991-24.5,24.5-24.5S64,351.491,64,365z M15,148.5v-24h94v24H15z
				 M255.5,309.5c-31.706,0-57.5-25.794-57.5-57.5s25.794-57.5,57.5-57.5S313,220.294,313,252S287.206,309.5,255.5,309.5z
				 M346,409.89c0,4.196-3.414,7.61-7.61,7.61H172.61c-4.196,0-7.61-3.414-7.61-7.61V368.5h181V409.89z M346,268.775L331.852,256.1
				L346,243.868V268.775z M346,134.887H165V102.11c0-4.196,3.414-7.61,7.61-7.61h165.78c4.196,0,7.61,3.414,7.61,7.61V134.887z
				 M424,172.992c0.004-20.122,16.377-36.492,36.5-36.492c20.126,0,36.5,16.374,36.5,36.5c0,20.126-16.374,36.5-36.5,36.5
				c-20.122,0-36.493-16.368-36.5-36.488C424,173.005,424,172.999,424,172.992z M411.178,327.163L361,282.212v-51.313l50.102-43.318
				c5.616,18.992,21.91,33.445,41.898,36.374v67.089C433.102,293.96,416.864,308.297,411.178,327.163z M460.5,378.5
				c-20.126,0-36.5-16.374-36.5-36.5c0-20.126,16.374-36.5,36.5-36.5c20.126,0,36.5,16.374,36.5,36.5
				C497,362.126,480.626,378.5,460.5,378.5z"/>
		</g>
	</g>
</g>
<g>
</g>
<g>
</g>
<g>
</g>
<g>
</g>
<g>
</g>
<g>
</g>
<g>
</g>
<g>
</g>
<g>
</g>
<g>
</g>
<g>
</g>
<g>
</g>
<g>
</g>
<g>
</g>
<g>
</g>
</svg>
