<?xml version="1.0" encoding="iso-8859-1"?>
<!-- Generator: Adobe Illustrator 19.0.0, SVG Export Plug-In . SVG Version: 6.00 Build 0)  -->
<svg version="1.1" id="Capa_1" xmlns="http://www.w3.org/2000/svg" xmlns:xlink="http://www.w3.org/1999/xlink" x="0px" y="0px"
	 viewBox="0 0 512.001 512.001" style="enable-background:new 0 0 512.001 512.001;" xml:space="preserve">
<g>
	<g>
		<g>
			<path d="M355.59,300.799c0.026-0.047,0.052-0.094,0.077-0.142c7.577-13.974,12.009-29.214,13.294-44.67
				c0.527-6.299,0.529-12.617,0.005-18.916c-0.004-0.047-0.008-0.094-0.012-0.142c-0.008-0.101-0.017-0.201-0.026-0.302
				c-1.311-15.141-5.642-30.068-12.995-43.79c-0.004-0.008-0.009-0.016-0.013-0.024c-0.089-0.165-0.177-0.33-0.267-0.495
				c-0.068-0.126-0.137-0.252-0.206-0.377c-0.025-0.045-0.05-0.091-0.075-0.136c-4.996-9.11-11.23-17.473-18.629-24.977
				c-0.192-0.195-0.386-0.39-0.58-0.584c-44.254-44.254-116.259-44.254-160.513,0c-44.254,44.253-44.254,116.26,0,160.513
				c22.127,22.127,51.192,33.19,80.256,33.19c29.065,0,58.13-11.063,80.257-33.19c0.216-0.216,0.43-0.433,0.644-0.65
				c7.37-7.486,13.581-15.824,18.563-24.905C355.444,301.069,355.517,300.934,355.59,300.799z M325.615,176.909
				c0.029,0.029,0.057,0.058,0.086,0.087c0.153,0.153,0.304,0.307,0.456,0.461c0.061,0.062,0.122,0.124,0.183,0.187
				c0.159,0.162,0.317,0.325,0.475,0.489c0.046,0.047,0.091,0.095,0.137,0.142c0.154,0.161,0.308,0.322,0.461,0.483
				c0.08,0.084,0.16,0.169,0.239,0.253c0.092,0.098,0.184,0.196,0.276,0.294c0.367,0.393,0.73,0.787,1.089,1.185
				c0.018,0.02,0.036,0.04,0.054,0.06c5.27,5.839,9.716,12.163,13.339,18.819c0.077,0.142,0.154,0.284,0.231,0.427
				c0.021,0.038,0.041,0.077,0.062,0.115H257v-23h68.615V176.909z M342.419,293.618c-0.03,0.055-0.06,0.11-0.091,0.166
				c-0.081,0.149-0.163,0.297-0.245,0.446c-3.66,6.615-8.139,12.895-13.436,18.689c-0.02,0.022-0.04,0.044-0.061,0.066
				c-0.355,0.388-0.715,0.774-1.078,1.158c-0.106,0.112-0.213,0.225-0.32,0.337c-0.069,0.073-0.139,0.145-0.208,0.218
				c-0.177,0.184-0.354,0.368-0.532,0.55c-0.023,0.023-0.046,0.047-0.069,0.07c-0.173,0.177-0.346,0.353-0.52,0.528
				c-0.021,0.021-0.041,0.041-0.062,0.062H257v-23h85.801C342.675,293.146,342.547,293.383,342.419,293.618z M349.256,277.91h-93.2
				c-7.751,0-14.057,6.306-14.057,14.057v24.887c0,7.751,6.306,14.057,14.057,14.057H306.7
				c-37.851,22.772-87.83,17.853-120.443-14.76c-3.251-3.251-6.227-6.675-8.928-10.243h24.758c9.877,0,17.912-8.035,17.912-17.912
				v-23.588c0-4.142-3.358-7.5-7.5-7.5c-4.142,0-7.5,3.358-7.5,7.5v23.588c0,1.606-1.306,2.912-2.912,2.912H167.98
				c-14.018-27.834-13.981-61.194,0.096-89h34.012c1.606,0,2.912,1.306,2.912,2.912v29.588c0,4.142,3.358,7.5,7.5,7.5
				c4.142,0,7.5-3.358,7.5-7.5v-29.587c0-9.877-8.035-17.912-17.912-17.912H177.47c2.663-3.501,5.592-6.863,8.787-10.058
				c19.203-19.203,44.426-28.804,69.65-28.804c17.498,0,34.995,4.621,50.483,13.861h-50.334c-7.751,0-14.057,6.306-14.057,14.057
				v24.887c0,7.751,6.306,14.057,14.057,14.057h93.138c0.558,1.655,1.07,3.323,1.537,5h-94.675c-7.751,0-14.057,6.306-14.057,14.057
				v24.887c0,7.751,6.306,14.057,14.057,14.057h94.727C350.319,274.587,349.81,276.255,349.256,277.91z M353.696,257.908H257v-23
				h96.674C354.577,242.559,354.584,250.256,353.696,257.908z"/>
			<path d="M465.5,358.908c-22.989,0-42.134,16.769-45.848,38.717H365.89l-34.793-34.793c7.492-4.845,14.616-10.486,21.248-16.924
				h109.576c6.108,0,11.078-4.97,11.078-11.078v-16.844c0-6.108-4.97-11.078-11.078-11.078H380.55c2.213-4.577,4.16-9.251,5.841-14
				h75.531c6.108,0,11.078-4.97,11.078-11.078v-16.844c0-6.108-4.97-11.078-11.078-11.078h-67.776c0.248-4.663,0.261-9.336,0.041-14
				h67.735c6.108,0,11.078-4.97,11.078-11.078v-16.844c0-6.108-4.97-11.078-11.078-11.078h-75.245
				c-1.647-4.747-3.558-9.421-5.735-14h80.981c6.108,0,11.078-4.97,11.078-11.078v-16.844c0-6.108-4.97-11.078-11.078-11.078
				H353.179c-38.71-38.2-94.506-48.93-142.815-32.193l-54.585-54.585c-1.377-1.377-3.236-2.165-5.184-2.196
				c-0.155-0.002-15.706-0.249-31.177-0.371c-14.038-0.112-22.353-0.169-27.468-0.008C87.417,37.631,68.76,21.909,46.5,21.909
				c-25.64,0-46.5,20.86-46.5,46.5c0,25.64,20.86,46.5,46.5,46.5c23.893,0,43.634-18.114,46.214-41.331
				c9.289-0.204,32.765-0.024,54.607,0.307l48.041,48.04c-13.517,6.555-26.182,15.435-37.388,26.641
				c-16.839,16.839-28.427,36.971-34.764,58.342H95.754c-8.687,0-15.754,7.067-15.754,15.754v49.491
				c0,8.687,7.067,15.754,15.754,15.754h28.007c4.41,14.156,11.139,27.739,20.188,40.146l-17.721,17.72
				c-5.995-1.606-12.666-0.061-17.361,4.634L19.483,439.79c-3.71,3.71-5.754,8.644-5.754,13.892s2.043,10.181,5.754,13.892
				l16.764,16.764c3.71,3.71,8.644,5.754,13.892,5.754c5.248,0,10.181-2.043,13.892-5.754l89.384-89.383
				c4.695-4.695,6.24-11.367,4.634-17.362l17.952-17.952c23.85,16.863,51.878,25.295,79.907,25.295
				c21.156,0,42.311-4.804,61.67-14.411l39.903,39.903c1.406,1.407,3.314,2.197,5.303,2.197h56.777
				c3.478,22.225,22.754,39.283,45.94,39.283c25.64,0,46.5-20.86,46.5-46.5S491.14,358.908,465.5,358.908z M458,215.909v9h-65.287
				c-0.474-3.019-1.048-6.022-1.719-9H458z M392.584,268.908H458v9h-67.193C391.498,274.929,392.091,271.926,392.584,268.908z
				 M46.5,99.909c-17.369,0-31.5-14.131-31.5-31.5c0-17.369,14.131-31.5,31.5-31.5S78,51.04,78,68.409
				C78,85.777,63.869,99.909,46.5,99.909z M95.754,272.91v-0.001c-0.416,0-0.754-0.338-0.754-0.754v-49.491
				c0-0.416,0.338-0.754,0.754-0.754h23.851c-3.024,16.858-2.91,34.192,0.335,51H95.754z M458,321.908v9h-92.273
				c1.972-2.563,3.843-5.179,5.611-7.843c0.003-0.005,0.006-0.01,0.01-0.015c0.103-0.155,0.205-0.31,0.307-0.465
				c0.149-0.225,0.297-0.451,0.444-0.677H458z M458,162.909v9h-85.371c-0.802-1.251-1.624-2.49-2.467-3.716
				c-0.035-0.051-0.07-0.101-0.104-0.152c-0.068-0.098-0.135-0.196-0.203-0.294c-1.129-1.632-2.297-3.245-3.504-4.838H458z
				 M142.808,384.35l-89.384,89.383c-0.877,0.877-2.044,1.36-3.285,1.36c-1.241,0-2.408-0.483-3.285-1.36L30.09,456.968
				c-0.877-0.877-1.36-2.044-1.36-3.285c0-1.241,0.483-2.408,1.36-3.285l89.384-89.384c0.575-0.574,1.329-0.861,2.083-0.861
				c0.754,0,1.509,0.287,2.083,0.861l19.167,19.167C143.957,381.33,143.957,383.201,142.808,384.35z M149.134,365.296
				l-10.607-10.607l14.85-14.849l4.563,4.563c0.011,0.011,0.022,0.022,0.033,0.033s0.022,0.022,0.034,0.033l5.977,5.977
				L149.134,365.296z M168.616,333.865l-0.071-0.071c-48.117-48.156-48.106-126.479,0.035-174.62
				c24.077-24.076,55.702-36.114,87.328-36.114c31.625,0,63.251,12.038,87.328,36.114c0.389,0.389,0.775,0.781,1.158,1.174
				c0.083,0.095,0.168,0.188,0.256,0.279c4.523,4.671,8.667,9.679,12.381,14.958c0.092,0.131,0.184,0.261,0.275,0.392
				c0.002,0.002,0.003,0.005,0.005,0.007c28.98,41.631,29.38,97.263,1.2,139.28c-4.284,6.375-9.182,12.373-14.61,17.883
				c-0.081,0.082-0.16,0.166-0.236,0.252c-0.143,0.144-0.285,0.288-0.429,0.432C295.094,381.97,216.771,381.98,168.616,333.865z
				 M465.5,436.908c-17.369,0-31.5-14.131-31.5-31.5c0-17.369,14.131-31.5,31.5-31.5c17.369,0,31.5,14.131,31.5,31.5
				C497,422.777,482.869,436.908,465.5,436.908z"/>
		</g>
	</g>
</g>
<g>
</g>
<g>
</g>
<g>
</g>
<g>
</g>
<g>
</g>
<g>
</g>
<g>
</g>
<g>
</g>
<g>
</g>
<g>
</g>
<g>
</g>
<g>
</g>
<g>
</g>
<g>
</g>
<g>
</g>
</svg>
