<?xml version="1.0" encoding="iso-8859-1"?>
<!-- Generator: Adobe Illustrator 19.0.0, SVG Export Plug-In . SVG Version: 6.00 Build 0)  -->
<svg version="1.1" id="Capa_1" xmlns="http://www.w3.org/2000/svg" xmlns:xlink="http://www.w3.org/1999/xlink" x="0px" y="0px"
	 viewBox="0 0 512 512" style="enable-background:new 0 0 512 512;" xml:space="preserve">
<g>
	<g>
		<g>
			<path d="M369.57,86.184H143.43c-10.162,0-18.43,8.268-18.43,18.43v326.141c0,10.162,8.268,18.43,18.43,18.43h226.14
				c10.162,0,18.43-8.268,18.43-18.43V104.614C388,94.452,379.732,86.184,369.57,86.184z M373,430.754c0,1.892-1.539,3.43-3.43,3.43
				H143.43c-1.891,0-3.43-1.538-3.43-3.43v-326.14c0-1.892,1.539-3.43,3.43-3.43h226.14c1.891,0,3.43,1.538,3.43,3.43V430.754z"/>
			<path d="M78.524,145.184H7.5c-4.142,0-7.5,3.357-7.5,7.5v230c0,4.143,3.358,7.5,7.5,7.5h71.024c10.162,0,18.43-8.268,18.43-18.43
				v-208.14C96.954,153.452,88.687,145.184,78.524,145.184z M15,185.184h41v77H15V185.184z M15,323.184h41v26H15V323.184z
				 M81.954,371.754c0,1.892-1.539,3.43-3.43,3.43H15v-11h48.5c4.142,0,7.5-3.357,7.5-7.5v-41c0-4.143-3.358-7.5-7.5-7.5H15v-31
				h48.5c4.142,0,7.5-3.357,7.5-7.5v-92c0-4.143-3.358-7.5-7.5-7.5H15v-10h63.524c1.891,0,3.43,1.538,3.43,3.43V371.754z"/>
			<path d="M504.5,145.184h-71.024c-10.162,0-18.43,8.268-18.43,18.43v208.141c0,10.162,8.268,18.43,18.43,18.43H504.5
				c4.142,0,7.5-3.357,7.5-7.5v-230C512,148.541,508.642,145.184,504.5,145.184z M497,349.184h-41v-26h41V349.184z M497,262.184h-41
				v-77h41V262.184z M497,170.184h-48.5c-4.142,0-7.5,3.357-7.5,7.5v92c0,4.143,3.358,7.5,7.5,7.5H497v31h-48.5
				c-4.142,0-7.5,3.357-7.5,7.5v41c0,4.143,3.358,7.5,7.5,7.5H497v11h-63.524c-1.891,0-3.43-1.538-3.43-3.43v-208.14
				c0-1.892,1.539-3.43,3.43-3.43H497V170.184z"/>
			<path d="M165.675,260.183h181.649c6.438,0,11.675-5.237,11.675-11.675v-124.65c0.001-6.437-5.236-11.674-11.674-11.674H284.25
				c-4.142,0-7.5,3.357-7.5,7.5s3.358,7.5,7.5,7.5H344v118h-1.477l-45.242-95.705c-1.264-2.673-3.972-4.362-6.934-4.293
				c-2.955,0.06-5.599,1.85-6.752,4.571l-28.575,67.424l-26.018-45.237c-1.338-2.327-3.818-3.761-6.501-3.761h-0.023
				c-2.692,0.009-5.174,1.459-6.501,3.802l-41.492,73.198H169v-118h85.25c4.142,0,7.5-3.357,7.5-7.5s-3.358-7.5-7.5-7.5h-88.575
				c-6.438,0-11.675,5.237-11.675,11.675v124.65C154,254.947,159.237,260.183,165.675,260.183z M261.476,240.387l29.397-69.363
				l35.058,74.161h-66.488L261.476,240.387z M222.547,190.809l25.131,43.694l-1.626,3.839l-2.9,6.842h-51.426L222.547,190.809z"/>
			<path d="M178,153.684c0,11.304,9.196,20.5,20.5,20.5s20.5-9.196,20.5-20.5s-9.196-20.5-20.5-20.5S178,142.38,178,153.684z
				 M204,153.684c0,3.033-2.467,5.5-5.5,5.5s-5.5-2.467-5.5-5.5s2.467-5.5,5.5-5.5S204,150.651,204,153.684z"/>
			<path d="M351.5,357.184h-190c-4.142,0-7.5,3.357-7.5,7.5v47c0,4.143,3.358,7.5,7.5,7.5h190c4.142,0,7.5-3.357,7.5-7.5v-47
				C359,360.541,355.642,357.184,351.5,357.184z M344,404.184H169v-32h175V404.184z"/>
			<path d="M161.5,300.184h144c4.142,0,7.5-3.357,7.5-7.5s-3.358-7.5-7.5-7.5h-144c-4.142,0-7.5,3.357-7.5,7.5
				S157.358,300.184,161.5,300.184z"/>
			<path d="M351.5,285.184h-20c-4.142,0-7.5,3.357-7.5,7.5s3.358,7.5,7.5,7.5h20c4.142,0,7.5-3.357,7.5-7.5
				S355.642,285.184,351.5,285.184z"/>
			<path d="M159.5,331.184h57c4.142,0,7.5-3.357,7.5-7.5s-3.358-7.5-7.5-7.5h-57c-4.142,0-7.5,3.357-7.5,7.5
				S155.358,331.184,159.5,331.184z"/>
			<path d="M351.5,316.184h-103c-4.142,0-7.5,3.357-7.5,7.5s3.358,7.5,7.5,7.5h103c4.142,0,7.5-3.357,7.5-7.5
				S355.642,316.184,351.5,316.184z"/>
			<circle cx="256.5" cy="481.681" r="13"/>
			<circle cx="323" cy="482.181" r="13"/>
			<circle cx="190" cy="482.181" r="13"/>
			<path d="M229.091,44.609H290c4.142,0,7.5-3.357,7.5-7.5c0-4.143-3.358-7.5-7.5-7.5h-42.803c2.917-2.93,2.913-7.67-0.012-10.595
				c-2.929-2.928-7.678-2.928-10.606,0l-12.791,12.791c-2.145,2.146-2.787,5.371-1.626,8.174
				C223.323,42.783,226.057,44.609,229.091,44.609z"/>
			<path d="M223,68.759h42.803c-2.917,2.93-2.913,7.67,0.012,10.595c1.464,1.464,3.384,2.196,5.303,2.196s3.839-0.732,5.303-2.196
				l12.791-12.791c2.145-2.146,2.787-5.371,1.626-8.174c-1.161-2.803-3.896-4.63-6.929-4.63H223c-4.142,0-7.5,3.357-7.5,7.5
				S218.858,68.759,223,68.759z"/>
		</g>
	</g>
</g>
<g>
</g>
<g>
</g>
<g>
</g>
<g>
</g>
<g>
</g>
<g>
</g>
<g>
</g>
<g>
</g>
<g>
</g>
<g>
</g>
<g>
</g>
<g>
</g>
<g>
</g>
<g>
</g>
<g>
</g>
</svg>
