<?xml version="1.0" encoding="iso-8859-1"?>
<!-- Generator: Adobe Illustrator 19.0.0, SVG Export Plug-In . SVG Version: 6.00 Build 0)  -->
<svg version="1.1" id="Capa_1" xmlns="http://www.w3.org/2000/svg" xmlns:xlink="http://www.w3.org/1999/xlink" x="0px" y="0px"
	 viewBox="0 0 512.001 512.001" style="enable-background:new 0 0 512.001 512.001;" xml:space="preserve">
<g>
	<g>
		<g>
			<circle cx="223.938" cy="30.059" r="6.012"/>
			<path d="M243.977,37.573h42.082c4.151,0,7.515-3.364,7.515-7.515s-3.364-7.515-7.515-7.515h-42.082
				c-4.151,0-7.515,3.364-7.515,7.515S239.826,37.573,243.977,37.573z"/>
			<path d="M405.988,151.796h-23.741V22.241C382.247,9.977,372.27,0,360.006,0H150.993c-12.264,0-22.241,9.977-22.241,22.241
				v129.555h-22.739c-10.389,0-18.842,8.453-18.842,18.842v169.723c0,10.389,8.453,18.842,18.842,18.842h22.739V489.76
				c0,12.264,9.977,22.241,22.241,22.241h209.012c12.264,0,22.241-9.977,22.241-22.241V359.202h23.741
				c10.389,0,18.842-8.453,18.842-18.842V170.638C424.83,160.249,416.378,151.796,405.988,151.796z M143.781,22.241
				c0-3.977,3.235-7.212,7.212-7.212h209.012c3.977,0,7.212,3.235,7.212,7.212v129.555h-10.02V36.01
				c0-6.044-4.918-10.961-10.961-10.961h-37.24c-3.69,0-6.833,2.679-7.419,6.322l-2.045,12.715h-88.067l-2.044-12.715
				c-0.586-3.643-3.73-6.322-7.419-6.322h-37.24c-6.044,0-10.961,4.918-10.961,10.961v115.786h-10.02V22.241z M367.218,489.759
				c0,3.977-3.235,7.212-7.212,7.212H150.993c-3.977,0-7.212-3.235-7.212-7.212V359.202h10.02V475.99
				c0,6.044,4.918,10.961,10.961,10.961h181.474c6.044,0,10.961-4.918,10.961-10.961V359.202h10.02V489.759z M409.801,340.36
				c0,2.102-1.71,3.812-3.812,3.812h-81.604c-4.151,0-7.515,3.364-7.515,7.515s3.364,7.515,7.515,7.515h17.785v112.72H168.83
				v-112.72h125.495c4.151,0,7.515-3.364,7.515-7.515s-3.364-7.515-7.515-7.515H106.013c-2.102,0-3.812-1.71-3.812-3.812v-95.882
				h307.601V340.36z M409.801,229.448H102.2v-24.047h307.601V229.448z M409.801,190.372H102.2v-19.734
				c0-2.102,1.71-3.812,3.812-3.812h82.105c4.151,0,7.515-3.364,7.515-7.515s-3.364-7.515-7.515-7.515H168.83V40.078h26.769
				l1.101,6.846c1.137,7.064,7.154,12.191,14.308,12.191h88.983c7.155,0,13.172-5.127,14.308-12.192l1.1-6.845h26.769v111.718
				H218.177c-4.151,0-7.515,3.364-7.515,7.515s3.364,7.515,7.515,7.515h187.812c2.102,0,3.812,1.71,3.812,3.812V190.372z"/>
			<path d="M123.241,330.646h77.151c4.151,0,7.515-3.364,7.515-7.515v-51.1c0-4.151-3.364-7.515-7.515-7.515h-77.151
				c-4.151,0-7.515,3.364-7.515,7.515v51.1C115.727,327.282,119.09,330.646,123.241,330.646z M165.323,279.546h27.554v36.07h-20.039
				V297.08c0-4.151-3.364-7.515-7.515-7.515V279.546z M130.756,279.546h19.538v17.534c0,4.151,3.364,7.515,7.515,7.515v11.022
				h-27.053V279.546z"/>
			<path d="M234.458,288.564h99.194c4.151,0,7.515-3.364,7.515-7.515c0-4.151-3.364-7.515-7.515-7.515h-99.194
				c-4.151,0-7.515,3.364-7.515,7.515C226.944,285.2,230.307,288.564,234.458,288.564z"/>
			<path d="M357.699,288.564h21.041c4.151,0,7.515-3.364,7.515-7.515c0-4.151-3.364-7.515-7.515-7.515h-21.041
				c-4.151,0-7.515,3.364-7.515,7.515C350.184,285.2,353.548,288.564,357.699,288.564z"/>
			<path d="M378.74,304.595h-99.194c-4.151,0-7.515,3.364-7.515,7.515c0,4.151,3.364,7.515,7.515,7.515h99.194
				c4.151,0,7.515-3.364,7.515-7.515C386.255,307.958,382.891,304.595,378.74,304.595z"/>
			<path d="M234.458,319.624H255.5c4.151,0,7.515-3.364,7.515-7.515c0-4.151-3.364-7.515-7.515-7.515h-21.041
				c-4.151,0-7.515,3.364-7.515,7.515C226.944,316.261,230.307,319.624,234.458,319.624z"/>
		</g>
	</g>
</g>
<g>
</g>
<g>
</g>
<g>
</g>
<g>
</g>
<g>
</g>
<g>
</g>
<g>
</g>
<g>
</g>
<g>
</g>
<g>
</g>
<g>
</g>
<g>
</g>
<g>
</g>
<g>
</g>
<g>
</g>
</svg>
