<?xml version="1.0" encoding="iso-8859-1"?>
<!-- Generator: Adobe Illustrator 19.0.0, SVG Export Plug-In . SVG Version: 6.00 Build 0)  -->
<svg version="1.1" id="Capa_1" xmlns="http://www.w3.org/2000/svg" xmlns:xlink="http://www.w3.org/1999/xlink" x="0px" y="0px"
	 viewBox="0 0 512.001 512.001" style="enable-background:new 0 0 512.001 512.001;" xml:space="preserve">
<g>
	<g>
		<g>
			<path d="M115.19,480.642c0.005,0.028,0.01,0.056,0.016,0.084c0.009,0.046,0.019,0.093,0.028,0.139
				c0.001,0.004,0.002,0.008,0.003,0.012c0.144,0.662,0.374,1.29,0.68,1.874c0.004,0.007,0.007,0.014,0.011,0.021
				c0.019,0.036,0.037,0.071,0.057,0.106c0.553,1.015,1.32,1.861,2.223,2.505c0.013,0.009,0.026,0.019,0.04,0.028
				c0.026,0.018,0.052,0.036,0.078,0.054c0.025,0.018,0.051,0.035,0.076,0.052c0.002,0.001,0.003,0.002,0.005,0.003
				c0.806,0.538,1.722,0.924,2.708,1.117c0.023,0.005,0.047,0.009,0.07,0.013c0.024,0.004,0.048,0.009,0.072,0.014
				c0.429,0.076,0.867,0.116,1.307,0.116c0.055,0,0.111-0.001,0.166-0.002h165.59c0.055,0.001,0.111,0.002,0.166,0.002
				c0.44,0,0.877-0.039,1.304-0.115c0.03-0.005,0.06-0.011,0.091-0.017c0.015-0.003,0.03-0.006,0.045-0.009
				c1.084-0.211,2.083-0.655,2.945-1.277c0.012-0.009,0.025-0.018,0.038-0.027c0.026-0.019,0.052-0.038,0.078-0.058
				c0.8-0.599,1.485-1.361,2.001-2.261c0.015-0.026,0.03-0.053,0.045-0.08c0.01-0.017,0.019-0.034,0.029-0.052
				c0.341-0.621,0.597-1.295,0.751-2.007c0.001-0.004,0.002-0.008,0.003-0.012c0.01-0.046,0.019-0.092,0.028-0.139
				c0.006-0.028,0.011-0.056,0.016-0.084c0.004-0.022,0.008-0.044,0.012-0.066c0.086-0.487,0.122-0.975,0.112-1.457v-58.651
				c0.01-0.484-0.027-0.972-0.113-1.458c-0.004-0.022-0.008-0.044-0.012-0.066c-0.005-0.028-0.01-0.056-0.016-0.084
				c-0.009-0.046-0.019-0.093-0.028-0.139c-0.001-0.004-0.002-0.008-0.003-0.012c-0.162-0.744-0.433-1.447-0.798-2.09
				c-0.008-0.014-0.015-0.028-0.023-0.042c-0.004-0.007-0.009-0.015-0.013-0.022c-0.513-0.89-1.192-1.645-1.984-2.239
				c-0.011-0.008-0.021-0.016-0.032-0.024c-0.027-0.02-0.053-0.039-0.08-0.058c-0.026-0.02-0.053-0.039-0.079-0.057
				c-0.012-0.008-0.023-0.016-0.035-0.024c-0.839-0.585-1.803-1.003-2.845-1.205c-0.525-0.103-1.065-0.151-1.608-0.138H122.717
				c-0.43-0.009-0.857,0.02-1.275,0.083c-0.008,0.001-0.017,0.002-0.025,0.004c-0.022,0.003-0.044,0.007-0.066,0.011
				c-1.19,0.193-2.287,0.667-3.22,1.352c-0.01,0.007-0.021,0.015-0.031,0.022c-0.026,0.019-0.052,0.039-0.078,0.059
				c-0.027,0.02-0.053,0.041-0.08,0.061c-0.01,0.008-0.02,0.016-0.03,0.024c-0.736,0.581-1.369,1.303-1.852,2.146
				c0,0.001-0.001,0.002-0.001,0.003c-0.011,0.02-0.022,0.04-0.033,0.06c-0.36,0.64-0.629,1.337-0.789,2.075
				c-0.001,0.004-0.002,0.008-0.003,0.012c-0.01,0.046-0.019,0.092-0.028,0.139c-0.006,0.028-0.011,0.056-0.016,0.084
				c-0.004,0.022-0.008,0.044-0.012,0.066c-0.086,0.487-0.122,0.975-0.112,1.457v58.651c-0.01,0.482,0.026,0.97,0.112,1.457
				C115.182,480.598,115.186,480.62,115.19,480.642z M166.041,471.781l39.484-14.033l39.484,14.033H166.041z M280.989,468.656
				l-53.079-18.865l53.079-18.865V468.656z M245.008,427.801l-39.484,14.034l-39.484-14.034H245.008z M130.059,430.926
				l53.079,18.865l-53.079,18.865V430.926z"/>
			<path d="M122.563,399.814h90.958c4.141,0,7.497-3.355,7.497-7.496c0-4.141-3.355-7.497-7.497-7.497h-90.958
				c-4.141,0-7.496,3.355-7.496,7.497C115.066,396.459,118.423,399.814,122.563,399.814z"/>
			<path d="M288.486,384.821h-49.977c-4.141,0-7.497,3.355-7.497,7.497c0,4.141,3.355,7.496,7.497,7.496h49.977
				c4.141,0,7.497-3.355,7.497-7.496C295.982,388.177,292.627,384.821,288.486,384.821z"/>
			<path d="M197.528,374.826h90.958c4.141,0,7.497-3.355,7.497-7.497c0-4.141-3.355-7.497-7.497-7.497h-90.958
				c-4.141,0-7.497,3.355-7.497,7.497C190.032,371.47,193.388,374.826,197.528,374.826z"/>
			<path d="M122.563,374.826h46.978c4.141,0,7.497-3.355,7.497-7.497c0-4.141-3.355-7.497-7.497-7.497h-46.978
				c-4.141,0-7.496,3.355-7.496,7.497C115.066,371.47,118.423,374.826,122.563,374.826z"/>
			<path d="M447.134,266.949c-1.393-2.069-3.724-3.31-6.219-3.31H340.422c-0.139,0-0.278,0.004-0.415,0.011l-13.942-13.941
				c-2.913-2.912-6.784-4.516-10.901-4.516c-4.118,0-7.99,1.603-10.9,4.516l-5.295,5.294c-0.128,0.129-0.335,0.148-0.531,0.049
				c-4.513-2.328-9.264-4.293-14.118-5.837c-0.201-0.064-0.332-0.225-0.332-0.409v-7.493c0-8.501-6.916-15.417-15.417-15.417
				h-24.141c-8.501,0-15.417,6.916-15.417,15.417v7.493c0,0.185-0.131,0.345-0.33,0.408c-4.857,1.545-9.608,3.51-14.121,5.838
				c-0.193,0.101-0.401,0.08-0.532-0.051l-5.292-5.291c-2.911-2.913-6.783-4.517-10.901-4.517c-4.117,0-7.988,1.603-10.901,4.516
				l-14.045,14.045c-0.428-0.076-0.866-0.115-1.31-0.115H71.087c-2.495,0-4.826,1.24-6.219,3.31
				c-1.393,2.07-1.665,4.697-0.727,7.008l25.25,62.162c-0.002,0.075-0.004,0.149-0.004,0.225v159.482
				c0,8.919,7.257,16.175,16.176,16.175h300.872c8.92,0,16.176-7.257,16.176-16.175V336.344c0-0.075-0.001-0.15-0.004-0.225
				l25.25-62.162C448.799,271.646,448.526,269.019,447.134,266.949z M82.226,278.633h83.148c0.12,2.015,0.638,3.984,1.524,5.8
				c0.002,0.004,0.004,0.009,0.006,0.013c0.046,0.094,0.094,0.189,0.142,0.282c0.013,0.026,0.026,0.051,0.04,0.077
				c0.037,0.071,0.075,0.142,0.113,0.212c0.021,0.04,0.043,0.079,0.065,0.118c0.024,0.043,0.048,0.086,0.072,0.129
				c0.037,0.066,0.075,0.132,0.114,0.197c0.02,0.034,0.04,0.068,0.061,0.102c0.042,0.07,0.084,0.14,0.127,0.209
				c0.02,0.031,0.039,0.063,0.059,0.094c0.044,0.07,0.089,0.14,0.134,0.21c0.02,0.03,0.04,0.06,0.06,0.09
				c0.042,0.064,0.085,0.128,0.128,0.191c0.021,0.031,0.043,0.063,0.065,0.094c0.042,0.061,0.085,0.122,0.128,0.182
				c0.024,0.034,0.049,0.068,0.074,0.102c0.044,0.06,0.088,0.12,0.133,0.179c0.022,0.03,0.044,0.059,0.067,0.089
				c0.049,0.064,0.099,0.128,0.148,0.191c0.025,0.032,0.051,0.064,0.076,0.096c0.049,0.061,0.098,0.121,0.147,0.181
				c0.029,0.036,0.059,0.071,0.088,0.106c0.047,0.056,0.094,0.111,0.142,0.166c0.035,0.04,0.069,0.08,0.104,0.119
				c0.038,0.042,0.076,0.085,0.114,0.127c0.044,0.049,0.088,0.097,0.133,0.146c0.03,0.033,0.061,0.065,0.092,0.098
				c0.054,0.058,0.11,0.116,0.166,0.173c0.028,0.029,0.056,0.057,0.084,0.086c0.03,0.03,0.059,0.061,0.088,0.09l1.099,1.097
				l0.288,0.288l2.797,6.768c-0.024,0.051-0.048,0.101-0.072,0.152c-0.063,0.132-0.125,0.264-0.188,0.396
				c-0.055,0.117-0.11,0.235-0.165,0.352c-0.059,0.126-0.117,0.252-0.175,0.378c-0.035,0.077-0.071,0.154-0.106,0.232
				c-0.082,0.178-0.163,0.357-0.243,0.537c-0.036,0.079-0.072,0.159-0.107,0.239c-0.079,0.177-0.157,0.353-0.235,0.53
				c-0.03,0.068-0.059,0.135-0.088,0.203c-0.066,0.152-0.132,0.304-0.197,0.456c-0.03,0.071-0.061,0.141-0.091,0.212
				c-0.08,0.188-0.16,0.377-0.239,0.565c-0.029,0.069-0.058,0.138-0.086,0.207c-0.082,0.196-0.163,0.393-0.243,0.589
				c-0.018,0.044-0.036,0.089-0.054,0.133c-0.069,0.17-0.137,0.339-0.205,0.509c-0.026,0.065-0.052,0.13-0.077,0.195
				c-0.078,0.196-0.155,0.393-0.231,0.59c-0.024,0.063-0.049,0.125-0.073,0.188c-0.072,0.187-0.144,0.374-0.214,0.561
				c-0.022,0.06-0.045,0.119-0.067,0.179c-0.066,0.177-0.132,0.353-0.197,0.53c-0.021,0.059-0.043,0.117-0.064,0.175
				c-0.073,0.2-0.146,0.399-0.217,0.6c-0.023,0.064-0.046,0.129-0.069,0.193c-0.069,0.195-0.138,0.391-0.207,0.587
				c-0.014,0.04-0.027,0.079-0.041,0.119c-0.068,0.196-0.135,0.393-0.202,0.59c-0.017,0.05-0.034,0.1-0.051,0.15
				c-0.071,0.211-0.142,0.423-0.211,0.635c-0.016,0.048-0.031,0.096-0.047,0.144c-0.073,0.224-0.145,0.447-0.217,0.671
				c-0.064,0.201-0.225,0.332-0.409,0.332h-7.494c-8.501,0-15.417,6.916-15.417,15.417v4.574h-43.431L82.226,278.633z
				 M307.126,497.007H105.565c-0.652,0-1.182-0.53-1.182-1.181V343.84h202.744V497.007z M214.683,328.847
				c3.551-19.861,20.951-34.984,41.818-34.984c20.866,0,38.266,15.123,41.818,34.984H214.683z M256.501,278.87
				c-29.151,0-53.302,21.815-56.987,49.977h-38.469v-4.574c0-0.233,0.19-0.424,0.424-0.424h7.493
				c6.737,0,12.642-4.331,14.696-10.778c0.161-0.507,0.328-1.013,0.5-1.517c0.154-0.45,0.312-0.898,0.474-1.344
				c0.04-0.109,0.079-0.218,0.119-0.327c1.083-2.947,2.349-5.828,3.78-8.602c0.01-0.019,0.019-0.037,0.028-0.056
				c0.019-0.037,0.038-0.074,0.056-0.111c2.997-5.979,1.86-13.128-2.856-17.842l-2.795-2.796c-0.018-0.019-0.036-0.037-0.054-0.056
				l-2.443-2.442l-0.002-0.002c-0.164-0.164-0.112-0.374-0.092-0.434c0.008-0.023,0.015-0.046,0.022-0.069
				c0.026-0.046,0.056-0.076,0.073-0.092l17.07-17.07c0.033-0.034,0.124-0.125,0.299-0.125s0.265,0.09,0.3,0.125l5.291,5.29
				c4.761,4.762,11.998,5.877,18.01,2.774c3.768-1.943,7.734-3.583,11.794-4.875c6.445-2.053,10.776-7.958,10.776-14.695v-7.494
				c0-0.233,0.19-0.424,0.424-0.424h24.141c0.233,0,0.424,0.19,0.424,0.424v7.494c0,6.737,4.331,12.642,10.778,14.696
				c4.057,1.29,8.023,2.931,11.79,4.874c6.012,3.103,13.25,1.988,18.009-2.772l5.294-5.293c0.034-0.034,0.124-0.124,0.299-0.124
				c0.175,0,0.266,0.091,0.299,0.125l15.086,15.086l-18.731,45.327C304.996,296.599,282.78,278.87,256.501,278.87z M407.62,495.826
				c0,0.652-0.531,1.182-1.183,1.182h-84.318V343.84h85.501V495.826z M409.381,328.847h-84.697l20.751-50.215h84.344
				L409.381,328.847z"/>
			<path d="M77.584,66.969c-4.141,0-7.497,3.355-7.497,7.497c0,23.424,19.056,42.48,42.48,42.48h7.996
				c21.259,0,40.796-11.621,51.058-29.986h33.652c4.141,0,7.497-3.355,7.497-7.497s-3.355-7.497-7.497-7.497h-38.259
				c-2.944,0-5.615,1.724-6.83,4.405c-7.033,15.54-22.586,25.581-39.622,25.581h-7.996c-12.558,0-23.177-8.466-26.449-19.991h30.447
				c2.258,0,4.394-1.018,5.818-2.77L135.378,63.2c2.237-2.755,2.237-6.7,0-9.455l-12.994-15.993c-1.424-1.752-3.561-2.77-5.818-2.77
				H86.119c3.27-11.525,13.89-19.991,26.449-19.991h7.996c18.391,0,34.867,11.649,40.996,28.987c1.06,2.995,3.891,4.998,7.068,4.998
				h173.747c3.177,0,6.009-2.003,7.068-4.998c6.129-17.338,22.603-28.987,40.996-28.987h7.996c12.558,0,23.177,8.466,26.449,19.991
				h-30.447c-2.258,0-4.394,1.018-5.818,2.77l-12.994,15.993c-2.237,2.755-2.237,6.7,0,9.455l12.994,15.993
				c1.424,1.752,3.561,2.77,5.818,2.77h30.447c-3.271,11.525-13.89,19.991-26.449,19.991h-7.996
				c-17.036,0-32.589-10.041-39.622-25.581c-1.214-2.682-3.886-4.405-6.83-4.405H235.261c-4.141,0-7.497,3.355-7.497,7.497
				s3.355,7.497,7.497,7.497h104.12c10.262,18.365,29.799,29.986,51.058,29.986h7.996c23.424,0,42.48-19.056,42.48-42.48
				c0-4.141-3.355-7.497-7.497-7.497h-35.415l-6.903-8.496l6.903-8.496h35.415c4.141,0,7.497-3.355,7.497-7.496
				c0-23.424-19.056-42.48-42.48-42.48h-7.996c-22.921,0-43.629,13.454-53.1,33.984H173.664C164.193,13.454,143.485,0,120.564,0
				h-7.996c-23.424,0-42.48,19.056-42.48,42.48c0,4.141,3.355,7.496,7.497,7.496h35.415l6.903,8.496l-6.903,8.496H77.584z"/>
			<path d="M263.997,112.448c0-4.141-3.355-7.497-7.497-7.497c-4.141,0-7.497,3.355-7.497,7.497v22.989
				c0,4.141,3.355,7.497,7.497,7.497c4.141,0,7.497-3.355,7.497-7.497V112.448z"/>
			<path d="M256.501,163.924c-4.141,0-7.497,3.355-7.497,7.497v22.989c0,4.141,3.355,7.497,7.497,7.497
				c4.141,0,7.497-3.355,7.497-7.497V171.42C263.997,167.279,260.642,163.924,256.501,163.924z"/>
		</g>
	</g>
</g>
<g>
</g>
<g>
</g>
<g>
</g>
<g>
</g>
<g>
</g>
<g>
</g>
<g>
</g>
<g>
</g>
<g>
</g>
<g>
</g>
<g>
</g>
<g>
</g>
<g>
</g>
<g>
</g>
<g>
</g>
</svg>
