<?xml version="1.0" encoding="iso-8859-1"?>
<!-- Generator: Adobe Illustrator 19.0.0, SVG Export Plug-In . SVG Version: 6.00 Build 0)  -->
<svg version="1.1" id="Capa_1" xmlns="http://www.w3.org/2000/svg" xmlns:xlink="http://www.w3.org/1999/xlink" x="0px" y="0px"
	 viewBox="0 0 512.001 512.001" style="enable-background:new 0 0 512.001 512.001;" xml:space="preserve">
<g>
	<g>
		<g>
			<path d="M489.5,430c-9.778,0-18.119,6.27-21.215,15H333.362c25.308-10.279,48.532-25.614,68.079-45.255
				C433.653,367.38,454.12,325.084,459.529,280h6.022c7.415,0,13.448-6.033,13.448-13.448v-24.104
				c0-7.416-6.033-13.448-13.448-13.448h-6.265C449.689,154.773,400.49,93.194,333.54,66h134.746c3.095,8.73,11.437,15,21.215,15
				c12.406,0,22.5-10.093,22.5-22.5S501.906,36,489.5,36c-9.778,0-18.119,6.27-21.215,15H282v-4.552
				C282,39.034,275.967,33,268.552,33h-24.104C237.033,33,231,39.034,231,46.448V51H43.715c-3.096-8.73-11.437-15-21.215-15
				C10.093,36,0,46.094,0,58.5S10.093,81,22.5,81c9.778,0,18.119-6.27,21.215-15h135.909
				c-25.602,10.399-49.065,25.972-68.763,45.951C78.539,144.735,58.233,187.491,53.228,233h-5.78C40.033,233,34,239.034,34,246.448
				v24.104C34,277.967,40.033,284,47.448,284h6.532c10.222,73.241,59.324,134.031,125.606,161H43.715
				c-3.095-8.73-11.436-15-21.215-15C10.093,430,0,440.093,0,452.5C0,464.907,10.093,475,22.5,475c9.778,0,18.119-6.27,21.215-15
				H231v5.552c0,7.416,6.033,13.448,13.448,13.448h24.104c7.415,0,13.448-6.033,13.448-13.448V460h186.285
				c3.095,8.73,11.437,15,21.215,15c12.406,0,22.5-10.093,22.5-22.5C512,440.093,501.906,430,489.5,430z M482.501,55.805
				C483.586,52.997,486.314,51,489.5,51c4.136,0,7.5,3.364,7.5,7.5s-3.364,7.5-7.5,7.5c-3.186,0-5.914-1.997-6.999-4.805
				C482.823,60.358,483,59.451,483,58.5S482.823,56.642,482.501,55.805z M22.5,66c-4.136,0-7.5-3.364-7.5-7.5s3.364-7.5,7.5-7.5
				s7.5,3.364,7.5,7.5S26.636,66,22.5,66z M22.5,460c-4.136,0-7.5-3.364-7.5-7.5s3.364-7.5,7.5-7.5s7.5,3.364,7.5,7.5
				S26.636,460,22.5,460z M464,244v21h-21v-21H464z M246,48h21v21h-21V48z M49,269v-21h21v21H49z M267,464h-21v-21h21V464z
				 M268.552,428h-24.104c-7.416,0-13.448,6.033-13.448,13.448v1.835C147.924,432.099,81.641,366.865,69.138,284h2.414
				C78.967,284,85,277.967,85,270.552v-24.104C85,239.034,78.967,233,71.552,233H68.32C78.434,146.956,145.138,79.185,231,67.712
				v2.839C231,77.967,237.033,84,244.448,84h24.104C275.967,84,282,77.967,282,70.552v-2.836
				C365.994,78.995,432.426,145.077,444.151,229h-2.703c-7.415,0-13.448,6.033-13.448,13.448v24.104
				c0,7.416,6.033,13.448,13.448,13.448h2.97C433.488,364.983,366.919,431.911,282,443.286v-1.838
				C282,434.032,275.967,428,268.552,428z M489.5,460c-4.136,0-7.5-3.364-7.5-7.5s3.364-7.5,7.5-7.5s7.5,3.364,7.5,7.5
				S493.636,460,489.5,460z"/>
			<path d="M416,254.5c0-31.438-9.099-61.892-26.313-88.069c-2.278-3.462-6.927-4.422-10.388-2.146s-4.421,6.926-2.146,10.387
				C392.754,198.396,401,226,401,254.5c0,80.229-65.271,145.5-145.5,145.5S110,334.729,110,254.5S175.271,109,255.5,109
				c39.305,0,76.14,15.439,103.719,43.472c2.906,2.954,7.653,2.991,10.606,0.086c2.953-2.905,2.991-7.653,0.087-10.606
				C339.49,111.03,298.857,94,255.5,94C167,94,95,166,95,254.5S167,415,255.5,415S416,343,416,254.5z"/>
			<path d="M255.5,325c-3.242,0-6.582-0.239-9.927-0.71c-4.103-0.576-7.896,2.279-8.473,6.38c-0.578,4.102,2.279,7.895,6.38,8.473
				c4.037,0.568,8.08,0.857,12.02,0.857c47.145,0,85.5-38.355,85.5-85.5c0-45.251-35.522-82.544-80.146-85.325
				C251.124,149.535,230.863,136,207.5,136c-32.809,0-59.5,26.691-59.5,59.5c0,19.002,8.953,35.951,22.863,46.852
				C170.29,246.373,170,250.441,170,254.5c0,30.038,16.076,58.23,41.955,73.577c3.564,2.112,8.164,0.937,10.277-2.625
				c2.113-3.563,0.937-8.164-2.625-10.277C198.26,302.516,185,279.267,185,254.5c0-1.29,0.036-2.581,0.106-3.87
				c2.229,0.907,4.509,1.677,6.829,2.305c0.006,0.002,0.011,0.003,0.017,0.005c0.104,0.028,0.207,0.056,0.311,0.083
				c0.054,0.014,0.107,0.028,0.161,0.042c0.058,0.015,0.117,0.031,0.175,0.046c0.088,0.023,0.176,0.045,0.264,0.067
				c0.02,0.005,0.04,0.01,0.06,0.015c3.652,0.923,7.438,1.508,11.321,1.718c0.001,0,0.003,0,0.004,0
				c0.115,0.006,0.23,0.012,0.345,0.018c0.011,0.001,0.023,0.001,0.034,0.002c0.105,0.005,0.21,0.01,0.315,0.014
				c0.024,0.001,0.049,0.002,0.073,0.003c0.095,0.004,0.19,0.008,0.285,0.011c0.033,0.001,0.066,0.002,0.099,0.003
				c0.088,0.003,0.175,0.006,0.263,0.009c0.04,0.001,0.08,0.002,0.12,0.003c0.08,0.002,0.161,0.005,0.241,0.007
				c0.055,0.001,0.11,0.003,0.166,0.004c0.066,0.001,0.132,0.003,0.198,0.004c0.062,0.001,0.124,0.002,0.186,0.003
				c0.063,0.001,0.127,0.002,0.19,0.003c0.064,0.001,0.129,0.001,0.193,0.002c0.058,0.001,0.117,0.001,0.175,0.002
				C207.252,255,207.376,255,207.5,255c0.168,0,0.336-0.001,0.503-0.002C208.271,280.961,229.475,302,255.5,302
				c26.191,0,47.5-21.309,47.5-47.5c0-22.613-16.043-41.706-37.345-46.391c0.88-4.065,1.345-8.284,1.345-12.609
				c0-0.206-0.001-0.413-0.003-0.619c0-0.03-0.001-0.06-0.001-0.09c-0.002-0.195-0.006-0.389-0.01-0.583
				c-0.001-0.039-0.002-0.078-0.003-0.118c-0.005-0.193-0.01-0.387-0.016-0.58c-0.001-0.033-0.002-0.067-0.003-0.1
				c-0.007-0.201-0.015-0.403-0.024-0.604c-0.001-0.012-0.001-0.025-0.002-0.037c-0.009-0.201-0.019-0.403-0.031-0.604
				c-0.001-0.02-0.002-0.04-0.003-0.06c-0.012-0.204-0.024-0.408-0.038-0.612c-0.002-0.025-0.003-0.05-0.005-0.074
				c-0.014-0.207-0.029-0.413-0.045-0.619c-0.001-0.015-0.002-0.03-0.004-0.045c-0.16-2.016-0.42-4.005-0.777-5.96
				C299.907,189.91,326,219.282,326,254.5C326,293.374,294.374,325,255.5,325z M215.001,239.357
				c-0.119,0.02-0.237,0.043-0.354,0.069c-2.328,0.378-4.716,0.574-7.148,0.574c-0.17,0.001-0.342,0-0.512-0.002
				c-0.046-0.001-0.093-0.001-0.139-0.002c-0.136-0.002-0.272-0.005-0.408-0.008c-0.041-0.001-0.081-0.002-0.121-0.003
				c-0.163-0.004-0.325-0.01-0.488-0.016c-0.054-0.002-0.108-0.004-0.161-0.007c-0.115-0.005-0.229-0.01-0.343-0.015
				c-0.064-0.003-0.129-0.006-0.194-0.01c-0.123-0.006-0.245-0.014-0.367-0.021c-0.095-0.006-0.189-0.012-0.284-0.018
				c-0.096-0.006-0.192-0.013-0.288-0.02c-0.083-0.006-0.166-0.013-0.249-0.019c-0.078-0.006-0.157-0.013-0.235-0.019
				c-0.193-0.016-0.387-0.034-0.579-0.053c-0.027-0.003-0.053-0.005-0.08-0.008c-0.103-0.01-0.205-0.021-0.308-0.032
				c-0.053-0.006-0.106-0.011-0.159-0.017c-0.105-0.012-0.21-0.023-0.314-0.036c-0.04-0.005-0.079-0.01-0.119-0.014
				c-0.199-0.024-0.398-0.049-0.596-0.076c-0.043-0.006-0.085-0.011-0.128-0.017c-0.109-0.015-0.218-0.03-0.327-0.046
				c-0.04-0.006-0.079-0.012-0.119-0.017c-0.342-0.05-0.684-0.105-1.024-0.163c-0.052-0.009-0.103-0.018-0.155-0.027
				c-0.099-0.017-0.198-0.035-0.296-0.053c-0.057-0.01-0.114-0.021-0.17-0.032c-0.159-0.03-0.318-0.06-0.477-0.092
				c-0.073-0.014-0.145-0.029-0.218-0.043c-0.081-0.016-0.163-0.033-0.244-0.05c-0.083-0.017-0.165-0.035-0.247-0.052
				c-0.072-0.015-0.144-0.031-0.215-0.047c-0.145-0.032-0.29-0.064-0.435-0.098c-0.051-0.012-0.102-0.024-0.154-0.036
				c-0.115-0.027-0.231-0.054-0.346-0.082c-0.047-0.011-0.095-0.023-0.142-0.035c-0.145-0.036-0.29-0.072-0.435-0.109
				c-0.013-0.003-0.025-0.006-0.038-0.01C177.207,233.646,163,216.201,163,195.5c0-24.538,19.962-44.5,44.5-44.5
				c18.751,0,34.83,11.658,41.371,28.106c0.018,0.048,0.036,0.097,0.054,0.145c1.459,3.717,2.404,7.573,2.823,11.511
				c0.003,0.026,0.006,0.051,0.008,0.077c0.014,0.13,0.026,0.26,0.039,0.391c0.005,0.053,0.01,0.106,0.015,0.159
				c0.01,0.115,0.021,0.23,0.03,0.345c0.006,0.068,0.011,0.136,0.017,0.204c0.008,0.104,0.016,0.209,0.024,0.313
				c0.006,0.08,0.011,0.16,0.017,0.241c0.006,0.096,0.013,0.192,0.018,0.288c0.005,0.091,0.011,0.182,0.016,0.273
				c0.005,0.087,0.009,0.174,0.014,0.261c0.005,0.099,0.009,0.198,0.013,0.296c0.004,0.083,0.007,0.165,0.01,0.248
				c0.004,0.106,0.007,0.211,0.01,0.317c0.002,0.076,0.005,0.152,0.007,0.227c0.003,0.119,0.005,0.238,0.007,0.358
				c0.001,0.064,0.003,0.127,0.003,0.191c0.002,0.183,0.003,0.366,0.003,0.549c0,5.68-1.07,11.114-3.019,16.113
				c-0.021,0.051-0.042,0.102-0.062,0.153C243.245,226.198,230.249,236.769,215.001,239.357z M288,254.5
				c0,17.92-14.579,32.5-32.5,32.5c-17.92,0-32.5-14.58-32.5-32.5c0-0.518,0.013-1.038,0.038-1.558
				c16.117-4.364,29.542-15.347,37.163-29.839c0-0.001,0.001-0.001,0.001-0.002c0.122-0.232,0.242-0.464,0.361-0.697
				C276.065,224.854,288,238.368,288,254.5z"/>
		</g>
	</g>
</g>
<g>
</g>
<g>
</g>
<g>
</g>
<g>
</g>
<g>
</g>
<g>
</g>
<g>
</g>
<g>
</g>
<g>
</g>
<g>
</g>
<g>
</g>
<g>
</g>
<g>
</g>
<g>
</g>
<g>
</g>
</svg>
