<?xml version="1.0" encoding="iso-8859-1"?>
<!-- Generator: Adobe Illustrator 19.0.0, SVG Export Plug-In . SVG Version: 6.00 Build 0)  -->
<svg version="1.1" id="Capa_1" xmlns="http://www.w3.org/2000/svg" xmlns:xlink="http://www.w3.org/1999/xlink" x="0px" y="0px"
	 viewBox="0 0 512.001 512.001" style="enable-background:new 0 0 512.001 512.001;" xml:space="preserve">
<g>
	<g>
		<g>
			<path d="M256.001,116.227c-21.863,0-43.045,6.323-61.257,18.286c-3.469,2.279-4.434,6.938-2.154,10.407
				c2.278,3.469,6.939,4.435,10.407,2.154c15.753-10.348,34.081-15.818,53.004-15.818c53.314,0,96.689,43.375,96.689,96.689
				c0,53.314-43.375,96.689-96.689,96.689s-96.689-43.375-96.689-96.689c0-22.792,8.088-44.926,22.773-62.323
				c2.677-3.171,2.275-7.912-0.896-10.59c-3.171-2.676-7.911-2.275-10.59,0.896c-16.971,20.103-26.317,45.68-26.317,72.017
				c0,61.601,50.117,111.718,111.718,111.718s111.718-50.117,111.718-111.718S317.602,116.227,256.001,116.227z"/>
			<circle cx="78.654" cy="36.571" r="7.515"/>
			<circle cx="102.701" cy="36.571" r="7.515"/>
			<circle cx="126.748" cy="36.571" r="7.515"/>
			<path d="M445.441,0H66.561C54.168,0,44.087,10.082,44.087,22.474v342.81c0,12.392,10.082,22.474,22.474,22.474h165.894v6.388
				c-5.891,2.567-10.02,8.446-10.02,15.272v85.936c0,9.18,7.469,16.648,16.648,16.648h31.83c9.18,0,16.648-7.469,16.648-16.648
				v-85.936c0-6.825-4.129-12.705-10.02-15.272v-6.388h167.898c12.392,0,22.474-10.082,22.474-22.474V22.474
				C467.914,10.082,457.833,0,445.441,0z M272.533,495.352c0,0.894-0.726,1.619-1.619,1.619h-31.83
				c-0.894,0-1.619-0.726-1.619-1.619v-85.936c0-0.894,0.726-1.619,1.619-1.619h31.83c0.894,0,1.619,0.726,1.619,1.619V495.352z
				 M247.484,392.767v-25.049h15.029v25.049H247.484z M256.001,352.689c-68.783,0-124.744-55.96-124.744-124.744
				s55.96-124.744,124.744-124.744s124.744,55.96,124.744,124.744S324.784,352.689,256.001,352.689z M452.885,59.115h-43.836
				c-4.151,0-7.515,3.364-7.515,7.515s3.364,7.515,7.515,7.515h43.836v291.139c0,4.105-3.34,7.445-7.445,7.445H277.543v-6.668
				c66.881-10.39,118.231-68.367,118.231-138.115c0-77.072-62.701-139.773-139.773-139.773s-139.773,62.701-139.773,139.773
				c0,69.049,50.327,126.563,116.227,137.789v6.994H66.561c-4.105,0-7.445-3.34-7.445-7.445V74.145h94.962
				c3.61,0,6.709-2.567,7.382-6.114l3.774-19.937l86.97-0.01c0.121,0.006,0.242,0.01,0.366,0.01l3.784,19.937
				c0.673,3.547,3.773,6.114,7.382,6.114h115.253c4.151,0,7.515-3.364,7.515-7.515s-3.364-7.515-7.515-7.515h-23.864l-2.626-13.834
				c-1.343-7.079-7.548-12.217-14.753-12.217H165.235c-7.206,0-13.411,5.139-14.753,12.217l-2.626,13.834h-88.74V22.474
				c0-4.105,3.339-7.445,7.445-7.445h378.88c4.105,0,7.445,3.34,7.445,7.445V59.115z M339.829,59.115h-69.868l-2.092-11.025
				l69.866-0.012v0.003c0,0.001,0,0.002,0,0.002L339.829,59.115z"/>
			<path d="M228.751,189.065c-2.936-2.934-7.693-2.934-10.628,0l-33.566,33.566c-2.935,2.936-2.935,7.693,0,10.628l31.562,31.562
				c1.468,1.467,3.392,2.2,5.314,2.2c1.923,0,3.847-0.733,5.314-2.2c2.935-2.936,2.935-7.693,0-10.628l-26.25-26.247l28.252-28.251
				C231.685,196.758,231.685,192.001,228.751,189.065z"/>
			<path d="M285.254,264.821c1.468,1.467,3.392,2.2,5.314,2.2s3.846-0.733,5.314-2.2l31.562-31.562
				c2.935-2.936,2.935-7.693,0-10.628l-33.566-33.566c-2.936-2.934-7.693-2.934-10.628,0c-2.935,2.936-2.935,7.693,0,10.628
				l28.252,28.251l-26.248,26.247C282.32,257.128,282.32,261.885,285.254,264.821z"/>
			<path d="M243.978,269.528c3.133,0,6.058-1.976,7.118-5.109l23.045-68.133c1.33-3.932-0.779-8.197-4.71-9.527
				c-3.933-1.331-8.197,0.778-9.527,4.71l-23.045,68.133c-1.33,3.932,0.779,8.197,4.71,9.527
				C242.368,269.4,243.179,269.528,243.978,269.528z"/>
			<path d="M77.652,131.256h13.025c4.151,0,7.515-3.364,7.515-7.515c0-4.151-3.364-7.515-7.515-7.515H77.652
				c-4.151,0-7.515,3.364-7.515,7.515C70.137,127.893,73.501,131.256,77.652,131.256z"/>
			<path d="M140.775,116.227h-30.059c-4.151,0-7.515,3.364-7.515,7.515c0,4.151,3.364,7.515,7.515,7.515h30.059
				c4.151,0,7.515-3.364,7.515-7.515C148.29,119.591,144.927,116.227,140.775,116.227z"/>
			<path d="M115.727,163.319H85.668c-4.151,0-7.515,3.364-7.515,7.515c0,4.151,3.364,7.515,7.515,7.515h30.059
				c4.151,0,7.515-3.364,7.515-7.515C123.241,166.683,119.878,163.319,115.727,163.319z"/>
			<path d="M85.668,286.56c-4.151,0-7.515,3.364-7.515,7.515c0,4.151,3.364,7.515,7.515,7.515h30.059
				c4.151,0,7.515-3.364,7.515-7.515c0-4.151-3.364-7.515-7.515-7.515H85.668z"/>
			<path d="M78.153,342.168c0,4.151,3.364,7.515,7.515,7.515h64.125c4.151,0,7.515-3.364,7.515-7.515
				c0-4.151-3.364-7.515-7.515-7.515H85.668C81.517,334.654,78.153,338.017,78.153,342.168z"/>
			<path d="M103.202,226.943c0-4.151-3.364-7.515-7.515-7.515H77.652c-4.151,0-7.515,3.364-7.515,7.515s3.364,7.515,7.515,7.515
				h18.035C99.839,234.458,103.202,231.094,103.202,226.943z"/>
			<path d="M421.323,131.256h13.025c4.151,0,7.515-3.364,7.515-7.515c0-4.151-3.364-7.515-7.515-7.515h-13.025
				c-4.151,0-7.515,3.364-7.515,7.515C413.809,127.893,417.172,131.256,421.323,131.256z"/>
			<path d="M371.226,116.227c-4.151,0-7.515,3.364-7.515,7.515c0,4.151,3.364,7.515,7.515,7.515h30.059
				c4.151,0,7.515-3.364,7.515-7.515c0-4.151-3.364-7.515-7.515-7.515H371.226z"/>
			<path d="M388.76,170.834c0,4.151,3.364,7.515,7.515,7.515h30.059c4.151,0,7.515-3.364,7.515-7.515
				c0-4.151-3.364-7.515-7.515-7.515h-30.059C392.123,163.319,388.76,166.683,388.76,170.834z"/>
			<path d="M426.333,286.56h-30.059c-4.151,0-7.515,3.364-7.515,7.515c0,4.151,3.364,7.515,7.515,7.515h30.059
				c4.151,0,7.515-3.364,7.515-7.515C433.848,289.923,430.484,286.56,426.333,286.56z"/>
			<path d="M426.333,334.654h-64.125c-4.151,0-7.515,3.364-7.515,7.515c0,4.151,3.364,7.515,7.515,7.515h64.125
				c4.151,0,7.515-3.364,7.515-7.515C433.848,338.017,430.484,334.654,426.333,334.654z"/>
			<path d="M434.349,219.429h-18.035c-4.151,0-7.515,3.364-7.515,7.515s3.364,7.515,7.515,7.515h18.035
				c4.151,0,7.515-3.364,7.515-7.515S438.5,219.429,434.349,219.429z"/>
		</g>
	</g>
</g>
<g>
</g>
<g>
</g>
<g>
</g>
<g>
</g>
<g>
</g>
<g>
</g>
<g>
</g>
<g>
</g>
<g>
</g>
<g>
</g>
<g>
</g>
<g>
</g>
<g>
</g>
<g>
</g>
<g>
</g>
</svg>
