<?xml version="1.0" encoding="iso-8859-1"?>
<!-- Generator: Adobe Illustrator 19.0.0, SVG Export Plug-In . SVG Version: 6.00 Build 0)  -->
<svg version="1.1" id="Capa_1" xmlns="http://www.w3.org/2000/svg" xmlns:xlink="http://www.w3.org/1999/xlink" x="0px" y="0px"
	 viewBox="0 0 512 512" style="enable-background:new 0 0 512 512;" xml:space="preserve">
<g>
	<g>
		<g>
			<path d="M494.67,182.304h-36.035v-4.73c0-9.555-7.774-17.329-17.329-17.329h-37.412v-3.727c0-9.555-7.774-17.329-17.33-17.329
				H125.436c-9.555,0-17.33,7.774-17.33,17.329v3.727H70.694c-0.747,0-1.482,0.047-2.204,0.139
				c-0.289,0.037-0.576,0.081-0.859,0.131c-0.071,0.013-0.142,0.026-0.213,0.039c-7.994,1.536-14.053,8.583-14.053,17.019v4.73
				H17.33c-0.747,0-1.482,0.047-2.204,0.139c-0.289,0.037-0.576,0.081-0.859,0.131c-0.071,0.013-0.142,0.026-0.213,0.039
				C6.059,184.151,0,191.197,0,199.634v112.734c0,9.555,7.774,17.329,17.33,17.329h36.035v4.73c0,9.555,7.774,17.329,17.329,17.329
				h37.412v3.727c0,9.555,7.774,17.329,17.33,17.329h261.127c9.555,0,17.33-7.774,17.33-17.329v-3.727h37.412
				c9.555,0,17.329-7.775,17.329-17.33v-4.729h36.035c9.555,0,17.33-7.775,17.33-17.33V199.634
				C512,190.077,504.225,182.304,494.67,182.304z M15.04,199.634c0-0.907,0.53-1.693,1.297-2.065
				c0.301-0.144,0.638-0.226,0.993-0.226h36.035v26.069H15.04V199.634z M108.106,336.714H70.694c-1.262,0-2.289-1.027-2.289-2.289
				V290.09c0-4.154-3.367-7.52-7.52-7.52c-4.153,0-7.52,3.366-7.52,7.52v24.565H17.33c-1.262,0-2.29-1.027-2.29-2.289v-73.913
				h38.325v21.557c0,4.154,3.367,7.52,7.52,7.52c4.153,0,7.52-3.366,7.52-7.52v-39.605h39.702V336.714z M108.106,205.365H68.405
				v-27.79c0-0.907,0.53-1.693,1.297-2.064c0.301-0.144,0.637-0.226,0.992-0.226h37.412V205.365z M388.853,355.481
				c0,1.262-1.027,2.289-2.29,2.289H125.436c-1.262,0-2.29-1.027-2.29-2.289V200.352h265.706V355.481z M388.854,185.313H123.147
				v-28.794h-0.001c0-1.262,1.027-2.289,2.29-2.289h261.127c1.262,0,2.29,1.027,2.29,2.289V185.313z M403.893,205.365v-30.08h37.412
				c1.262,0,2.289,1.027,2.289,2.289v27.791H403.893z M443.595,334.424c0,1.263-1.027,2.29-2.289,2.29h-37.412V220.405h39.702
				V334.424z M496.96,312.365c0,1.263-1.028,2.29-2.29,2.29h-36.035v-76.203h38.325V312.365z M496.96,223.413h-38.325v-26.069
				h36.035c1.262,0,2.29,1.027,2.29,2.289V223.413z"/>
			<circle cx="142.699" cy="169.771" r="6.517"/>
			<circle cx="173.782" cy="169.771" r="6.517"/>
			<circle cx="204.865" cy="169.771" r="6.517"/>
			<path d="M139.469,321.374c1.248,0.849,2.73,1.305,4.239,1.305c0.125,0,0.251-0.004,0.376-0.01
				c0.13,0.005,0.262,0.008,0.393,0.008h148.849c0.507,0,1.007-0.038,1.495-0.108c0.425,0.073,0.853,0.11,1.279,0.11
				c2.689,0,5.29-1.447,6.643-3.986c0.818-1.535,1.05-3.226,0.774-4.817c0.072-0.49,0.109-0.992,0.109-1.501v-76.657
				c0-0.322-0.016-0.642-0.045-0.957c0.161-1.453-0.098-2.969-0.838-4.358c-0.943-1.77-2.492-3.008-4.254-3.596
				c-1.519-0.883-3.283-1.39-5.163-1.39H144.477c-5.68,0-10.3,4.62-10.3,10.3v76.657
				C134.177,316.24,136.314,319.612,139.469,321.374z M173.803,307.637l46.101-24.566l46.099,24.566H173.803z M288.587,302.628
				l-52.692-28.08l52.692-28.079V302.628z M267.885,240.458l-47.982,25.569l-47.982-25.569H267.885z M149.216,245.401l54.697,29.148
				l-54.697,29.147V245.401z"/>
			<path d="M323.178,238.453h48.128c4.153,0,7.52-3.366,7.52-7.52s-3.367-7.52-7.52-7.52h-48.128c-4.153,0-7.52,3.366-7.52,7.52
				S319.025,238.453,323.178,238.453z"/>
			<path d="M323.178,267.53h48.128c4.153,0,7.52-3.366,7.52-7.52c0-4.154-3.367-7.52-7.52-7.52h-48.128
				c-4.153,0-7.52,3.366-7.52,7.52C315.658,264.164,319.025,267.53,323.178,267.53z"/>
			<path d="M323.178,296.607h48.128c4.153,0,7.52-3.366,7.52-7.52s-3.367-7.52-7.52-7.52h-48.128c-4.153,0-7.52,3.366-7.52,7.52
				S319.025,296.607,323.178,296.607z"/>
			<path d="M323.178,325.685h48.128c4.153,0,7.52-3.366,7.52-7.52s-3.367-7.52-7.52-7.52h-48.128c-4.153,0-7.52,3.366-7.52,7.52
				S319.025,325.685,323.178,325.685z"/>
		</g>
	</g>
</g>
<g>
</g>
<g>
</g>
<g>
</g>
<g>
</g>
<g>
</g>
<g>
</g>
<g>
</g>
<g>
</g>
<g>
</g>
<g>
</g>
<g>
</g>
<g>
</g>
<g>
</g>
<g>
</g>
<g>
</g>
</svg>
