<?xml version="1.0" encoding="iso-8859-1"?>
<!-- Generator: Adobe Illustrator 19.0.0, SVG Export Plug-In . SVG Version: 6.00 Build 0)  -->
<svg version="1.1" id="Capa_1" xmlns="http://www.w3.org/2000/svg" xmlns:xlink="http://www.w3.org/1999/xlink" x="0px" y="0px"
	 viewBox="0 0 512 512" style="enable-background:new 0 0 512 512;" xml:space="preserve">
<g>
	<g>
		<g>
			<path d="M500.621,143.5c6.274,0,11.379-5.104,11.379-11.379v-20.242c0-6.274-5.104-11.379-11.379-11.379h-20.242
				c-6.274,0-11.379,5.104-11.379,11.379v2.621H278v-2.621c0-6.274-5.104-11.379-11.379-11.379h-20.243
				c-6.274,0-11.378,5.104-11.378,11.379v2.621H43v-2.621c0-6.274-5.104-11.379-11.378-11.379H11.378
				C5.104,100.5,0,105.604,0,111.879v20.242c0,6.274,5.104,11.379,11.378,11.379H15v93h-3.622C5.104,236.5,0,241.604,0,247.879
				v20.242c0,6.274,5.104,11.379,11.378,11.379H15v89h-3.622C5.104,368.5,0,373.604,0,379.879v20.242
				c0,6.274,5.104,11.379,11.378,11.379h20.243c6.274,0,11.378-5.104,11.378-11.379V397.5h192v2.621
				c0,6.274,5.104,11.379,11.378,11.379h20.243c6.274,0,11.379-5.104,11.379-11.379V397.5h191v2.621
				c0,6.274,5.104,11.379,11.379,11.379h20.242c6.274,0,11.379-5.104,11.379-11.379v-20.242c0-6.274-5.104-11.379-11.379-11.379H496
				v-89h4.621c6.274,0,11.379-5.104,11.379-11.379v-20.242c0-6.274-5.104-11.379-11.379-11.379H496v-93H500.621z M250,115.5h13v13
				h-13V115.5z M28,396.5H15v-13h13V396.5z M28,264.5H15v-13h13V264.5z M28,128.5H15v-13h13V128.5z M263,396.5h-13v-13h13V396.5z
				 M481,236.5h-0.621c-6.274,0-11.379,5.104-11.379,11.379v20.242c0,6.274,5.104,11.379,11.379,11.379H481v89h-0.621
				c-6.274,0-11.379,5.104-11.379,11.379v2.621H278v-2.621c0-6.274-5.104-11.379-11.379-11.379h-20.243
				c-4.019,0-7.559,2.095-9.583,5.25c-0.049,0.077-0.098,0.155-0.146,0.233c-0.095,0.157-0.187,0.315-0.274,0.477
				c-0.877,1.612-1.375,3.458-1.375,5.419v2.621H43v-2.621c0-6.274-5.104-11.379-11.378-11.379H30v-89h1.622
				c6.274,0,11.378-5.104,11.378-11.379v-20.242c0-6.274-5.104-11.379-11.378-11.379H30v-93h1.622
				c6.274,0,11.378-5.104,11.378-11.379V129.5h192v2.621c0,1.961,0.499,3.807,1.375,5.419c0.088,0.161,0.179,0.32,0.274,0.477
				c0.048,0.078,0.096,0.156,0.146,0.233c2.025,3.155,5.564,5.25,9.583,5.25h20.243c6.274,0,11.379-5.104,11.379-11.379V129.5h191
				v2.621c0,6.274,5.104,11.379,11.379,11.379H481V236.5z M497,383.5v13h-13v-13H497z M497,251.5v13h-13v-13H497z M484,128.5v-13h13
				v13H484z"/>
			<circle cx="92.5" cy="178" r="7.5"/>
			<circle cx="126.5" cy="178" r="7.5"/>
			<circle cx="160.5" cy="178" r="7.5"/>
			<path d="M450.012,149.873c-0.062-0.036-0.125-0.072-0.188-0.107c-0.314-0.176-0.635-0.343-0.96-0.5
				c-0.586-0.283-1.19-0.535-1.809-0.753c-0.207-0.073-0.415-0.142-0.625-0.208c-0.839-0.262-1.705-0.463-2.592-0.599
				c-0.148-0.023-0.296-0.043-0.445-0.063c-0.745-0.095-1.504-0.144-2.274-0.144H69.881c-0.843,0-1.673,0.059-2.485,0.172
				c-0.004,0-0.008,0.001-0.012,0.001c-5.011,0.703-9.361,3.491-12.146,7.455c-0.05,0.072-0.1,0.144-0.149,0.216
				c-0.067,0.098-0.133,0.197-0.198,0.297c-1.828,2.804-2.892,6.149-2.892,9.739v181.237c0,9.86,8.021,17.882,17.881,17.882h371.237
				c9.86,0,17.882-8.021,17.882-17.882V165.381C459,158.757,455.379,152.962,450.012,149.873z M444,346.618
				c0,1.589-1.293,2.882-2.882,2.882H69.881c-1.589,0-2.881-1.293-2.881-2.882V209.5h99.25c4.142,0,7.5-3.357,7.5-7.5
				s-3.358-7.5-7.5-7.5H67v-29.118c0-1.138,0.663-2.125,1.624-2.592c0.003-0.001,0.006-0.003,0.009-0.005
				c0.061-0.03,0.124-0.056,0.187-0.081c0.068-0.027,0.136-0.052,0.206-0.074c0.27-0.084,0.558-0.129,0.855-0.129h371.236
				c0.149,0,0.295,0.011,0.438,0.033c1.382,0.212,2.444,1.409,2.444,2.849V194.5H396.12l-3.73-11.721
				c-2.338-7.345-9.087-12.279-16.794-12.279H235.402c-7.707,0-14.456,4.935-16.794,12.279l-3.73,11.721H196.25
				c-4.142,0-7.5,3.357-7.5,7.5s3.358,7.5,7.5,7.5h24.112c3.266,0,6.156-2.113,7.147-5.226l5.393-16.946
				c0.348-1.094,1.353-1.828,2.5-1.828h75.195c1.147,0,2.152,0.734,2.501,1.828l5.393,16.946c0.99,3.112,3.881,5.226,7.146,5.226
				H444V346.618z M380.381,194.5h-49.259l-2.864-9h47.34c1.147,0,2.152,0.734,2.501,1.828L380.381,194.5z"/>
			<path d="M219.5,219.5h-135c-4.142,0-7.5,3.357-7.5,7.5v105c0,4.143,3.358,7.5,7.5,7.5h135c4.142,0,7.5-3.357,7.5-7.5V227
				C227,222.857,223.642,219.5,219.5,219.5z M212,324.5H92v-90h120V324.5z"/>
			<path d="M122.326,311.491c1.833,1.142,3.895,1.718,5.966,1.718c1.697,0,3.402-0.387,4.99-1.167l45.705-22.46
				c3.867-1.898,6.287-5.754,6.317-10.063c0.03-4.308-2.337-8.196-6.177-10.148l-45.705-23.247c-3.53-1.796-7.653-1.632-11.03,0.438
				c-3.376,2.07-5.393,5.672-5.393,9.633V301.9C117,305.829,118.991,309.414,122.326,311.491z M132,262.229l33.729,17.155
				L132,295.958V262.229z"/>
			<path d="M321,227v31c0,4.143,3.357,7.5,7.5,7.5h97c4.143,0,7.5-3.357,7.5-7.5v-31c0-4.143-3.357-7.5-7.5-7.5h-97
				C324.357,219.5,321,222.857,321,227z M336,234.5h82v16h-82V234.5z"/>
			<path d="M425.5,293.5h-97c-4.143,0-7.5,3.357-7.5,7.5v31c0,4.143,3.357,7.5,7.5,7.5h97c4.143,0,7.5-3.357,7.5-7.5v-31
				C433,296.857,429.643,293.5,425.5,293.5z M418,324.5h-82v-16h82V324.5z"/>
			<path d="M246,257.5h57c4.143,0,7.5-3.357,7.5-7.5s-3.357-7.5-7.5-7.5h-57c-4.142,0-7.5,3.357-7.5,7.5S241.858,257.5,246,257.5z"
				/>
			<path d="M246.5,288.5h57c4.143,0,7.5-3.357,7.5-7.5s-3.357-7.5-7.5-7.5h-57c-4.142,0-7.5,3.357-7.5,7.5
				S242.358,288.5,246.5,288.5z"/>
			<path d="M304,304.5h-57c-4.142,0-7.5,3.357-7.5,7.5s3.358,7.5,7.5,7.5h57c4.143,0,7.5-3.357,7.5-7.5S308.143,304.5,304,304.5z"/>
		</g>
	</g>
</g>
<g>
</g>
<g>
</g>
<g>
</g>
<g>
</g>
<g>
</g>
<g>
</g>
<g>
</g>
<g>
</g>
<g>
</g>
<g>
</g>
<g>
</g>
<g>
</g>
<g>
</g>
<g>
</g>
<g>
</g>
</svg>
