<?xml version="1.0" encoding="iso-8859-1"?>
<!-- Generator: Adobe Illustrator 19.0.0, SVG Export Plug-In . SVG Version: 6.00 Build 0)  -->
<svg version="1.1" id="Capa_1" xmlns="http://www.w3.org/2000/svg" xmlns:xlink="http://www.w3.org/1999/xlink" x="0px" y="0px"
	 viewBox="0 0 512.001 512.001" style="enable-background:new 0 0 512.001 512.001;" xml:space="preserve">
<g>
	<g>
		<g>
			<path d="M466.365,262.175c2.18-2.735,2.18-6.614,0-9.35c-0.958-1.201-23.877-29.751-61.164-58.686
				c-25.007-19.406-50.48-34.212-75.711-44.14h86.431c3,7.605,10.421,13,19.079,13c11.304,0,20.5-9.196,20.5-20.5
				S446.305,122,435,122c-8.658,0-16.079,5.395-19.079,13h-61.689c24.253-16.13,40.268-43.708,40.268-74.956V41h1.237
				c6.486,0,11.763-5.277,11.763-11.763V11.763C407.5,5.277,402.224,0,395.737,0h-17.475C371.776,0,366.5,5.277,366.5,11.763v17.475
				c0,6.486,5.276,11.763,11.763,11.763h1.237v19.044c0,41.331-33.625,74.956-74.955,74.956h-97.09
				c-41.33,0-74.955-33.625-74.955-74.956V41h1.237c6.486,0,11.763-5.277,11.763-11.763V11.763C145.5,5.277,140.224,0,133.737,0
				h-17.475C109.776,0,104.5,5.277,104.5,11.763v17.475c0,6.486,5.276,11.763,11.763,11.763h1.237v19.044
				c0,31.248,16.015,58.825,40.268,74.956H97.079c-3-7.605-10.421-13-19.079-13c-11.304,0-20.5,9.196-20.5,20.5
				C57.5,153.805,66.696,163,78,163c8.658,0,16.079-5.395,19.079-13h85.431c-25.231,9.928-50.704,24.734-75.711,44.14
				c-37.287,28.935-60.206,57.484-61.164,58.686c-2.18,2.735-2.18,6.614,0,9.35c0.958,1.201,23.877,29.751,61.164,58.686
				c25.007,19.406,50.48,34.212,75.711,44.14H97.079c-3-7.605-10.421-13-19.079-13c-11.304,0-20.5,9.196-20.5,20.5
				C57.5,383.806,66.696,393,78,393c8.658,0,16.079-5.395,19.079-13h60.689c-24.253,16.13-40.268,43.708-40.268,74.956V471h-1.237
				c-6.486,0-11.763,5.277-11.763,11.763v17.475c0,6.486,5.276,11.763,11.763,11.763h17.475c6.486,0,11.763-5.277,11.763-11.763
				v-17.475c0-6.486-5.276-11.763-11.763-11.763H132.5v-16.044c0-41.331,33.625-74.956,74.955-74.956h97.09
				c41.33,0,74.955,33.625,74.955,74.956V471h-1.237c-6.486,0-11.763,5.277-11.763,11.763v17.475
				c0,6.486,5.276,11.763,11.763,11.763h17.475c6.486,0,11.763-5.277,11.763-11.763v-17.475c0-6.486-5.276-11.763-11.763-11.763
				H394.5v-16.044c0-31.248-16.015-58.825-40.268-74.956h61.689c3,7.605,10.421,13,19.079,13c11.304,0,20.5-9.196,20.5-20.5
				c0-11.304-9.196-20.5-20.5-20.5c-8.658,0-16.079,5.395-19.079,13H329.49c25.231-9.928,50.704-24.734,75.711-44.14
				C442.489,291.926,465.408,263.376,466.365,262.175z M435,137c3.033,0,5.5,2.467,5.5,5.5s-2.467,5.5-5.5,5.5
				c-3.033,0-5.5-2.467-5.5-5.5S431.968,137,435,137z M381.5,15h11v11h-11V15z M130.5,26h-11V15h11V26z M78,148
				c-3.033,0-5.5-2.467-5.5-5.5s2.467-5.5,5.5-5.5s5.5,2.467,5.5,5.5S81.034,148,78,148z M78,378c-3.033,0-5.5-2.467-5.5-5.5
				c0-3.033,2.467-5.5,5.5-5.5s5.5,2.467,5.5,5.5C83.5,375.533,81.034,378,78,378z M130.5,497h-11v-11h11V497z M381.5,486h11v11h-11
				V486z M435,367c3.033,0,5.5,2.467,5.5,5.5c0,3.033-2.467,5.5-5.5,5.5c-3.033,0-5.5-2.467-5.5-5.5
				C429.5,369.467,431.968,367,435,367z M116.276,309.227c-27.298-21.141-46.974-42.53-54.964-51.727
				c7.991-9.198,27.666-30.586,54.964-51.727c13.964-10.815,31.209-22.515,50.743-32.383c-20.767,21.958-33.518,51.573-33.518,84.11
				s12.751,62.152,33.518,84.11C147.485,331.742,130.24,320.042,116.276,309.227z M344.982,341.61
				c20.767-21.958,33.518-51.573,33.518-84.11c0-6.281-0.482-12.6-1.433-18.779c-0.631-4.095-4.462-6.904-8.554-6.272
				c-4.094,0.63-6.902,4.459-6.272,8.553c0.835,5.427,1.259,10.978,1.259,16.498c0,56.076-43.159,102.261-98.003,107.084
				c-3.147,0.188-6.314,0.286-9.497,0.286c-3.183,0-6.35-0.098-9.497-0.286C191.659,359.761,148.5,313.576,148.5,257.5
				s43.159-102.261,98.003-107.084c3.147-0.188,6.314-0.286,9.497-0.286c3.133,0,6.249,0.095,9.346,0.277
				c38.645,3.375,72.889,27.494,88.884,63.367c1.687,3.783,6.121,5.483,9.903,3.796c3.783-1.687,5.483-6.121,3.796-9.904
				c-5.719-12.827-13.486-24.335-22.813-34.208c19.478,9.853,36.676,21.524,50.608,32.314
				c27.298,21.141,46.973,42.529,54.964,51.727c-7.991,9.198-27.666,30.586-54.964,51.727
				C381.76,320.042,364.516,331.742,344.982,341.61z"/>
			<path d="M264.016,230h-16.031c-10.744,0-19.484,8.741-19.484,19.484v16.031c0,10.744,8.74,19.484,19.484,19.484h16.031
				c10.744,0,19.484-8.741,19.484-19.484v-16.031C283.5,238.741,274.76,230,264.016,230z M268.5,265.516
				c0,2.473-2.012,4.484-4.484,4.484h-16.031c-2.473,0-4.484-2.012-4.484-4.484v-16.031c0-2.473,2.012-4.484,4.484-4.484h16.031
				c2.473,0,4.484,2.012,4.484,4.484V265.516z"/>
			<path d="M301.409,170.087c-15.586-1.126-29.498,8.666-34.21,22.872C263.513,192.322,259.768,192,256,192
				c-36.117,0-65.5,29.383-65.5,65.5S219.883,323,256,323s65.5-29.383,65.5-65.5c0-8.736-1.755-17.373-5.12-25.376
				c8.946-5.449,15.223-14.994,16.033-26.214c0.644-8.925-2.227-17.566-8.082-24.333
				C318.476,174.811,310.336,170.73,301.409,170.087z M256,308c-27.846,0-50.5-22.654-50.5-50.5S228.154,207,256,207
				c3.301,0,6.575,0.319,9.787,0.95c0.847,6.422,3.546,12.462,7.882,17.473c5.607,6.478,13.308,10.494,21.788,11.389
				c0.022,0.002,0.044,0.005,0.066,0.007c0.097,0.01,0.195,0.02,0.292,0.029c0.071,0.007,0.143,0.013,0.214,0.019
				c0.054,0.005,0.109,0.01,0.163,0.015c0.132,0.011,0.265,0.022,0.398,0.031c0.062,0.004,0.123,0.008,0.184,0.012
				c0.042,0.003,0.085,0.006,0.127,0.009c0.078,0.005,0.157,0.009,0.235,0.014c0.026,0.001,0.052,0.003,0.079,0.005
				c0.079,0.004,0.159,0.008,0.239,0.012c0.026,0.001,0.051,0.003,0.076,0.004c0.084,0.004,0.167,0.007,0.251,0.01
				c0.018,0.001,0.035,0.001,0.053,0.002c0.09,0.003,0.181,0.006,0.272,0.009c0.007,0,0.014,0,0.021,0
				c1.327,0.036,2.648-0.007,3.959-0.127c2.898,6.466,4.414,13.51,4.414,20.638C306.5,285.346,283.846,308,256,308z
				 M317.453,204.831c-0.733,10.162-9.578,17.83-19.747,17.124c-0.012-0.001-0.024-0.002-0.035-0.002h-0.001
				c-0.078-0.006-0.156-0.012-0.233-0.018c-0.004,0-0.008-0.001-0.012-0.001c-9.89-0.846-17.445-9.524-16.887-19.462
				c0.005-0.093,0.008-0.186,0.01-0.278c0-0.008,0.001-0.016,0.001-0.023c0.701-9.724,8.838-17.17,18.439-17.17
				c0.444,0,0.894,0.016,1.344,0.048c4.929,0.355,9.424,2.609,12.657,6.345C316.224,195.13,317.809,199.902,317.453,204.831z"/>
		</g>
	</g>
</g>
<g>
</g>
<g>
</g>
<g>
</g>
<g>
</g>
<g>
</g>
<g>
</g>
<g>
</g>
<g>
</g>
<g>
</g>
<g>
</g>
<g>
</g>
<g>
</g>
<g>
</g>
<g>
</g>
<g>
</g>
</svg>
