<?xml version="1.0" encoding="iso-8859-1"?>
<!-- Generator: Adobe Illustrator 19.0.0, SVG Export Plug-In . SVG Version: 6.00 Build 0)  -->
<svg version="1.1" id="Capa_1" xmlns="http://www.w3.org/2000/svg" xmlns:xlink="http://www.w3.org/1999/xlink" x="0px" y="0px"
	 viewBox="0 0 512 512" style="enable-background:new 0 0 512 512;" xml:space="preserve">
<g>
	<g>
		<g>
			<path d="M113.5,491h6c10.201,0,18.5-8.299,18.5-18.5s-8.299-18.5-18.5-18.5h-6c-10.201,0-18.5,8.299-18.5,18.5
				S103.299,491,113.5,491z M113.5,469h6c1.93,0,3.5,1.57,3.5,3.5s-1.57,3.5-3.5,3.5h-6c-1.93,0-3.5-1.57-3.5-3.5
				S111.57,469,113.5,469z"/>
			<path d="M113.5,444h38c10.201,0,18.5-8.299,18.5-18.5s-8.299-18.5-18.5-18.5h-38c-10.201,0-18.5,8.299-18.5,18.5
				S103.299,444,113.5,444z M113.5,422h38c1.93,0,3.5,1.57,3.5,3.5s-1.57,3.5-3.5,3.5h-38c-1.93,0-3.5-1.57-3.5-3.5
				S111.57,422,113.5,422z"/>
			<path d="M180,425.5c0,10.201,8.299,18.5,18.5,18.5h6c10.201,0,18.5-8.299,18.5-18.5s-8.299-18.5-18.5-18.5h-6
				C188.299,407,180,415.299,180,425.5z M198.5,422h6c1.93,0,3.5,1.57,3.5,3.5s-1.57,3.5-3.5,3.5h-6c-1.93,0-3.5-1.57-3.5-3.5
				S196.57,422,198.5,422z"/>
			<path d="M113.5,397h6c10.201,0,18.5-8.299,18.5-18.5s-8.299-18.5-18.5-18.5h-6c-10.201,0-18.5,8.299-18.5,18.5
				S103.299,397,113.5,397z M113.5,375h6c1.93,0,3.5,1.57,3.5,3.5s-1.57,3.5-3.5,3.5h-6c-1.93,0-3.5-1.57-3.5-3.5
				S111.57,375,113.5,375z"/>
			<path d="M166.5,397h6c10.201,0,18.5-8.299,18.5-18.5s-8.299-18.5-18.5-18.5h-6c-10.201,0-18.5,8.299-18.5,18.5
				S156.299,397,166.5,397z M166.5,375h6c1.93,0,3.5,1.57,3.5,3.5s-1.57,3.5-3.5,3.5h-6c-1.93,0-3.5-1.57-3.5-3.5
				S164.57,375,166.5,375z"/>
			<path d="M219.5,397h6c10.201,0,18.5-8.299,18.5-18.5s-8.299-18.5-18.5-18.5h-6c-10.201,0-18.5,8.299-18.5,18.5
				S209.299,397,219.5,397z M219.5,375h6c1.93,0,3.5,1.57,3.5,3.5s-1.57,3.5-3.5,3.5h-6c-1.93,0-3.5-1.57-3.5-3.5
				S217.57,375,219.5,375z"/>
			<path d="M272.5,397h6c10.201,0,18.5-8.299,18.5-18.5s-8.299-18.5-18.5-18.5h-6c-10.201,0-18.5,8.299-18.5,18.5
				S262.299,397,272.5,397z M272.5,375h6c1.93,0,3.5,1.57,3.5,3.5s-1.57,3.5-3.5,3.5h-6c-1.93,0-3.5-1.57-3.5-3.5
				S270.57,375,272.5,375z"/>
			<path d="M325.5,397h6c10.201,0,18.5-8.299,18.5-18.5s-8.299-18.5-18.5-18.5h-6c-10.201,0-18.5,8.299-18.5,18.5
				S315.299,397,325.5,397z M325.5,375h6c1.93,0,3.5,1.57,3.5,3.5s-1.57,3.5-3.5,3.5h-6c-1.93,0-3.5-1.57-3.5-3.5
				S323.57,375,325.5,375z"/>
			<path d="M378.5,397h6c10.201,0,18.5-8.299,18.5-18.5s-8.299-18.5-18.5-18.5h-6c-10.201,0-18.5,8.299-18.5,18.5
				S368.299,397,378.5,397z M378.5,375h6c1.93,0,3.5,1.57,3.5,3.5s-1.57,3.5-3.5,3.5h-6c-1.93,0-3.5-1.57-3.5-3.5
				S376.57,375,378.5,375z"/>
			<path d="M233,425.5c0,10.201,8.299,18.5,18.5,18.5h6c10.201,0,18.5-8.299,18.5-18.5s-8.299-18.5-18.5-18.5h-6
				C241.299,407,233,415.299,233,425.5z M251.5,422h6c1.93,0,3.5,1.57,3.5,3.5s-1.57,3.5-3.5,3.5h-6c-1.93,0-3.5-1.57-3.5-3.5
				S249.57,422,251.5,422z"/>
			<path d="M286,425.5c0,10.201,8.299,18.5,18.5,18.5h6c10.201,0,18.5-8.299,18.5-18.5s-8.299-18.5-18.5-18.5h-6
				C294.299,407,286,415.299,286,425.5z M304.5,422h6c1.93,0,3.5,1.57,3.5,3.5s-1.57,3.5-3.5,3.5h-6c-1.93,0-3.5-1.57-3.5-3.5
				S302.57,422,304.5,422z"/>
			<path d="M339,425.5c0,10.201,8.299,18.5,18.5,18.5h38c10.201,0,18.5-8.299,18.5-18.5s-8.299-18.5-18.5-18.5h-38
				C347.299,407,339,415.299,339,425.5z M357.5,422h38c1.93,0,3.5,1.57,3.5,3.5s-1.57,3.5-3.5,3.5h-38c-1.93,0-3.5-1.57-3.5-3.5
				S355.57,422,357.5,422z"/>
			<path d="M395.5,454h-6c-10.201,0-18.5,8.299-18.5,18.5s8.299,18.5,18.5,18.5h6c10.201,0,18.5-8.299,18.5-18.5
				S405.701,454,395.5,454z M395.5,476h-6c-1.93,0-3.5-1.57-3.5-3.5s1.57-3.5,3.5-3.5h6c1.93,0,3.5,1.57,3.5,3.5
				S397.43,476,395.5,476z"/>
			<path d="M342.5,454h-176c-10.201,0-18.5,8.299-18.5,18.5s8.299,18.5,18.5,18.5h176c10.201,0,18.5-8.299,18.5-18.5
				S352.701,454,342.5,454z M342.5,476h-176c-1.93,0-3.5-1.57-3.5-3.5s1.57-3.5,3.5-3.5h176c1.93,0,3.5,1.57,3.5,3.5
				S344.43,476,342.5,476z"/>
			<circle cx="137.5" cy="29.5" r="8.5"/>
			<circle cx="169.5" cy="29.5" r="8.5"/>
			<circle cx="201.5" cy="29.5" r="8.5"/>
			<path d="M102.803,116.197c-2.929-2.928-7.678-2.928-10.606,0l-20,20c-2.929,2.93-2.929,7.678,0,10.607l20,20
				C93.661,168.268,95.581,169,97.5,169s3.839-0.732,5.303-2.196c2.929-2.93,2.929-7.678,0-10.607L88.106,141.5l14.697-14.696
				C105.732,123.874,105.732,119.126,102.803,116.197z"/>
			<path d="M122.197,166.804c1.464,1.464,3.384,2.196,5.303,2.196s3.839-0.732,5.303-2.196l20-20c2.929-2.93,2.929-7.678,0-10.607
				l-20-20c-2.929-2.928-7.678-2.928-10.606,0c-2.929,2.93-2.929,7.678,0,10.607l14.697,14.696l-14.697,14.696
				C119.268,159.126,119.268,163.874,122.197,166.804z"/>
			<path d="M192.5,96h164c4.143,0,7.5-3.357,7.5-7.5s-3.357-7.5-7.5-7.5h-164c-4.142,0-7.5,3.357-7.5,7.5S188.358,96,192.5,96z"/>
			<path d="M299,139.5c0-4.143-3.357-7.5-7.5-7.5h-77c-4.142,0-7.5,3.357-7.5,7.5s3.358,7.5,7.5,7.5h77
				C295.643,147,299,143.643,299,139.5z"/>
			<path d="M214.5,183c-4.142,0-7.5,3.357-7.5,7.5s3.358,7.5,7.5,7.5h33c4.142,0,7.5-3.357,7.5-7.5s-3.358-7.5-7.5-7.5H214.5z"/>
			<path d="M273.5,198h84c4.143,0,7.5-3.357,7.5-7.5s-3.357-7.5-7.5-7.5h-84c-4.143,0-7.5,3.357-7.5,7.5S269.357,198,273.5,198z"/>
			<path d="M365,235.5c0-4.143-3.357-7.5-7.5-7.5h-207c-4.142,0-7.5,3.357-7.5,7.5s3.358,7.5,7.5,7.5h207
				C361.643,243,365,239.643,365,235.5z"/>
			<path d="M356.5,147c4.143,0,7.5-3.357,7.5-7.5s-3.357-7.5-7.5-7.5h-33c-4.143,0-7.5,3.357-7.5,7.5s3.357,7.5,7.5,7.5H356.5z"/>
			<path d="M438.745,261H403v-38h16.5c22.332,0,40.5-18.168,40.5-40.5c0-22.332-18.168-40.5-40.5-40.5H403V23.506
				c0-7.898-3.916-14.899-9.908-19.163c-0.077-0.055-0.154-0.109-0.231-0.163c-0.155-0.108-0.311-0.213-0.469-0.317
				c-0.079-0.052-0.158-0.104-0.238-0.154c-0.795-0.51-1.622-0.974-2.479-1.387c-0.857-0.413-1.741-0.776-2.651-1.084
				c-0.182-0.062-0.365-0.121-0.549-0.178c-0.736-0.229-1.487-0.423-2.251-0.58c-0.191-0.039-0.383-0.076-0.576-0.111
				C382.3,0.126,380.911,0,379.493,0H127.506c-1.512,0-2.99,0.144-4.423,0.417c-0.008,0.001-0.015,0.003-0.023,0.004
				c-3.714,0.714-7.12,2.305-9.993,4.548c-0.112,0.088-0.224,0.176-0.335,0.266c-0.106,0.085-0.211,0.172-0.315,0.26
				C107.275,9.811,104,16.283,104,23.506v52.002c-32.928,4.077-58.5,32.23-58.5,66.242s25.572,62.166,58.5,66.242V208H55
				c-18.748,0-34,15.252-34,34s15.252,34,34,34h49v27H86.144C75.588,303,67,311.588,67,322.145v170.711
				C67,503.412,75.588,512,86.144,512h334.711c10.557,0,19.145-8.588,19.145-19.145v-127.36c28.236-0.669,51-23.846,51-52.24
				C491,284.441,467.559,261,438.745,261z M403,157h16.5c14.061,0,25.5,11.439,25.5,25.5c0,14.061-11.439,25.5-25.5,25.5H403V157z
				 M119,23.507c0-3.271,1.857-6.117,4.572-7.54c0.022-0.012,0.044-0.023,0.066-0.035c0.265-0.136,0.538-0.258,0.818-0.366
				c0.237-0.091,0.479-0.173,0.725-0.243c0.007-0.002,0.014-0.004,0.021-0.006c0.734-0.207,1.507-0.318,2.306-0.318h251.985V15
				c0.44,0,0.872,0.034,1.294,0.098c4.079,0.625,7.213,4.158,7.213,8.409V44H119V23.507z M60.5,141.75
				c0-28.168,22.621-51.151,50.65-51.738c0.155,0.007,0.31,0.01,0.467,0.007L112.25,90c28.535,0,51.75,23.215,51.75,51.75
				c0,1.561-0.069,3.105-0.205,4.631c-0.02,0.218-0.04,0.436-0.062,0.653c-0.022,0.217-0.046,0.434-0.07,0.65
				c-0.025,0.216-0.051,0.432-0.078,0.648c-0.096,0.754-0.209,1.504-0.337,2.248c-0.055,0.319-0.113,0.637-0.174,0.954
				c-0.041,0.211-0.082,0.422-0.126,0.632c-0.043,0.21-0.088,0.42-0.133,0.63c-0.023,0.105-0.046,0.209-0.07,0.314
				c-5.19,23.086-25.855,40.386-50.485,40.39l-0.643-0.019c-0.173-0.004-0.345-0.002-0.516,0.006
				C83.094,192.874,60.5,169.901,60.5,141.75z M55,261c-10.477,0-19-8.523-19-19s8.523-19,19-19h49v38H55z M425,492.855
				c0,2.285-1.859,4.145-4.145,4.145H86.144c-2.285,0-4.144-1.859-4.144-4.145V348.959h343V492.855z M425.001,333.959H82v-11.814
				c0-2.286,1.859-4.145,4.144-4.145H306.25c4.143,0,7.5-3.357,7.5-7.5s-3.357-7.5-7.5-7.5H119v-94.839
				c0.11-0.011,0.22-0.023,0.331-0.034c0.027-0.003,0.054-0.006,0.081-0.009c0.099-0.01,0.199-0.021,0.298-0.033
				c0.035-0.004,0.069-0.008,0.104-0.011c0.101-0.011,0.201-0.023,0.302-0.035c0.032-0.004,0.064-0.008,0.097-0.011
				c0.095-0.011,0.189-0.023,0.284-0.035c0.042-0.005,0.085-0.01,0.127-0.016c0.092-0.011,0.183-0.023,0.275-0.035
				c0.04-0.005,0.081-0.01,0.121-0.016c0.092-0.012,0.184-0.024,0.276-0.037c0.044-0.006,0.087-0.012,0.131-0.018
				c0.088-0.012,0.175-0.024,0.262-0.037c0.045-0.006,0.09-0.013,0.135-0.019c0.091-0.013,0.181-0.026,0.272-0.04
				c0.038-0.006,0.077-0.011,0.115-0.017c0.092-0.014,0.185-0.028,0.277-0.042c0.045-0.007,0.09-0.014,0.134-0.021
				c0.086-0.013,0.172-0.027,0.259-0.041c0.052-0.008,0.104-0.017,0.155-0.025c0.08-0.013,0.159-0.026,0.239-0.039
				c0.049-0.008,0.098-0.017,0.147-0.025c0.086-0.014,0.171-0.029,0.257-0.043c0.028-0.005,0.056-0.01,0.084-0.015
				c0.315-0.055,0.63-0.112,0.943-0.172c0.046-0.009,0.093-0.018,0.139-0.026c0.068-0.013,0.135-0.026,0.203-0.04
				c0.067-0.013,0.134-0.026,0.201-0.039c0.062-0.012,0.123-0.025,0.185-0.037c0.07-0.014,0.139-0.028,0.209-0.042
				c0.062-0.013,0.124-0.026,0.186-0.039c0.07-0.014,0.14-0.029,0.209-0.044c0.063-0.013,0.125-0.026,0.188-0.04
				c0.07-0.015,0.14-0.03,0.21-0.045c0.057-0.012,0.115-0.025,0.172-0.038c0.076-0.017,0.152-0.034,0.228-0.051
				c0.055-0.012,0.11-0.025,0.165-0.037c0.075-0.017,0.15-0.034,0.225-0.051c0.056-0.013,0.112-0.026,0.168-0.039
				c0.08-0.019,0.16-0.037,0.24-0.056c0.046-0.011,0.093-0.022,0.139-0.033c0.085-0.02,0.171-0.041,0.256-0.062
				c0.048-0.012,0.096-0.023,0.143-0.035c0.083-0.02,0.165-0.041,0.248-0.061c0.047-0.012,0.094-0.023,0.14-0.035
				c0.091-0.023,0.182-0.046,0.273-0.07c0.037-0.009,0.073-0.019,0.11-0.028c0.102-0.026,0.203-0.053,0.305-0.08
				c0.028-0.007,0.056-0.014,0.083-0.022c0.115-0.031,0.231-0.062,0.346-0.093c0.013-0.004,0.027-0.007,0.041-0.011
				c0.528-0.143,1.052-0.292,1.575-0.448c0.005-0.001,0.01-0.003,0.015-0.004c0.122-0.036,0.245-0.073,0.366-0.111
				c0.022-0.007,0.043-0.013,0.065-0.02c0.106-0.032,0.213-0.065,0.319-0.098c0.024-0.008,0.048-0.015,0.073-0.023
				c0.106-0.033,0.211-0.066,0.317-0.1c0.024-0.008,0.047-0.015,0.071-0.023c0.104-0.033,0.207-0.067,0.311-0.1
				c0.025-0.008,0.05-0.016,0.076-0.025c0.105-0.034,0.21-0.069,0.315-0.104c0.021-0.007,0.043-0.014,0.064-0.021
				c0.108-0.036,0.217-0.073,0.325-0.109c0.018-0.006,0.036-0.012,0.054-0.018c0.11-0.037,0.22-0.075,0.329-0.113
				c0.018-0.006,0.036-0.012,0.054-0.019c0.113-0.039,0.227-0.079,0.34-0.119c0.013-0.005,0.025-0.009,0.038-0.013
				c1.407-0.497,2.792-1.04,4.154-1.626c0.004-0.002,0.009-0.004,0.013-0.006c0.118-0.051,0.236-0.102,0.354-0.154
				c0.007-0.003,0.014-0.006,0.022-0.01c0.119-0.052,0.239-0.105,0.357-0.158c0.002-0.001,0.004-0.001,0.006-0.002
				c0.246-0.109,0.491-0.22,0.735-0.333c0.001,0,0.001-0.001,0.002-0.001c14.118-6.498,25.596-17.781,32.342-31.76
				c0.001-0.002,0.002-0.004,0.003-0.007c0.115-0.239,0.229-0.479,0.342-0.72c0.003-0.006,0.005-0.011,0.008-0.017
				c0.054-0.115,0.108-0.231,0.161-0.347c0.004-0.008,0.008-0.016,0.011-0.025c0.052-0.114,0.104-0.227,0.156-0.341
				c0.004-0.009,0.008-0.018,0.012-0.027c0.05-0.111,0.1-0.223,0.15-0.335c0.006-0.013,0.012-0.027,0.018-0.041
				c0.049-0.11,0.098-0.22,0.146-0.331c0.005-0.011,0.01-0.023,0.015-0.034c0.051-0.116,0.102-0.233,0.152-0.35
				c0.002-0.005,0.005-0.011,0.007-0.016c0.373-0.866,0.729-1.743,1.066-2.627c0.004-0.011,0.009-0.023,0.013-0.034
				c0.043-0.114,0.087-0.229,0.13-0.344c0.005-0.014,0.011-0.029,0.016-0.043c0.04-0.108,0.081-0.217,0.12-0.325
				c0.01-0.026,0.019-0.052,0.029-0.079c0.037-0.1,0.073-0.201,0.11-0.302c0.008-0.023,0.017-0.046,0.025-0.07
				c0.038-0.105,0.076-0.211,0.113-0.317c0.007-0.021,0.014-0.041,0.022-0.062c0.036-0.102,0.072-0.205,0.107-0.307
				c0.01-0.029,0.02-0.059,0.03-0.088c0.035-0.102,0.07-0.204,0.105-0.306c0.007-0.021,0.015-0.043,0.022-0.064
				c0.036-0.106,0.071-0.211,0.106-0.317c0.008-0.024,0.016-0.048,0.024-0.072c0.033-0.101,0.067-0.202,0.1-0.303
				c0.009-0.028,0.018-0.056,0.027-0.084c0.035-0.109,0.07-0.218,0.105-0.327c0.005-0.016,0.01-0.033,0.016-0.049
				c0.036-0.113,0.072-0.226,0.107-0.339c0.005-0.016,0.01-0.033,0.016-0.049c0.161-0.519,0.317-1.04,0.466-1.563l0.004-0.015
				c0.035-0.122,0.069-0.244,0.103-0.367c0.008-0.028,0.015-0.055,0.023-0.083c0.029-0.104,0.057-0.208,0.086-0.312
				c0.007-0.024,0.013-0.048,0.02-0.072c0.028-0.104,0.056-0.209,0.084-0.314c0.009-0.035,0.018-0.07,0.027-0.104
				c0.025-0.094,0.049-0.188,0.074-0.282c0.01-0.037,0.019-0.075,0.029-0.112c0.024-0.093,0.048-0.187,0.071-0.28
				c0.01-0.04,0.02-0.079,0.03-0.119c0.023-0.09,0.045-0.181,0.067-0.271c0.01-0.042,0.021-0.084,0.031-0.126
				c0.021-0.088,0.042-0.175,0.063-0.263c0.011-0.045,0.022-0.09,0.032-0.136c0.021-0.086,0.041-0.173,0.061-0.26
				c0.01-0.044,0.021-0.089,0.031-0.134c0.019-0.084,0.038-0.168,0.058-0.252c0.011-0.049,0.022-0.099,0.033-0.148
				c0.018-0.082,0.037-0.165,0.055-0.247c0.011-0.049,0.022-0.098,0.032-0.148c0.02-0.093,0.04-0.186,0.06-0.279
				c0.008-0.036,0.016-0.072,0.023-0.108c0.024-0.111,0.047-0.223,0.07-0.335c0.004-0.02,0.008-0.039,0.012-0.059
				c0.082-0.399,0.16-0.8,0.235-1.202c0.008-0.042,0.015-0.084,0.023-0.126c0.017-0.092,0.034-0.185,0.05-0.277
				c0.007-0.039,0.014-0.078,0.021-0.117c0.017-0.097,0.034-0.193,0.051-0.29c0.007-0.039,0.013-0.078,0.02-0.117
				c0.016-0.093,0.032-0.185,0.047-0.278c0.008-0.047,0.016-0.094,0.023-0.141c0.015-0.088,0.029-0.177,0.043-0.265
				c0.008-0.047,0.015-0.095,0.022-0.142c0.013-0.084,0.026-0.167,0.039-0.251c0.009-0.057,0.017-0.114,0.026-0.17
				c0.011-0.076,0.023-0.151,0.034-0.227c0.009-0.059,0.017-0.117,0.026-0.175c0.011-0.079,0.023-0.158,0.034-0.237
				c0.008-0.055,0.015-0.109,0.023-0.164c0.011-0.08,0.022-0.16,0.033-0.24c0.007-0.054,0.015-0.108,0.022-0.162
				c0.012-0.087,0.023-0.175,0.034-0.262c0.006-0.046,0.012-0.092,0.018-0.138c0.011-0.089,0.022-0.177,0.033-0.266
				c0.006-0.05,0.012-0.099,0.018-0.149c0.01-0.085,0.02-0.17,0.03-0.255c0.006-0.05,0.012-0.1,0.017-0.15
				c0.011-0.098,0.022-0.196,0.033-0.294c0.004-0.037,0.008-0.074,0.012-0.111c0.013-0.121,0.026-0.242,0.038-0.364
				c0.002-0.015,0.003-0.029,0.005-0.043c0.028-0.275,0.054-0.551,0.079-0.828c0.003-0.039,0.007-0.079,0.01-0.118
				c0.008-0.096,0.017-0.191,0.025-0.287c0.004-0.053,0.008-0.105,0.013-0.158c0.007-0.085,0.014-0.171,0.02-0.256
				c0.004-0.057,0.009-0.114,0.013-0.171c0.006-0.077,0.011-0.154,0.017-0.231c0.005-0.068,0.009-0.136,0.014-0.204
				c0.005-0.069,0.009-0.137,0.014-0.206c0.004-0.066,0.008-0.133,0.012-0.199c0.005-0.075,0.009-0.15,0.014-0.225
				c0.003-0.057,0.007-0.114,0.01-0.171c0.005-0.083,0.009-0.167,0.013-0.25c0.003-0.054,0.006-0.109,0.008-0.164
				c0.004-0.084,0.008-0.168,0.012-0.252c0.003-0.056,0.005-0.111,0.007-0.167c0.004-0.084,0.007-0.168,0.01-0.252
				c0.002-0.053,0.004-0.106,0.006-0.159c0.003-0.087,0.006-0.173,0.009-0.26c0.002-0.055,0.004-0.11,0.005-0.165
				c0.002-0.08,0.005-0.161,0.007-0.241c0.002-0.059,0.003-0.118,0.005-0.177c0.002-0.09,0.004-0.179,0.006-0.269
				c0.001-0.046,0.002-0.093,0.003-0.14c0.002-0.097,0.003-0.194,0.005-0.291c0.001-0.044,0.001-0.089,0.002-0.133
				c0.001-0.083,0.002-0.166,0.002-0.248c0-0.06,0.001-0.119,0.002-0.179C179,142.024,179,141.887,179,141.75
				c0-0.137,0-0.274-0.001-0.411c0-0.06-0.001-0.12-0.002-0.179c-0.001-0.083-0.001-0.166-0.002-0.248
				c-0.001-0.044-0.001-0.089-0.002-0.133c-0.001-0.097-0.003-0.194-0.005-0.291c-0.001-0.047-0.002-0.093-0.003-0.14
				c-0.002-0.09-0.004-0.18-0.006-0.269c-0.001-0.059-0.003-0.118-0.005-0.177c-0.002-0.08-0.005-0.16-0.007-0.241
				c-0.002-0.055-0.003-0.11-0.005-0.165c-0.003-0.087-0.006-0.173-0.009-0.26c-0.002-0.053-0.004-0.106-0.006-0.159
				c-0.003-0.084-0.007-0.168-0.01-0.252c-0.002-0.056-0.005-0.111-0.007-0.167c-0.004-0.084-0.008-0.168-0.012-0.252
				c-0.003-0.055-0.005-0.109-0.008-0.164c-0.004-0.083-0.009-0.167-0.013-0.25c-0.003-0.057-0.006-0.114-0.01-0.171
				c-0.004-0.075-0.009-0.15-0.014-0.225c-0.004-0.066-0.008-0.132-0.012-0.199c-0.004-0.069-0.009-0.137-0.014-0.206
				c-0.005-0.068-0.009-0.136-0.014-0.204c-0.005-0.077-0.011-0.154-0.017-0.231c-0.004-0.057-0.008-0.114-0.013-0.171
				c-0.006-0.085-0.014-0.171-0.02-0.256c-0.004-0.053-0.008-0.106-0.013-0.158c-0.008-0.096-0.016-0.191-0.025-0.287
				c-0.004-0.039-0.007-0.079-0.01-0.118c-0.025-0.276-0.051-0.552-0.079-0.828c-0.001-0.014-0.003-0.029-0.005-0.043
				c-0.012-0.121-0.025-0.243-0.038-0.364c-0.004-0.037-0.008-0.074-0.012-0.111c-0.011-0.098-0.022-0.196-0.033-0.294
				c-0.006-0.05-0.012-0.1-0.017-0.15c-0.01-0.085-0.02-0.17-0.03-0.255c-0.006-0.05-0.012-0.099-0.018-0.149
				c-0.011-0.089-0.022-0.177-0.033-0.266c-0.006-0.046-0.012-0.092-0.018-0.138c-0.011-0.088-0.023-0.175-0.034-0.262
				c-0.007-0.054-0.015-0.108-0.022-0.162c-0.011-0.08-0.022-0.16-0.033-0.24c-0.008-0.055-0.015-0.109-0.023-0.164
				c-0.011-0.079-0.022-0.158-0.034-0.237c-0.009-0.058-0.017-0.117-0.026-0.175c-0.011-0.076-0.023-0.151-0.034-0.227
				c-0.009-0.057-0.017-0.114-0.026-0.17c-0.013-0.084-0.026-0.168-0.039-0.251c-0.007-0.047-0.015-0.095-0.022-0.142
				c-0.014-0.088-0.029-0.177-0.043-0.265c-0.008-0.047-0.015-0.094-0.023-0.141c-0.016-0.093-0.031-0.185-0.047-0.278
				c-0.007-0.039-0.013-0.078-0.02-0.117c-0.017-0.097-0.034-0.193-0.051-0.29c-0.007-0.039-0.014-0.078-0.021-0.117
				c-0.016-0.092-0.033-0.185-0.05-0.277c-0.008-0.042-0.015-0.084-0.023-0.126c-0.075-0.402-0.153-0.803-0.235-1.202
				c-0.004-0.02-0.008-0.039-0.012-0.059c-0.023-0.112-0.046-0.224-0.07-0.335c-0.008-0.036-0.016-0.072-0.023-0.108
				c-0.02-0.093-0.04-0.186-0.06-0.279c-0.011-0.049-0.022-0.099-0.032-0.148c-0.018-0.083-0.036-0.165-0.055-0.247
				c-0.011-0.049-0.022-0.099-0.033-0.148c-0.019-0.084-0.038-0.168-0.058-0.252c-0.01-0.045-0.021-0.089-0.031-0.134
				c-0.02-0.087-0.041-0.174-0.061-0.26c-0.011-0.045-0.021-0.091-0.032-0.136c-0.021-0.088-0.042-0.175-0.063-0.263
				c-0.01-0.042-0.021-0.084-0.031-0.126c-0.022-0.09-0.045-0.181-0.067-0.271c-0.01-0.04-0.02-0.08-0.03-0.119
				c-0.024-0.094-0.047-0.187-0.071-0.28c-0.01-0.038-0.019-0.075-0.029-0.112c-0.024-0.094-0.049-0.188-0.074-0.282
				c-0.009-0.035-0.018-0.07-0.027-0.104c-0.028-0.105-0.056-0.209-0.084-0.314c-0.007-0.024-0.013-0.048-0.02-0.072
				c-0.028-0.104-0.057-0.208-0.086-0.312c-0.008-0.028-0.015-0.055-0.023-0.083c-0.034-0.123-0.068-0.245-0.103-0.367l-0.004-0.015
				c-0.149-0.524-0.305-1.045-0.466-1.563c-0.005-0.017-0.01-0.033-0.016-0.049c-0.035-0.113-0.071-0.226-0.107-0.339
				c-0.005-0.016-0.01-0.033-0.016-0.049c-0.035-0.109-0.07-0.218-0.105-0.327c-0.009-0.028-0.018-0.056-0.027-0.084
				c-0.033-0.101-0.066-0.202-0.1-0.303c-0.008-0.024-0.016-0.048-0.024-0.072c-0.035-0.106-0.071-0.212-0.106-0.317
				c-0.007-0.021-0.015-0.042-0.022-0.064c-0.035-0.102-0.07-0.204-0.105-0.306c-0.01-0.029-0.02-0.058-0.03-0.088
				c-0.036-0.102-0.071-0.205-0.107-0.307c-0.007-0.021-0.014-0.041-0.022-0.062c-0.037-0.106-0.075-0.211-0.113-0.317
				c-0.008-0.023-0.017-0.046-0.025-0.07c-0.036-0.101-0.073-0.201-0.11-0.302c-0.01-0.026-0.019-0.052-0.029-0.079
				c-0.04-0.109-0.08-0.217-0.12-0.325c-0.005-0.014-0.011-0.029-0.016-0.043c-0.043-0.115-0.086-0.229-0.13-0.344
				c-0.004-0.011-0.009-0.023-0.013-0.034c-0.337-0.885-0.693-1.761-1.066-2.627c-0.002-0.005-0.005-0.011-0.007-0.016
				c-0.05-0.117-0.101-0.233-0.152-0.35c-0.005-0.011-0.01-0.023-0.015-0.034c-0.048-0.111-0.097-0.221-0.146-0.331
				c-0.006-0.014-0.012-0.027-0.018-0.041c-0.05-0.112-0.1-0.223-0.15-0.335c-0.004-0.009-0.008-0.018-0.012-0.027
				c-0.052-0.114-0.103-0.227-0.156-0.341c-0.004-0.008-0.008-0.017-0.011-0.025c-0.053-0.116-0.107-0.231-0.161-0.347
				c-0.003-0.006-0.005-0.011-0.008-0.017c-0.113-0.241-0.227-0.481-0.342-0.72c-0.001-0.002-0.002-0.005-0.003-0.007
				c-6.746-13.979-18.224-25.263-32.342-31.76c-0.001,0-0.001-0.001-0.002-0.001c-0.244-0.112-0.489-0.223-0.735-0.333
				c-0.002-0.001-0.004-0.002-0.006-0.002c-0.119-0.053-0.238-0.106-0.357-0.158c-0.007-0.003-0.014-0.006-0.022-0.01
				c-0.118-0.052-0.236-0.103-0.354-0.154c-0.004-0.002-0.009-0.004-0.013-0.006c-1.362-0.587-2.747-1.129-4.154-1.626
				c-0.013-0.004-0.025-0.009-0.038-0.013c-0.113-0.04-0.226-0.079-0.34-0.119c-0.018-0.006-0.036-0.012-0.054-0.019
				c-0.11-0.038-0.22-0.075-0.329-0.113c-0.018-0.006-0.036-0.012-0.054-0.018c-0.108-0.037-0.216-0.073-0.325-0.109
				c-0.021-0.007-0.043-0.014-0.064-0.021c-0.105-0.035-0.21-0.07-0.315-0.104c-0.025-0.008-0.05-0.017-0.076-0.025
				c-0.103-0.033-0.207-0.067-0.311-0.1c-0.024-0.008-0.047-0.015-0.071-0.023c-0.105-0.033-0.211-0.067-0.317-0.1
				c-0.024-0.008-0.048-0.015-0.073-0.023c-0.106-0.033-0.213-0.066-0.319-0.098c-0.022-0.007-0.043-0.013-0.065-0.02
				c-0.122-0.037-0.244-0.074-0.366-0.111c-0.005-0.001-0.01-0.003-0.015-0.004c-0.522-0.156-1.047-0.305-1.575-0.448
				c-0.013-0.004-0.027-0.007-0.041-0.011c-0.115-0.031-0.231-0.062-0.346-0.093c-0.028-0.007-0.056-0.014-0.083-0.022
				c-0.101-0.027-0.203-0.053-0.305-0.08c-0.037-0.01-0.073-0.019-0.11-0.028c-0.091-0.023-0.182-0.047-0.273-0.07
				c-0.047-0.012-0.094-0.023-0.14-0.035c-0.083-0.021-0.165-0.041-0.248-0.061c-0.048-0.012-0.096-0.023-0.143-0.035
				c-0.085-0.021-0.17-0.042-0.256-0.062c-0.046-0.011-0.093-0.022-0.139-0.033c-0.08-0.019-0.16-0.038-0.24-0.056
				c-0.056-0.013-0.112-0.026-0.168-0.039c-0.075-0.017-0.15-0.034-0.225-0.051c-0.055-0.012-0.11-0.025-0.165-0.037
				c-0.076-0.017-0.152-0.034-0.228-0.051c-0.057-0.012-0.115-0.025-0.172-0.038c-0.07-0.015-0.14-0.03-0.21-0.045
				c-0.063-0.013-0.125-0.027-0.188-0.04c-0.07-0.015-0.139-0.029-0.209-0.044c-0.062-0.013-0.124-0.026-0.186-0.039
				c-0.07-0.014-0.139-0.028-0.209-0.042c-0.062-0.012-0.123-0.025-0.185-0.037c-0.067-0.013-0.134-0.026-0.201-0.039
				c-0.068-0.013-0.135-0.027-0.203-0.04c-0.046-0.009-0.093-0.018-0.139-0.026c-0.313-0.059-0.628-0.117-0.943-0.172
				c-0.028-0.005-0.056-0.01-0.084-0.015c-0.085-0.015-0.171-0.029-0.257-0.043c-0.049-0.008-0.098-0.017-0.147-0.025
				c-0.08-0.013-0.159-0.026-0.239-0.039c-0.052-0.009-0.104-0.017-0.155-0.025c-0.086-0.014-0.172-0.028-0.259-0.041
				c-0.045-0.007-0.089-0.014-0.134-0.021c-0.092-0.014-0.184-0.028-0.277-0.042c-0.038-0.006-0.077-0.012-0.115-0.017
				c-0.091-0.013-0.181-0.027-0.272-0.04c-0.045-0.006-0.09-0.013-0.135-0.019c-0.087-0.012-0.175-0.025-0.262-0.037
				c-0.044-0.006-0.087-0.012-0.131-0.018c-0.092-0.012-0.184-0.025-0.276-0.037c-0.04-0.005-0.081-0.011-0.121-0.016
				c-0.091-0.012-0.183-0.024-0.275-0.035c-0.042-0.005-0.084-0.01-0.127-0.016c-0.095-0.012-0.189-0.023-0.284-0.035
				c-0.032-0.004-0.064-0.008-0.097-0.011c-0.1-0.012-0.201-0.023-0.302-0.035c-0.035-0.004-0.069-0.008-0.104-0.011
				c-0.099-0.011-0.199-0.022-0.298-0.033c-0.027-0.003-0.054-0.006-0.081-0.009c-0.11-0.011-0.22-0.023-0.331-0.034V59h269v244
				h-51.75c-4.143,0-7.5,3.357-7.5,7.5s3.357,7.5,7.5,7.5h84.605c2.285,0,4.145,1.859,4.145,4.145V333.959z M440,350.488v-28.344
				c0-10.557-8.588-19.145-19.145-19.145H403v-27h35.745C459.287,276,476,292.713,476,313.255
				C476,333.377,459.963,349.824,440,350.488z"/>
		</g>
	</g>
</g>
<g>
</g>
<g>
</g>
<g>
</g>
<g>
</g>
<g>
</g>
<g>
</g>
<g>
</g>
<g>
</g>
<g>
</g>
<g>
</g>
<g>
</g>
<g>
</g>
<g>
</g>
<g>
</g>
<g>
</g>
</svg>
