<?xml version="1.0" encoding="iso-8859-1"?>
<!-- Generator: Adobe Illustrator 19.0.0, SVG Export Plug-In . SVG Version: 6.00 Build 0)  -->
<svg version="1.1" id="Capa_1" xmlns="http://www.w3.org/2000/svg" xmlns:xlink="http://www.w3.org/1999/xlink" x="0px" y="0px"
	 viewBox="0 0 512 512" style="enable-background:new 0 0 512 512;" xml:space="preserve">
<g>
	<g>
		<g>
			<path d="M245.917,178.015v-18.79c0-4.143-3.358-7.5-7.5-7.5h-18.274v-8.788c6.247-2.856,10.599-9.165,10.599-16.47
				c0-9.979-8.119-18.098-18.099-18.098s-18.098,8.118-18.098,18.098c0,7.306,4.351,13.614,10.598,16.47v16.289
				c0,4.143,3.358,7.5,7.5,7.5h18.274v15.725c-14.696,7.358-24.81,22.563-24.81,40.087v7.229h-1.994
				c-13.581,0-25.069,9.132-28.647,21.578h-6.387V235.34c0-4.143-3.358-7.5-7.5-7.5h-18.306c-4.142,0-7.5,3.357-7.5,7.5
				s3.358,7.5,7.5,7.5h10.806v16.005c0,4.143,3.358,7.5,7.5,7.5h12.733v19.304h-33.93c-4.142,0-7.5,3.357-7.5,7.5s3.358,7.5,7.5,7.5
				h33.93v11.394c0,2.358,0.167,4.677,0.488,6.947h-13.222c-4.142,0-7.5,3.357-7.5,7.5v16.005h-10.806c-4.142,0-7.5,3.357-7.5,7.5
				s3.358,7.5,7.5,7.5h18.306c4.142,0,7.5-3.357,7.5-7.5V333.99h10.393c6.251,12.522,17.675,22.029,31.455,25.703
				c0.18,17.413,14.4,31.524,31.855,31.524h26.437c17.455,0,31.676-14.11,31.855-31.523c13.78-3.674,25.205-13.18,31.456-25.703
				h10.392v16.005c0,4.143,3.358,7.5,7.5,7.5h18.306c4.142,0,7.5-3.357,7.5-7.5s-3.358-7.5-7.5-7.5h-10.806v-16.005
				c0-4.143-3.358-7.5-7.5-7.5H337.2c0.321-2.27,0.488-4.589,0.488-6.946V300.65h33.93c4.142,0,7.5-3.357,7.5-7.5
				s-3.358-7.5-7.5-7.5h-33.93v-19.304h12.733c4.142,0,7.5-3.357,7.5-7.5V242.84h10.806c4.142,0,7.5-3.357,7.5-7.5
				s-3.358-7.5-7.5-7.5h-18.306c-4.142,0-7.5,3.357-7.5,7.5v16.005h-6.387c-3.578-12.446-15.066-21.578-28.647-21.578h-1.994v-7.229
				c0-17.524-10.114-32.729-24.81-40.087v-15.725h18.274c4.142,0,7.5-3.357,7.5-7.5v-16.289c6.247-2.856,10.598-9.165,10.598-16.47
				c0-9.979-8.119-18.098-18.098-18.098s-18.099,8.118-18.099,18.098c0,7.306,4.352,13.614,10.599,16.47v8.788h-18.274
				c-4.142,0-7.5,3.357-7.5,7.5v18.79c-1.638-0.182-3.302-0.277-4.988-0.277h-10.19
				C249.219,177.738,247.555,177.832,245.917,178.015z M212.643,129.565c-1.709,0-3.098-1.39-3.098-3.099
				c0-1.708,1.39-3.098,3.098-3.098s3.099,1.39,3.099,3.098C215.742,128.175,214.352,129.565,212.643,129.565z M299.357,123.368
				c1.708,0,3.098,1.39,3.098,3.098c0,1.709-1.39,3.099-3.098,3.099c-1.708,0-3.099-1.39-3.099-3.099
				C296.258,124.758,297.648,123.368,299.357,123.368z M189.312,312.042v-52.475c0-8.161,6.64-14.801,14.801-14.801h33.789v101.582
				h-14.284C204.702,346.349,189.312,330.959,189.312,312.042z M269.218,376.216h-26.437c-8.622,0-15.752-6.507-16.741-14.867
				h59.918C284.971,369.709,277.84,376.216,269.218,376.216z M307.887,244.767c8.162,0,14.801,6.639,14.801,14.8v52.476
				c0,18.916-15.39,34.306-34.306,34.306h-14.284V291.5c0-4.143-3.358-7.5-7.5-7.5c-4.142,0-7.5,3.357-7.5,7.5v54.849h-6.196
				V244.767h6.196V261.5c0,4.143,3.358,7.5,7.5,7.5c4.142,0,7.5-3.357,7.5-7.5v-16.733H307.887z M290.893,222.537v7.229h-69.786
				v-7.229c0-16.431,13.367-29.799,29.798-29.799h10.19C277.526,192.738,290.893,206.106,290.893,222.537z"/>
			<path d="M459,0c-25.771,0-47.265,18.666-51.673,43.188H379c-2.451,0-4.748,1.198-6.15,3.208l-35.916,51.468
				C312.614,85.484,285.107,78.5,256,78.5c-98.701,0-179,80.299-179,179c0,63.607,33.349,119.572,83.48,151.328l-31.392,44.984
				h-23.894C102.35,427.529,80.027,407,53,407c-28.949,0-52.5,23.552-52.5,52.5S24.051,512,53,512
				c25.771,0,47.265-18.666,51.673-43.188H133c2.451,0,4.748-1.198,6.15-3.208l34.376-49.261
				C198.222,429.218,226.276,436.5,256,436.5c98.701,0,179-80.299,179-179c0-64.221-33.996-120.651-84.937-152.24l32.849-47.072
				h23.894C409.65,84.471,431.973,105,459,105c28.949,0,52.5-23.552,52.5-52.5S487.949,0,459,0z M53,497
				c-20.678,0-37.5-16.822-37.5-37.5c0-20.678,16.822-37.5,37.5-37.5s37.5,16.822,37.5,37.5C90.5,480.178,73.678,497,53,497z
				 M420,257.5c0,90.43-73.57,164-164,164s-164-73.57-164-164s73.57-164,164-164S420,167.07,420,257.5z M459,90
				c-20.678,0-37.5-16.822-37.5-37.5S438.322,15,459,15c20.678,0,37.5,16.822,37.5,37.5S479.678,90,459,90z"/>
		</g>
	</g>
</g>
<g>
</g>
<g>
</g>
<g>
</g>
<g>
</g>
<g>
</g>
<g>
</g>
<g>
</g>
<g>
</g>
<g>
</g>
<g>
</g>
<g>
</g>
<g>
</g>
<g>
</g>
<g>
</g>
<g>
</g>
</svg>
