<?xml version="1.0" encoding="iso-8859-1"?>
<!-- Generator: Adobe Illustrator 19.0.0, SVG Export Plug-In . SVG Version: 6.00 Build 0)  -->
<svg version="1.1" id="Capa_1" xmlns="http://www.w3.org/2000/svg" xmlns:xlink="http://www.w3.org/1999/xlink" x="0px" y="0px"
	 viewBox="0 0 511.998 511.998" style="enable-background:new 0 0 511.998 511.998;" xml:space="preserve">
<g>
	<g>
		<g>
			<path d="M394.055,287.79c-4.141,0-7.497,3.355-7.497,7.496v21.292c0,14.694-11.955,26.65-26.65,26.65h-10.433
				c-4.141,0-7.497,3.355-7.497,7.497v41.541H223.234v-41.541c0-4.141-3.355-7.497-7.497-7.497h-10.433
				c-14.694,0-26.65-11.955-26.65-26.65v-9.298c0-4.141-3.355-7.497-7.497-7.497c-4.141,0-7.497,3.355-7.497,7.497v9.298
				c0,22.962,18.68,41.643,41.643,41.643h2.937v34.304c-11.088,1.675-19.615,11.269-19.615,22.816v81.238H172.05
				c-4.141,0-7.497,3.355-7.497,7.497s3.355,7.497,7.497,7.497h219.776c4.141,0,7.497-3.355,7.497-7.497s-3.355-7.497-7.497-7.497
				h-17.021v-81.238c0-10.921-7.625-20.094-17.832-22.475v-34.646h2.937c22.962,0,41.643-18.68,41.643-41.643v-21.292
				C401.551,291.147,398.196,287.79,394.055,287.79z M359.812,415.343v81.238H203.619v-81.238c0-4.457,3.626-8.083,8.084-8.083
				h140.024C356.185,407.26,359.812,410.886,359.812,415.343z"/>
			<path d="M495.854,194.072l-94.664-5.194c-1.715-10.149-9.371-18.305-19.253-20.757v-26.388c0-14.75-12-26.75-26.751-26.75
				h-12.312c-7.553,0-14.385,3.147-19.254,8.198c-4.869-5.051-11.701-8.198-19.254-8.198h-12.313c-7.9,0-15.011,3.442-19.913,8.907
				c-5.294-5.487-12.718-8.907-20.926-8.907h-7.65c-8.555,0-16.258,3.713-21.585,9.613c-5.327-5.899-13.03-9.613-21.585-9.613h-7.65
				c-16.036,0-29.081,13.046-29.081,29.081v31.451l-36.009-1.642c-6.849-0.379-13.638,2.113-18.62,6.83
				c-2.893,2.739-5.07,6.125-6.386,9.826H87.764l-28.591-20.754c-2.86-2.077-6.784-1.874-9.415,0.491l-47.273,42.48
				C0.904,214.168,0,216.196,0,218.323s0.904,4.154,2.486,5.575l47.273,42.48c1.417,1.274,3.212,1.921,5.012,1.921
				c1.539,0,3.085-0.473,4.403-1.43l28.591-20.754h14.882c1.317,3.702,3.493,7.089,6.386,9.826
				c4.656,4.408,10.887,6.871,17.217,6.871c0.444,0,0.891-0.013,1.334-0.037l36.079-1.645v16.165c0,4.141,3.355,7.497,7.497,7.497
				c4.141,0,7.497-3.355,7.497-7.497v-75.626c0.027,0.015,0.055,0.03,0.082,0.045c0.082,0.045,0.164,0.09,0.246,0.134
				c0.044,0.024,0.088,0.047,0.132,0.071c0.08,0.042,0.16,0.084,0.24,0.126c0.042,0.022,0.084,0.044,0.126,0.065
				c0.117,0.06,0.234,0.12,0.352,0.178c0.029,0.014,0.058,0.028,0.087,0.042c0.094,0.047,0.189,0.093,0.284,0.138
				c0.042,0.02,0.085,0.041,0.128,0.061c0.083,0.039,0.166,0.078,0.249,0.116c0.045,0.021,0.091,0.042,0.136,0.063
				c0.086,0.039,0.172,0.078,0.259,0.116c0.04,0.018,0.08,0.036,0.12,0.053c0.119,0.052,0.238,0.104,0.358,0.154
				c0.044,0.019,0.089,0.037,0.134,0.056c0.082,0.034,0.164,0.068,0.247,0.102l0.153,0.062c0.08,0.032,0.159,0.063,0.239,0.094
				c0.049,0.019,0.098,0.038,0.147,0.057c0.104,0.04,0.208,0.079,0.313,0.118c0.023,0.008,0.046,0.017,0.068,0.025
				c0.125,0.046,0.251,0.091,0.377,0.135c0.048,0.017,0.096,0.033,0.144,0.05c0.082,0.028,0.164,0.056,0.246,0.084
				c0.052,0.018,0.105,0.035,0.157,0.052c0.087,0.029,0.174,0.057,0.261,0.084c0.044,0.014,0.088,0.028,0.132,0.042
				c0.128,0.04,0.257,0.08,0.386,0.118c0.03,0.009,0.059,0.017,0.089,0.026c0.104,0.031,0.208,0.061,0.312,0.09
				c0.048,0.013,0.096,0.027,0.144,0.04c0.087,0.024,0.175,0.048,0.262,0.071c0.049,0.013,0.098,0.026,0.148,0.039
				c0.101,0.026,0.202,0.052,0.303,0.077c0.034,0.009,0.068,0.018,0.103,0.026c0.132,0.032,0.264,0.064,0.397,0.094
				c0.042,0.01,0.084,0.019,0.126,0.028c0.095,0.021,0.19,0.042,0.285,0.063c0.05,0.011,0.101,0.021,0.151,0.032
				c0.091,0.019,0.182,0.038,0.274,0.056c0.048,0.01,0.096,0.019,0.144,0.029c0.124,0.024,0.248,0.047,0.372,0.07
				c0.013,0.002,0.026,0.005,0.039,0.007c0.136,0.024,0.273,0.048,0.41,0.07c0.046,0.007,0.092,0.015,0.138,0.022
				c0.095,0.015,0.19,0.03,0.285,0.044c0.05,0.008,0.099,0.015,0.149,0.022c0.101,0.015,0.203,0.029,0.305,0.042
				c0.039,0.005,0.079,0.011,0.118,0.016c0.14,0.018,0.281,0.035,0.421,0.051c0.024,0.003,0.049,0.005,0.073,0.008
				c0.116,0.013,0.232,0.025,0.348,0.037c0.049,0.005,0.099,0.01,0.148,0.014c0.096,0.009,0.193,0.018,0.29,0.026
				c0.048,0.004,0.097,0.008,0.145,0.012c0.116,0.009,0.232,0.018,0.349,0.025c0.026,0.002,0.052,0.004,0.078,0.006
				c0.144,0.009,0.289,0.017,0.434,0.024c0.034,0.002,0.068,0.003,0.102,0.005c0.111,0.005,0.221,0.01,0.332,0.013
				c0.048,0.002,0.096,0.003,0.144,0.004c0.101,0.003,0.203,0.006,0.304,0.008c0.046,0.001,0.093,0.002,0.139,0.003
				c0.144,0.002,0.289,0.003,0.433,0.003h7.65c0.129,0,0.258-0.001,0.386-0.002c0.046-0.001,0.092-0.002,0.138-0.003
				c0.085-0.001,0.169-0.003,0.254-0.005c0.045-0.001,0.09-0.003,0.135-0.004c0.084-0.003,0.169-0.005,0.253-0.009
				c0.049-0.002,0.098-0.004,0.147-0.007c0.079-0.003,0.157-0.007,0.236-0.011c0.054-0.003,0.108-0.006,0.162-0.009
				c0.074-0.004,0.149-0.009,0.223-0.014c0.055-0.004,0.111-0.008,0.166-0.011c0.07-0.005,0.141-0.01,0.211-0.016
				c0.059-0.005,0.118-0.01,0.177-0.015c0.069-0.006,0.138-0.012,0.208-0.018c0.057-0.005,0.114-0.011,0.17-0.016
				c0.07-0.007,0.14-0.014,0.209-0.021c0.057-0.006,0.114-0.012,0.17-0.018c0.07-0.008,0.14-0.016,0.21-0.024
				c0.056-0.007,0.113-0.013,0.169-0.021c0.069-0.009,0.138-0.018,0.207-0.027c0.056-0.007,0.112-0.015,0.168-0.022
				c0.071-0.01,0.143-0.02,0.214-0.031c0.054-0.008,0.108-0.015,0.161-0.024c0.07-0.011,0.14-0.022,0.21-0.033
				c0.055-0.009,0.11-0.017,0.165-0.026c0.074-0.012,0.147-0.025,0.221-0.038c0.049-0.009,0.099-0.017,0.148-0.026
				c0.082-0.014,0.163-0.03,0.245-0.045c0.042-0.008,0.084-0.015,0.126-0.023c0.246-0.047,0.491-0.097,0.734-0.151
				c0.037-0.008,0.074-0.017,0.11-0.025c0.085-0.019,0.17-0.038,0.255-0.058c0.042-0.01,0.084-0.02,0.127-0.03
				c0.08-0.019,0.161-0.038,0.241-0.058c0.041-0.01,0.081-0.021,0.122-0.031c0.08-0.02,0.159-0.04,0.239-0.061
				c0.047-0.012,0.094-0.025,0.14-0.037c0.073-0.019,0.146-0.039,0.218-0.059c0.047-0.013,0.095-0.026,0.142-0.039
				c0.073-0.021,0.146-0.041,0.219-0.062c0.048-0.014,0.096-0.028,0.145-0.042c0.069-0.02,0.139-0.041,0.208-0.062
				c0.05-0.015,0.101-0.031,0.151-0.046c0.068-0.021,0.136-0.042,0.204-0.064c0.05-0.016,0.1-0.031,0.15-0.048
				c0.068-0.022,0.136-0.044,0.205-0.067c0.049-0.016,0.099-0.032,0.148-0.049c0.071-0.024,0.141-0.048,0.211-0.072
				c0.044-0.015,0.088-0.03,0.132-0.046c0.077-0.027,0.153-0.054,0.229-0.082c0.039-0.014,0.079-0.028,0.118-0.042
				c0.08-0.029,0.16-0.059,0.24-0.089c0.035-0.013,0.071-0.026,0.106-0.04c0.087-0.033,0.174-0.067,0.261-0.101
				c0.027-0.01,0.055-0.021,0.082-0.032c0.097-0.038,0.194-0.077,0.291-0.117c0.018-0.007,0.035-0.014,0.053-0.021
				c0.23-0.094,0.459-0.191,0.686-0.291c0.017-0.008,0.034-0.015,0.051-0.023c0.095-0.042,0.191-0.084,0.286-0.128
				c0.026-0.012,0.052-0.024,0.078-0.036c0.085-0.039,0.17-0.078,0.255-0.118c0.033-0.016,0.067-0.032,0.1-0.047
				c0.077-0.036,0.153-0.073,0.229-0.11c0.037-0.018,0.075-0.037,0.112-0.055c0.073-0.036,0.146-0.072,0.218-0.108
				c0.037-0.018,0.073-0.037,0.11-0.055c0.074-0.037,0.148-0.075,0.222-0.114c0.035-0.018,0.07-0.036,0.105-0.054
				c0.072-0.038,0.144-0.076,0.216-0.114c0.037-0.02,0.075-0.04,0.112-0.06c0.073-0.039,0.145-0.078,0.217-0.118
				c0.034-0.019,0.068-0.037,0.101-0.056c0.074-0.041,0.147-0.082,0.22-0.124c0.034-0.019,0.068-0.038,0.101-0.058
				c0.073-0.042,0.146-0.084,0.218-0.126c0.033-0.019,0.065-0.038,0.098-0.057c0.079-0.046,0.158-0.094,0.237-0.141
				c0.024-0.014,0.048-0.029,0.072-0.043c0.085-0.051,0.169-0.103,0.253-0.155c0.02-0.012,0.04-0.024,0.06-0.037
				c0.09-0.056,0.179-0.113,0.269-0.169c0.014-0.009,0.028-0.017,0.041-0.026c0.417-0.267,0.826-0.544,1.227-0.831
				c0.01-0.007,0.019-0.014,0.029-0.021c0.089-0.063,0.177-0.127,0.265-0.192c0.019-0.014,0.038-0.028,0.057-0.042
				c0.079-0.058,0.158-0.117,0.237-0.176c0.022-0.016,0.043-0.033,0.065-0.049c0.075-0.057,0.151-0.115,0.226-0.172
				c0.022-0.017,0.044-0.034,0.066-0.051c0.076-0.059,0.151-0.118,0.226-0.177c0.021-0.017,0.042-0.033,0.063-0.05
				c0.075-0.06,0.149-0.119,0.223-0.179c0.021-0.018,0.043-0.035,0.064-0.052c0.073-0.059,0.145-0.119,0.217-0.179
				c0.023-0.02,0.047-0.039,0.07-0.058c0.071-0.059,0.141-0.119,0.211-0.179c0.022-0.019,0.044-0.038,0.066-0.056
				c0.078-0.067,0.155-0.134,0.232-0.202c0.012-0.01,0.024-0.021,0.035-0.031c0.085-0.075,0.17-0.151,0.254-0.227
				c0.006-0.005,0.012-0.01,0.018-0.016c0.736-0.665,1.436-1.366,2.101-2.103c0.665,0.736,1.365,1.437,2.101,2.103
				c0.006,0.005,0.012,0.011,0.018,0.016c0.084,0.076,0.169,0.152,0.254,0.227c0.012,0.01,0.024,0.021,0.035,0.031
				c0.077,0.068,0.154,0.135,0.232,0.202c0.022,0.019,0.044,0.038,0.066,0.056c0.07,0.06,0.141,0.12,0.211,0.179
				c0.023,0.02,0.047,0.039,0.07,0.058c0.072,0.06,0.144,0.12,0.217,0.179c0.021,0.018,0.043,0.035,0.064,0.052
				c0.074,0.06,0.148,0.12,0.223,0.179c0.021,0.017,0.042,0.033,0.063,0.05c0.075,0.06,0.15,0.118,0.226,0.177
				c0.022,0.017,0.044,0.034,0.066,0.051c0.075,0.058,0.15,0.115,0.226,0.172c0.022,0.016,0.043,0.033,0.065,0.049
				c0.081,0.061,0.163,0.122,0.246,0.183c0.015,0.011,0.031,0.023,0.046,0.034c0.089,0.065,0.179,0.13,0.269,0.195l0.027,0.02
				c0.402,0.287,0.811,0.564,1.227,0.831c0.014,0.009,0.027,0.017,0.041,0.026c0.089,0.057,0.179,0.114,0.269,0.169
				c0.02,0.013,0.04,0.025,0.06,0.037c0.084,0.052,0.168,0.104,0.253,0.155c0.024,0.015,0.048,0.029,0.072,0.043
				c0.079,0.047,0.158,0.094,0.237,0.141c0.032,0.019,0.065,0.038,0.098,0.057c0.073,0.042,0.145,0.084,0.218,0.126
				c0.034,0.019,0.068,0.038,0.101,0.058c0.073,0.042,0.147,0.083,0.22,0.124c0.034,0.019,0.068,0.037,0.101,0.056
				c0.072,0.04,0.144,0.079,0.217,0.118c0.037,0.02,0.075,0.04,0.112,0.06c0.072,0.038,0.144,0.076,0.216,0.114
				c0.035,0.018,0.07,0.036,0.105,0.054c0.074,0.038,0.148,0.076,0.222,0.114c0.037,0.019,0.073,0.037,0.11,0.055
				c0.073,0.037,0.145,0.072,0.218,0.108c0.037,0.018,0.075,0.037,0.112,0.055c0.076,0.037,0.153,0.073,0.229,0.11
				c0.033,0.016,0.066,0.032,0.1,0.047c0.085,0.04,0.17,0.079,0.255,0.118c0.026,0.012,0.052,0.024,0.078,0.036
				c0.095,0.043,0.19,0.086,0.286,0.128c0.017,0.008,0.034,0.015,0.051,0.023c0.227,0.1,0.456,0.197,0.686,0.291
				c0.018,0.007,0.036,0.014,0.053,0.021c0.097,0.039,0.194,0.078,0.291,0.117c0.027,0.01,0.055,0.021,0.082,0.032
				c0.087,0.034,0.174,0.068,0.261,0.101c0.035,0.013,0.071,0.026,0.106,0.04c0.08,0.03,0.16,0.06,0.24,0.089
				c0.039,0.014,0.079,0.028,0.118,0.042c0.076,0.028,0.153,0.055,0.229,0.082c0.044,0.015,0.088,0.031,0.132,0.046
				c0.07,0.024,0.141,0.048,0.211,0.072c0.049,0.017,0.098,0.033,0.148,0.049c0.068,0.022,0.136,0.045,0.205,0.067
				c0.05,0.016,0.1,0.032,0.15,0.048c0.068,0.021,0.136,0.043,0.204,0.064c0.05,0.015,0.101,0.031,0.151,0.046
				c0.069,0.021,0.139,0.042,0.208,0.062c0.048,0.014,0.096,0.028,0.145,0.042c0.073,0.021,0.146,0.042,0.219,0.062
				c0.047,0.013,0.095,0.026,0.142,0.039c0.073,0.02,0.145,0.039,0.218,0.059c0.047,0.012,0.093,0.025,0.14,0.037
				c0.08,0.021,0.159,0.041,0.239,0.061c0.041,0.01,0.081,0.021,0.122,0.031c0.08,0.02,0.161,0.039,0.241,0.058
				c0.042,0.01,0.084,0.02,0.127,0.03c0.087,0.021,0.175,0.04,0.262,0.06c0.034,0.007,0.068,0.015,0.102,0.023
				c0.244,0.053,0.489,0.104,0.735,0.151c0.042,0.008,0.084,0.016,0.126,0.023c0.082,0.015,0.163,0.031,0.245,0.045
				c0.049,0.009,0.098,0.017,0.148,0.026c0.074,0.013,0.147,0.026,0.221,0.038c0.055,0.009,0.11,0.018,0.165,0.026
				c0.07,0.011,0.14,0.022,0.21,0.033c0.054,0.008,0.108,0.016,0.161,0.024c0.071,0.01,0.143,0.021,0.214,0.031
				c0.056,0.008,0.112,0.015,0.168,0.022c0.069,0.009,0.138,0.018,0.207,0.027c0.056,0.007,0.113,0.014,0.169,0.021
				c0.07,0.008,0.14,0.017,0.21,0.024c0.057,0.006,0.114,0.012,0.17,0.018c0.07,0.007,0.14,0.014,0.209,0.021
				c0.057,0.006,0.113,0.011,0.17,0.016c0.069,0.006,0.138,0.012,0.208,0.018c0.059,0.005,0.118,0.01,0.177,0.015
				c0.07,0.006,0.141,0.011,0.211,0.016c0.055,0.004,0.111,0.008,0.166,0.011c0.074,0.005,0.149,0.009,0.223,0.014
				c0.054,0.003,0.108,0.006,0.162,0.009c0.078,0.004,0.157,0.008,0.236,0.011c0.049,0.002,0.098,0.005,0.147,0.007
				c0.084,0.003,0.169,0.006,0.253,0.009c0.045,0.001,0.09,0.003,0.135,0.004c0.084,0.002,0.169,0.004,0.254,0.005
				c0.046,0.001,0.092,0.002,0.138,0.003c0.129,0.001,0.257,0.002,0.386,0.002h7.65c0.127,0,0.254-0.001,0.38-0.002
				c0.044,0,0.088-0.002,0.132-0.002c0.082-0.001,0.165-0.003,0.247-0.005c0.052-0.001,0.104-0.003,0.157-0.005
				c0.074-0.002,0.148-0.004,0.221-0.007c0.049-0.002,0.097-0.004,0.146-0.007c0.079-0.003,0.157-0.007,0.236-0.011
				c0.045-0.002,0.09-0.005,0.135-0.008c0.079-0.004,0.157-0.009,0.236-0.014c0.055-0.004,0.11-0.008,0.165-0.012
				c0.07-0.005,0.14-0.01,0.21-0.015c0.055-0.004,0.111-0.009,0.166-0.014c0.068-0.006,0.137-0.011,0.205-0.017
				c0.057-0.005,0.114-0.011,0.172-0.016c0.068-0.007,0.136-0.013,0.204-0.02c0.05-0.005,0.1-0.011,0.15-0.016
				c0.075-0.008,0.15-0.016,0.225-0.025c0.049-0.006,0.097-0.012,0.146-0.018c0.073-0.009,0.146-0.018,0.219-0.027
				c0.053-0.007,0.106-0.014,0.158-0.021c0.07-0.01,0.141-0.019,0.211-0.029c0.052-0.007,0.104-0.015,0.155-0.023
				c0.07-0.01,0.141-0.021,0.211-0.032c0.051-0.008,0.102-0.016,0.153-0.024c0.071-0.012,0.143-0.023,0.214-0.035
				c0.049-0.008,0.098-0.017,0.147-0.025c0.074-0.013,0.148-0.026,0.221-0.039c0.045-0.008,0.091-0.017,0.136-0.025
				c0.076-0.014,0.152-0.029,0.228-0.043c0.044-0.009,0.089-0.017,0.133-0.026c0.075-0.015,0.151-0.03,0.226-0.046
				c0.046-0.01,0.092-0.02,0.138-0.029c0.074-0.016,0.148-0.032,0.222-0.048c0.044-0.01,0.088-0.02,0.133-0.03
				c0.077-0.017,0.153-0.035,0.23-0.053c0.041-0.01,0.081-0.019,0.122-0.029c0.08-0.019,0.16-0.039,0.24-0.059
				c0.036-0.009,0.073-0.018,0.109-0.027c0.081-0.021,0.163-0.042,0.244-0.063c0.039-0.01,0.077-0.021,0.116-0.031
				c0.079-0.021,0.159-0.042,0.238-0.064c0.036-0.01,0.072-0.02,0.108-0.03c0.086-0.024,0.171-0.048,0.256-0.073
				c0.029-0.008,0.058-0.017,0.087-0.025c0.086-0.025,0.172-0.051,0.258-0.077c0.031-0.009,0.063-0.019,0.094-0.029
				c0.089-0.027,0.177-0.055,0.265-0.083c0.025-0.008,0.05-0.016,0.075-0.024c0.091-0.029,0.181-0.059,0.271-0.089
				c0.026-0.008,0.051-0.017,0.077-0.025c0.092-0.031,0.184-0.063,0.276-0.094c0.021-0.007,0.042-0.014,0.062-0.021
				c0.097-0.034,0.194-0.068,0.29-0.103l0.049-0.018c0.1-0.036,0.2-0.073,0.299-0.111c0.013-0.005,0.026-0.01,0.039-0.014
				c0.104-0.039,0.207-0.079,0.31-0.119c0.009-0.003,0.017-0.007,0.025-0.01c3.952-1.547,7.486-3.936,10.38-6.945
				c0.055,0.062,0.112,0.122,0.168,0.183c0.014,0.015,0.028,0.031,0.042,0.046c0.062,0.067,0.124,0.134,0.186,0.201
				c0.022,0.023,0.043,0.046,0.065,0.069c0.108,0.115,0.217,0.228,0.327,0.34c0.026,0.027,0.052,0.053,0.078,0.08
				c0.055,0.055,0.11,0.11,0.165,0.165c0.037,0.037,0.075,0.074,0.112,0.111c0.052,0.052,0.104,0.103,0.157,0.154
				c0.07,0.068,0.14,0.135,0.21,0.201c0.059,0.056,0.118,0.111,0.177,0.166c0.045,0.042,0.091,0.085,0.136,0.127
				c0.05,0.046,0.1,0.092,0.15,0.137c0.057,0.051,0.114,0.102,0.171,0.153c0.063,0.056,0.126,0.112,0.19,0.168
				c0.063,0.056,0.127,0.111,0.191,0.166c0.044,0.038,0.088,0.075,0.132,0.112c0.064,0.054,0.127,0.107,0.191,0.16
				c0.037,0.031,0.074,0.062,0.111,0.092c0.095,0.078,0.19,0.155,0.286,0.232c0.038,0.03,0.075,0.06,0.113,0.089
				c0.069,0.054,0.138,0.108,0.207,0.162c0.038,0.03,0.076,0.059,0.115,0.089c0.1,0.077,0.2,0.153,0.301,0.228
				c0.027,0.02,0.054,0.04,0.081,0.06c0.081,0.06,0.162,0.119,0.243,0.178c0.039,0.028,0.077,0.056,0.116,0.083
				c0.081,0.058,0.162,0.115,0.244,0.172c0.029,0.02,0.057,0.04,0.086,0.06c0.104,0.072,0.209,0.144,0.315,0.214
				c0.036,0.024,0.071,0.048,0.107,0.071c0.08,0.054,0.161,0.107,0.242,0.159c0.035,0.023,0.071,0.046,0.106,0.069
				c0.107,0.069,0.214,0.137,0.323,0.204c0.031,0.02,0.063,0.039,0.095,0.058c0.084,0.052,0.168,0.103,0.252,0.154
				c0.04,0.024,0.08,0.048,0.12,0.072c0.104,0.062,0.208,0.123,0.312,0.183c0.018,0.01,0.036,0.021,0.053,0.031
				c0.105,0.06,0.21,0.119,0.315,0.178c0.04,0.022,0.08,0.044,0.12,0.066c0.086,0.047,0.173,0.094,0.26,0.141
				c0.033,0.018,0.066,0.036,0.1,0.053c0.114,0.06,0.228,0.12,0.342,0.178c0.037,0.019,0.074,0.037,0.11,0.056
				c0.084,0.042,0.169,0.085,0.254,0.126c0.042,0.021,0.084,0.041,0.125,0.062c0.115,0.056,0.229,0.111,0.345,0.165
				c0.031,0.015,0.063,0.029,0.094,0.043c0.09,0.042,0.181,0.083,0.272,0.124c0.046,0.021,0.092,0.041,0.138,0.062
				c0.091,0.041,0.183,0.081,0.275,0.12l0.093,0.04c0.117,0.05,0.235,0.098,0.353,0.147c0.046,0.019,0.091,0.037,0.137,0.055
				c0.081,0.032,0.162,0.064,0.244,0.096c0.047,0.019,0.095,0.037,0.143,0.056c0.115,0.044,0.231,0.088,0.348,0.131
				c0.045,0.017,0.091,0.033,0.136,0.049c0.081,0.029,0.162,0.059,0.244,0.087c0.053,0.019,0.105,0.037,0.158,0.055
				c0.093,0.032,0.187,0.063,0.281,0.094c0.061,0.02,0.122,0.04,0.183,0.06c0.089,0.029,0.178,0.057,0.268,0.085
				c0.025,0.008,0.05,0.016,0.076,0.024v5.862c0,14.75,12,26.751,26.751,26.751h14.931v23.932c0,1.989,0.769,3.874,2.176,5.281
				c0.578,0.595,3.985,4.45,6.812,7.68c1.481,1.694,3.558,2.561,5.644,2.561c1.752,0,3.511-0.61,4.934-1.854
				c3.116-2.727,3.432-7.463,0.706-10.578c-1.478-1.69-3.631-4.143-5.279-5.988v-21.032h11.227c4.141,0,7.497-3.355,7.497-7.497
				c0-4.141-3.355-7.497-7.497-7.497h-41.152c-6.483,0-11.758-5.273-11.758-11.758v-15.88c0-6.483,5.274-11.758,11.758-11.758
				h64.717c5.978,0,10.843,4.864,10.843,10.843v72.102c0,4.141,3.355,7.497,7.497,7.497c4.141,0,7.497-3.355,7.497-7.497v-17.554
				l94.302-5.174c9.055-0.497,16.146-7.989,16.146-17.057v-14.388C512,202.061,504.908,194.569,495.854,194.072z M100.896,231.123
				H85.329c-1.582,0-3.124,0.501-4.404,1.43l-25.654,18.623L27.054,225.82h21.188c2.753,5.466,8.418,9.225,14.945,9.225
				c9.222,0,16.722-7.502,16.722-16.721s-7.502-16.721-16.722-16.721c-6.527,0-12.192,3.758-14.945,9.225H27.054l28.217-25.356
				l25.654,18.623c1.28,0.93,2.822,1.43,4.404,1.43h15.567V231.123z M61.458,218.323c0-0.954,0.775-1.728,1.728-1.728
				s1.729,0.775,1.729,1.728s-0.776,1.728-1.729,1.728S61.458,219.276,61.458,218.323z M163.162,246.144l-36.332,1.658
				c-2.785,0.149-5.456-0.822-7.492-2.749c-2.034-1.926-3.155-4.529-3.155-7.331v-38.801c0-2.802,1.12-5.404,3.155-7.33
				c1.893-1.792,4.327-2.762,6.965-2.762c0.198,0,0.396,0.006,0.597,0.017l36.262,1.654V246.144z M214.484,176.233h-0.002
				c0,5.583-3.265,10.419-7.986,12.698c-0.103,0.05-0.206,0.098-0.31,0.145c-0.26,0.118-0.524,0.228-0.792,0.33
				c-1.554,0.592-3.24,0.917-5,0.917h-7.65c-1.76,0-3.445-0.325-5-0.917c-0.268-0.102-0.532-0.212-0.792-0.33
				c-0.104-0.047-0.208-0.095-0.31-0.145c-4.721-2.278-7.986-7.114-7.986-12.698v-32.169c0-7.767,6.32-14.088,14.089-14.088h7.65
				c7.767,0,14.088,6.32,14.088,14.088V176.233z M265.305,176.156L265.305,176.156c-0.001,0.026-0.002,0.052-0.002,0.077
				c0,7.708-6.222,13.99-13.906,14.087c-0.061,0.001-0.121,0.001-0.182,0.001h-7.65c-1.76,0-3.445-0.325-5-0.917
				c-0.268-0.102-0.532-0.212-0.792-0.33c-0.104-0.047-0.208-0.095-0.31-0.145c-4.721-2.278-7.986-7.114-7.986-12.698v-32.169
				c0-7.767,6.32-14.088,14.088-14.088h7.65c7.768,0,14.089,6.32,14.089,14.088V176.156z M316.127,167.363h-0.003h-5.125
				c-0.108,0-0.217,0.001-0.325,0.002c-0.033,0-0.066,0.001-0.099,0.002c-0.073,0.001-0.146,0.002-0.219,0.004
				c-0.043,0.001-0.087,0.002-0.13,0.003c-0.065,0.002-0.129,0.004-0.193,0.006c-0.044,0.001-0.087,0.003-0.131,0.005
				c-0.068,0.003-0.135,0.006-0.203,0.009c-0.038,0.002-0.076,0.004-0.114,0.006c-0.074,0.004-0.148,0.008-0.221,0.013
				c-0.034,0.002-0.069,0.004-0.103,0.006c-0.106,0.007-0.211,0.014-0.316,0.022c-0.007,0-0.014,0.001-0.021,0.002
				c-0.098,0.008-0.196,0.016-0.294,0.024c-0.037,0.003-0.074,0.007-0.11,0.01c-0.069,0.006-0.138,0.013-0.207,0.02
				c-0.042,0.004-0.083,0.009-0.125,0.013c-0.065,0.007-0.13,0.014-0.194,0.021c-0.04,0.004-0.081,0.009-0.121,0.014
				c-0.067,0.008-0.133,0.016-0.199,0.024c-0.04,0.005-0.079,0.01-0.119,0.015c-0.074,0.01-0.148,0.02-0.222,0.03
				c-0.029,0.004-0.058,0.008-0.088,0.012c-0.105,0.015-0.21,0.03-0.315,0.046c-0.003,0-0.005,0.001-0.008,0.001
				c-0.099,0.015-0.198,0.031-0.297,0.047c-0.036,0.006-0.072,0.012-0.108,0.019c-0.068,0.011-0.136,0.023-0.204,0.035
				c-0.038,0.007-0.076,0.014-0.114,0.021c-0.066,0.012-0.131,0.024-0.197,0.036c-0.039,0.007-0.077,0.015-0.116,0.022
				c-0.065,0.013-0.13,0.026-0.194,0.039c-0.039,0.008-0.078,0.016-0.117,0.024c-0.073,0.015-0.147,0.031-0.22,0.047
				c-0.027,0.006-0.054,0.011-0.08,0.017c-0.102,0.022-0.203,0.045-0.304,0.068c-0.019,0.004-0.038,0.009-0.057,0.013
				c-0.082,0.019-0.164,0.039-0.246,0.058c-0.036,0.009-0.071,0.018-0.106,0.027c-0.065,0.016-0.131,0.032-0.196,0.049
				c-0.038,0.01-0.076,0.02-0.114,0.03c-0.062,0.016-0.123,0.032-0.185,0.049c-0.041,0.011-0.081,0.022-0.122,0.033
				c-0.063,0.017-0.125,0.035-0.188,0.052c-0.036,0.01-0.072,0.02-0.108,0.031c-0.075,0.021-0.151,0.043-0.226,0.066
				c-0.023,0.007-0.046,0.013-0.068,0.02c-0.1,0.03-0.2,0.061-0.3,0.092c-0.01,0.003-0.021,0.007-0.031,0.01
				c-0.087,0.027-0.174,0.055-0.26,0.083c-0.033,0.011-0.066,0.022-0.098,0.032c-0.065,0.021-0.13,0.043-0.195,0.065
				c-0.036,0.012-0.072,0.024-0.107,0.037c-0.062,0.021-0.124,0.042-0.186,0.064c-0.036,0.013-0.073,0.026-0.109,0.039
				c-0.062,0.022-0.125,0.045-0.187,0.067c-0.035,0.013-0.069,0.025-0.104,0.038c-0.068,0.025-0.135,0.05-0.203,0.076
				c-0.029,0.011-0.057,0.021-0.086,0.032c-0.095,0.036-0.19,0.073-0.284,0.11c-0.018,0.007-0.036,0.014-0.054,0.021
				c-0.076,0.03-0.151,0.06-0.227,0.091c-0.035,0.014-0.069,0.029-0.104,0.043c-0.06,0.025-0.12,0.05-0.18,0.075
				c-0.038,0.016-0.075,0.032-0.113,0.048c-0.056,0.024-0.112,0.048-0.168,0.073c-0.038,0.017-0.077,0.033-0.115,0.05
				c-0.057,0.025-0.113,0.05-0.17,0.075c-0.036,0.016-0.072,0.032-0.108,0.049c-0.067,0.031-0.134,0.062-0.201,0.093
				c-0.025,0.011-0.05,0.023-0.075,0.035c-0.09,0.042-0.179,0.084-0.268,0.127c-0.03,0.014-0.059,0.029-0.089,0.043
				c-0.063,0.031-0.126,0.061-0.188,0.092c-0.032,0.016-0.065,0.032-0.097,0.049c-0.058,0.029-0.116,0.058-0.173,0.087l-0.11,0.056
				c-0.054,0.028-0.108,0.056-0.162,0.085c-0.035,0.019-0.071,0.037-0.106,0.056c-0.058,0.031-0.116,0.062-0.174,0.093
				c-0.032,0.017-0.064,0.034-0.095,0.052c-0.06,0.033-0.12,0.066-0.179,0.099c-0.03,0.017-0.06,0.033-0.09,0.05
				c-0.086,0.048-0.171,0.096-0.256,0.145c-0.027,0.016-0.054,0.031-0.081,0.047c-0.06,0.034-0.119,0.069-0.178,0.104
				c-0.036,0.021-0.073,0.043-0.109,0.065c-0.05,0.03-0.1,0.06-0.15,0.09c-0.037,0.022-0.074,0.045-0.11,0.067
				c-0.051,0.031-0.102,0.063-0.152,0.094c-0.036,0.022-0.072,0.045-0.108,0.067c-0.049,0.031-0.098,0.062-0.146,0.093
				c-0.036,0.023-0.072,0.046-0.108,0.069c-0.06,0.039-0.119,0.077-0.178,0.116c-0.024,0.016-0.049,0.031-0.073,0.047
				c-0.08,0.053-0.16,0.106-0.24,0.16c-0.037,0.025-0.074,0.05-0.111,0.076c-0.047,0.032-0.093,0.063-0.139,0.095
				c-0.037,0.026-0.074,0.051-0.11,0.077c-0.046,0.032-0.091,0.064-0.137,0.096c-0.037,0.026-0.075,0.053-0.112,0.08
				c-0.045,0.032-0.09,0.065-0.135,0.098c-0.036,0.026-0.073,0.053-0.109,0.079c-0.046,0.034-0.092,0.068-0.138,0.102
				c-0.034,0.025-0.069,0.051-0.103,0.076c-0.053,0.04-0.106,0.08-0.158,0.12c-0.027,0.021-0.055,0.042-0.083,0.063
				c-0.076,0.058-0.151,0.117-0.226,0.176c-0.033,0.026-0.067,0.053-0.1,0.08c-0.045,0.035-0.09,0.071-0.135,0.107
				c-0.036,0.03-0.073,0.059-0.109,0.089c-0.04,0.032-0.08,0.065-0.12,0.098c-0.04,0.032-0.079,0.065-0.118,0.098
				c-0.037,0.03-0.073,0.061-0.11,0.092c-0.039,0.033-0.078,0.066-0.117,0.099c-0.04,0.034-0.079,0.068-0.119,0.102
				c-0.035,0.03-0.07,0.06-0.105,0.091c-0.048,0.042-0.095,0.083-0.143,0.125c-0.039,0.034-0.077,0.068-0.116,0.102
				c-0.06,0.053-0.12,0.107-0.179,0.161c-0.034,0.031-0.067,0.061-0.101,0.092c-0.039,0.036-0.079,0.072-0.118,0.108
				c-0.036,0.033-0.071,0.066-0.107,0.1c-0.038,0.036-0.076,0.072-0.114,0.108c-0.035,0.033-0.069,0.066-0.104,0.099
				c-0.036,0.035-0.073,0.07-0.109,0.105c-0.037,0.036-0.074,0.072-0.11,0.107c-0.034,0.033-0.067,0.066-0.101,0.1
				c-0.037,0.037-0.075,0.074-0.112,0.111c-0.034,0.034-0.068,0.069-0.102,0.103c-0.061,0.062-0.122,0.125-0.183,0.188
				c-0.039,0.041-0.079,0.081-0.118,0.122c-0.033,0.035-0.067,0.07-0.1,0.105c-0.035,0.037-0.071,0.074-0.105,0.112
				c-0.033,0.035-0.066,0.071-0.099,0.106c-0.036,0.039-0.072,0.078-0.108,0.117c-0.032,0.035-0.064,0.07-0.096,0.105
				c-0.034,0.038-0.068,0.076-0.102,0.114c-0.034,0.038-0.067,0.075-0.101,0.113c-0.032,0.036-0.064,0.073-0.096,0.109
				c-0.034,0.038-0.067,0.077-0.101,0.115c-0.033,0.038-0.065,0.076-0.098,0.115c-0.063,0.073-0.125,0.148-0.188,0.222
				c-0.028,0.034-0.057,0.068-0.085,0.102c-0.035,0.043-0.07,0.085-0.105,0.128l-0.083,0.103c-0.035,0.043-0.07,0.087-0.104,0.13
				c-0.027,0.033-0.054,0.067-0.08,0.101c-0.034,0.042-0.067,0.085-0.101,0.128c-0.03,0.038-0.059,0.076-0.089,0.115
				c-0.031,0.04-0.062,0.08-0.092,0.12c-0.031,0.04-0.061,0.08-0.091,0.12s-0.06,0.08-0.09,0.12
				c-0.027,0.036-0.054,0.073-0.081,0.109c-0.066,0.089-0.131,0.178-0.196,0.268c-0.02,0.028-0.041,0.057-0.061,0.085
				c-0.033,0.046-0.066,0.093-0.099,0.139c-0.025,0.035-0.05,0.071-0.075,0.106c-0.032,0.045-0.063,0.091-0.094,0.136
				c-0.024,0.036-0.049,0.071-0.073,0.107c-0.032,0.047-0.064,0.095-0.096,0.142c-0.023,0.035-0.047,0.069-0.07,0.104
				c-0.031,0.047-0.062,0.094-0.093,0.141c-0.023,0.035-0.046,0.071-0.069,0.106c-0.032,0.049-0.064,0.099-0.096,0.148
				c-0.01,0.016-0.02,0.032-0.03,0.048c-0.076,0.119-0.151,0.239-0.225,0.36c-0.015,0.023-0.029,0.047-0.044,0.071
				c-0.031,0.051-0.062,0.102-0.093,0.154c-0.021,0.035-0.043,0.071-0.064,0.106c-0.029,0.049-0.058,0.099-0.087,0.148
				c-0.021,0.036-0.042,0.072-0.063,0.108c-0.029,0.049-0.057,0.099-0.086,0.149c-0.021,0.036-0.041,0.072-0.061,0.108
				c-0.029,0.052-0.059,0.104-0.088,0.156c-0.017,0.031-0.034,0.062-0.051,0.093c-0.031,0.055-0.062,0.111-0.092,0.167l-0.029,0.055
				c-0.063,0.116-0.125,0.234-0.186,0.351c-0.017,0.032-0.034,0.065-0.051,0.098c-0.026,0.051-0.052,0.102-0.078,0.153
				c-0.02,0.04-0.04,0.079-0.06,0.119c-0.024,0.049-0.048,0.098-0.073,0.146c-0.02,0.04-0.04,0.081-0.059,0.121
				c-0.025,0.051-0.049,0.101-0.073,0.152c-0.019,0.041-0.039,0.081-0.058,0.122c-0.024,0.05-0.047,0.1-0.07,0.149
				c-0.017,0.037-0.034,0.074-0.051,0.111c-0.089,0.194-0.176,0.39-0.261,0.586c-0.015,0.035-0.03,0.07-0.045,0.106
				c-0.022,0.052-0.044,0.104-0.066,0.156c-0.017,0.041-0.034,0.082-0.051,0.122c-0.021,0.052-0.043,0.104-0.064,0.157
				c-0.016,0.041-0.033,0.081-0.049,0.122c-0.021,0.054-0.043,0.108-0.064,0.162c-0.014,0.037-0.029,0.074-0.043,0.11
				c-0.022,0.058-0.044,0.115-0.066,0.173c-0.014,0.037-0.028,0.074-0.041,0.111c-0.021,0.055-0.042,0.111-0.062,0.166
				c-0.018,0.048-0.035,0.097-0.052,0.146c-0.035,0.096-0.068,0.192-0.102,0.288c-0.013,0.038-0.026,0.076-0.039,0.114
				c-0.02,0.058-0.039,0.117-0.059,0.175c-0.012,0.037-0.025,0.073-0.037,0.11c-0.018,0.055-0.036,0.111-0.054,0.167
				c-0.014,0.044-0.028,0.088-0.042,0.132c-0.016,0.052-0.033,0.104-0.049,0.156c-0.014,0.045-0.027,0.089-0.041,0.134
				c-0.016,0.053-0.032,0.106-0.048,0.159c-0.014,0.047-0.027,0.094-0.041,0.142c-0.014,0.05-0.029,0.099-0.043,0.149
				c-0.026,0.092-0.052,0.184-0.077,0.276c-0.015,0.055-0.03,0.111-0.044,0.166c-0.011,0.042-0.023,0.085-0.034,0.127
				c-0.014,0.055-0.028,0.111-0.042,0.166c-0.011,0.043-0.022,0.087-0.033,0.131c-0.014,0.056-0.027,0.112-0.041,0.168
				c-0.005,0.021-0.011,0.043-0.016,0.064c-0.036-0.027-0.072-0.055-0.107-0.083l-0.053-0.041c-0.068-0.054-0.135-0.108-0.202-0.163
				c-0.013-0.011-0.026-0.022-0.04-0.033c-0.039-0.032-0.077-0.064-0.115-0.097c-0.009-0.008-0.019-0.016-0.028-0.024
				c-0.071-0.061-0.141-0.122-0.21-0.184c-0.012-0.011-0.024-0.021-0.036-0.032c-0.069-0.062-0.136-0.125-0.204-0.189l-0.028-0.026
				c-0.115-0.11-0.229-0.223-0.34-0.337c-0.007-0.007-0.014-0.015-0.021-0.022c-0.071-0.074-0.141-0.148-0.21-0.224
				c-0.002-0.002-0.005-0.005-0.007-0.007c-0.11-0.121-0.218-0.244-0.323-0.37c-0.004-0.005-0.008-0.009-0.012-0.014
				c-0.067-0.08-0.133-0.161-0.198-0.243c-0.002-0.003-0.005-0.006-0.007-0.009c-1.586-2.004-2.537-4.529-2.537-7.256v-36.833
				c0-6.482,5.274-11.757,11.757-11.757h12.313c6.483,0,11.758,5.274,11.758,11.757V167.363z M366.943,167.363h-35.827v-25.631
				c0-6.482,5.273-11.757,11.758-11.757h12.312c6.483,0,11.758,5.274,11.758,11.757V167.363z M497.007,225.517
				c0,1.109-0.868,2.026-1.976,2.088l-92.98,5.101v-28.764l92.98,5.101c1.107,0.062,1.976,0.979,1.976,2.088V225.517z"/>
			<path d="M260.232,80.387c1.918,0,3.837-0.732,5.302-2.195c2.928-2.929,2.928-7.674,0-10.602l-11.148-11.147l11.147-11.146
				c2.929-2.928,2.929-7.674,0.001-10.601s-7.674-2.929-10.601-0.001l-16.448,16.447c-1.406,1.406-2.196,3.312-2.196,5.302
				s0.79,3.894,2.195,5.302l16.448,16.448C256.395,79.655,258.314,80.387,260.232,80.387z"/>
			<path d="M290.75,56.442L279.603,67.59c-2.928,2.928-2.928,7.674,0.001,10.601c1.463,1.463,3.382,2.195,5.301,2.195
				s3.837-0.732,5.302-2.196l16.447-16.448c2.928-2.928,2.928-7.673,0-10.601l-16.448-16.447c-2.929-2.927-7.674-2.927-10.602,0
				c-2.928,2.929-2.928,7.674,0,10.602L290.75,56.442z"/>
			<path d="M160.61,76.888h10.102c7.681,0,14.07-5.638,15.245-12.994h30.645c3.566,27.592,27.211,48.977,55.759,48.977
				s52.193-21.385,55.759-48.977h31.145c1.175,7.356,7.563,12.994,15.245,12.994h10.102c8.514,0,15.439-6.926,15.439-15.439V51.347
				c0-8.514-6.926-15.439-15.439-15.439H374.51c-7.681,0-14.07,5.638-15.245,12.994h-31.212
				c-3.785-27.35-27.317-48.477-55.692-48.477s-51.907,21.127-55.692,48.477h-30.712c-1.175-7.356-7.563-12.994-15.245-12.994
				H160.61c-8.514,0-15.439,6.926-15.439,15.439v10.102C145.171,69.963,152.096,76.888,160.61,76.888z M374.064,51.347
				c0-0.246,0.2-0.446,0.446-0.446h10.102c0.246,0,0.446,0.2,0.446,0.446v10.102c0,0.246-0.2,0.446-0.446,0.446H374.51
				c-0.246,0-0.446-0.2-0.446-0.446V51.347z M272.361,15.417c22.734,0,41.231,18.496,41.231,41.231s-18.496,41.231-41.231,41.231
				c-22.734,0-41.231-18.496-41.231-41.231S249.627,15.417,272.361,15.417z M160.164,51.347c0-0.246,0.2-0.446,0.446-0.446h10.102
				c0.246,0,0.446,0.2,0.446,0.446v10.102c0,0.246-0.2,0.446-0.446,0.446h-10.102c-0.246,0-0.446-0.2-0.446-0.446V51.347z"/>
		</g>
	</g>
</g>
<g>
</g>
<g>
</g>
<g>
</g>
<g>
</g>
<g>
</g>
<g>
</g>
<g>
</g>
<g>
</g>
<g>
</g>
<g>
</g>
<g>
</g>
<g>
</g>
<g>
</g>
<g>
</g>
<g>
</g>
</svg>
