<?xml version="1.0" encoding="utf-8"?>
<!-- Generator: Adobe Illustrator 16.0.0, SVG Export Plug-In . SVG Version: 6.00 Build 0)  -->
<!DOCTYPE svg PUBLIC "-//W3C//DTD SVG 1.1//EN" "http://www.w3.org/Graphics/SVG/1.1/DTD/svg11.dtd">
<svg version="1.1" id="Layer_1" xmlns="http://www.w3.org/2000/svg" xmlns:xlink="http://www.w3.org/1999/xlink" x="0px" y="0px"
	 width="612px" height="792px" viewBox="0 0 612 792" enable-background="new 0 0 612 792" xml:space="preserve">
<title>pizza</title>
<g id="pizza">
	<g id="pizza-2">
		<circle cx="306" cy="396" r="289"/>
		<circle cx="306" cy="396" r="240.856"/>
		<path d="M402.016,415.652c-0.776-2.9-1.871-5.705-3.264-8.364c-5.287-6.571-5.287-15.937,0-22.508
			c1.393-2.659,2.487-5.464,3.264-8.364c0.568-3.731,0.289-7.543-0.815-11.152l0,0v-0.408l0,0
			c-2.361-6.421-7.289-11.57-13.601-14.212c-3.847-1.359-7.27-3.704-9.928-6.8c-2.023-3.48-3.167-7.401-3.332-11.424
			c-0.273-2.989-1.056-5.91-2.312-8.636c-1.435-3.447-3.786-6.434-6.801-8.636l0,0h-0.34l0,0
			c-5.636-3.886-12.665-5.173-19.312-3.536c-3.898,1.042-8.002,1.042-11.9,0c-3.769-1.494-7.043-4.015-9.452-7.276
			c-4.606-5.282-11.217-8.39-18.224-8.568l0,0c-6.828,0.291-13.241,3.362-17.748,8.5c-2.399,3.286-5.675,5.831-9.452,7.344
			c-3.898,1.042-8.001,1.042-11.9,0c-6.646-1.637-13.676-0.35-19.312,3.536l0,0h-0.34l0,0c-3.014,2.202-5.366,5.189-6.8,8.636
			c-1.256,2.726-2.039,5.646-2.312,8.636c-0.166,4.022-1.309,7.944-3.332,11.424c-2.658,3.096-6.081,5.44-9.928,6.8
			c-6.312,2.642-11.239,7.791-13.6,14.212l0,0v0.408l0,0c-1.026,3.603-1.236,7.39-0.612,11.084c0.777,2.899,1.872,5.705,3.264,8.364
			c5.287,6.571,5.287,15.937,0,22.509c-1.393,2.658-2.487,5.464-3.264,8.363c-0.79,3.681-0.743,7.491,0.136,11.152l0,0v0.407l0,0
			c2.361,6.422,7.289,11.571,13.6,14.213c3.847,1.358,7.271,3.703,9.928,6.8c2.023,3.48,3.167,7.401,3.332,11.424
			c0.273,2.989,1.056,5.91,2.312,8.636c1.434,3.447,3.786,6.434,6.8,8.636l0,0h0.34l0,0c5.636,3.887,12.666,5.174,19.312,3.536
			c3.898-1.041,8.002-1.041,11.9,0c3.769,1.495,7.043,4.016,9.452,7.276c4.607,5.282,11.217,8.39,18.224,8.568l0,0
			c6.828-0.291,13.241-3.362,17.748-8.5c2.399-3.286,5.675-5.831,9.452-7.345c3.898-1.041,8.002-1.041,11.899,0
			c6.647,1.638,13.677,0.351,19.313-3.536l0,0h0.34l0,0c3.014-2.202,5.366-5.188,6.8-8.636c1.257-2.726,2.038-5.646,2.313-8.636
			c0.165-4.022,1.309-7.943,3.332-11.424c2.657-3.097,6.081-5.441,9.928-6.8c6.312-2.642,11.238-7.791,13.6-14.213l0,0v-0.407l0,0
			C401.979,423.185,402.421,419.396,402.016,415.652z"/>
		<circle cx="306" cy="396" r="72.216"/>
		<circle cx="306" cy="396" r="57.46"/>
		<circle cx="306" cy="396" r="46.172"/>
		<path d="M306,349.828c25.519,0,46.206,20.687,46.206,46.206c0,25.519-20.688,46.206-46.206,46.206"/>
		<polygon points="306,346.088 295.936,346.088 295.936,444.348 306,444.348 316.064,444.348 316.064,346.088 		"/>
		<circle cx="306" cy="396" r="17.748"/>
		<path d="M280.024,374.376L280.024,374.376l8.908,4.692l-2.516-10.268l0,0c0,0-0.408-0.748-0.748-1.292
			c-1.5-1.877-4.239-2.183-6.117-0.683c-0.001,0.001-0.002,0.002-0.003,0.003c-1.961,1.489-2.355,4.281-0.884,6.256
			C279.026,373.602,279.488,374.042,280.024,374.376z"/>
		<path d="M273.632,389.88L273.632,389.88H283.9l-7.344-7.48l0,0c-0.44-0.451-0.974-0.799-1.564-1.02
			c-2.253-0.882-4.796,0.229-5.678,2.482c-0.882,2.253,0.229,4.795,2.482,5.678C272.377,389.783,273.003,389.899,273.632,389.88z"/>
		<path d="M276.488,407.832L276.488,407.832l7.48-6.8l-10.268-0.476l0,0c-0.605-0.133-1.231-0.133-1.836,0
			c-2.248,0.85-3.381,3.361-2.53,5.609s3.362,3.381,5.61,2.531c0.55-0.209,1.052-0.525,1.476-0.934L276.488,407.832z"/>
		<path d="M286.348,422.452L286.348,422.452l2.516-9.929l-8.908,5.101l0,0c-0.561,0.298-1.049,0.716-1.428,1.224
			c-1.208,2.078-0.503,4.742,1.575,5.95c1.689,0.982,3.826,0.718,5.226-0.646C285.796,423.673,286.146,423.091,286.348,422.452z"/>
		<path d="M331.976,374.376L331.976,374.376l-8.907,4.692l2.516-10.268l0,0c0,0,0.408-0.748,0.748-1.292
			c1.501-1.877,4.239-2.183,6.116-0.683c0.002,0.001,0.003,0.002,0.004,0.003c1.961,1.489,2.355,4.281,0.884,6.256
			C332.975,373.602,332.512,374.042,331.976,374.376z"/>
		<path d="M338.368,389.88L338.368,389.88H328.1l7.345-7.48l0,0c0.441-0.449,0.975-0.797,1.563-1.02
			c2.254-0.882,4.796,0.229,5.678,2.482c0.883,2.253-0.229,4.795-2.481,5.678C339.623,389.783,338.997,389.899,338.368,389.88z"/>
		<path d="M335.512,407.832L335.512,407.832l-7.479-6.8l10.268-0.476l0,0c0.605-0.133,1.231-0.133,1.836,0
			c2.248,0.85,3.381,3.361,2.53,5.609s-3.362,3.381-5.61,2.531c-0.55-0.209-1.052-0.525-1.476-0.934L335.512,407.832z"/>
		<path d="M325.652,422.452L325.652,422.452l-2.517-9.929l8.908,5.101l0,0c0.561,0.298,1.049,0.716,1.428,1.224
			c1.209,2.078,0.504,4.742-1.574,5.95c-1.689,0.982-3.826,0.718-5.226-0.646C326.204,423.673,325.854,423.091,325.652,422.452z"/>
		<circle cx="306" cy="236.472" r="49.096"/>
		<circle cx="306" cy="216.344" r="11.492"/>
		<circle cx="325.176" cy="247.964" r="11.492"/>
		<circle cx="289" cy="247.964" r="11.492"/>
		<circle cx="306" cy="555.528" r="49.096"/>
		<circle cx="306" cy="535.4" r="11.492"/>
		<circle cx="325.176" cy="567.088" r="11.492"/>
		<circle cx="289" cy="567.088" r="11.492"/>
		<circle cx="455.6" cy="315.148" r="49.096"/>
		<circle cx="455.6" cy="295.02" r="11.492"/>
		<circle cx="474.776" cy="326.708" r="11.492"/>
		<circle cx="438.6" cy="326.708" r="11.492"/>
		<circle cx="156.4" cy="317.392" r="49.096"/>
		<circle cx="156.4" cy="297.332" r="11.492"/>
		<circle cx="175.644" cy="328.952" r="11.492"/>
		<circle cx="139.468" cy="328.952" r="11.492"/>
		<circle cx="455.6" cy="474.744" r="49.096"/>
		<circle cx="455.6" cy="454.616" r="11.492"/>
		<circle cx="474.776" cy="486.236" r="11.492"/>
		<circle cx="438.6" cy="486.236" r="11.492"/>
		<circle cx="156.4" cy="476.988" r="49.096"/>
		<circle cx="156.4" cy="456.86" r="11.492"/>
		<circle cx="175.644" cy="488.48" r="11.492"/>
		<circle cx="139.468" cy="488.48" r="11.492"/>
		<path d="M441.592,410.893c-5.99-1.146-9.917-6.931-8.771-12.92c1.146-5.991,6.93-9.918,12.92-8.772
			c5.971,0.955,10.036,6.568,9.082,12.539c-0.955,5.971-6.569,10.036-12.539,9.082c-0.232-0.037-0.463-0.081-0.691-0.134V410.893z"
			/>
		<path d="M380.8,512.484c-3.53-4.92-2.403-11.771,2.517-15.301c4.919-3.53,11.77-2.403,15.3,2.517l0,0
			c3.53,4.92,2.403,11.77-2.517,15.3C391.181,518.53,384.33,517.403,380.8,512.484L380.8,512.484z"/>
		<path d="M396.1,561.988c-1.719-5.468,0.986-11.348,6.257-13.601c5.463-2.01,11.559,0.464,14.075,5.712
			c2.254,5.634-0.486,12.027-6.12,14.28c-5.633,2.254-12.026-0.486-14.279-6.12L396.1,561.988z"/>
		<path d="M223.788,521.868c2.523-5.318,8.71-7.806,14.212-5.712c5.27,2.252,7.975,8.133,6.256,13.6
			c-2.253,5.634-8.646,8.373-14.28,6.12s-8.374-8.646-6.12-14.28l0,0L223.788,521.868z"/>
		<path d="M202.3,565.592c3.53-4.92,10.38-6.046,15.3-2.516c4.919,3.53,6.046,10.38,2.516,15.3l0,0
			c-3.53,4.92-10.38,6.046-15.3,2.516C199.896,577.362,198.77,570.512,202.3,565.592z"/>
		<path d="M173.808,393.824c5.97-0.955,11.584,3.111,12.539,9.082c0.912,5.701-2.76,11.13-8.391,12.406
			c-5.897,1.336-11.761-2.361-13.097-8.258c-1.336-5.897,2.361-11.761,8.258-13.097
			C173.346,393.905,173.576,393.861,173.808,393.824z"/>
		<path d="M108.256,389.2c5.756,0.79,10.017,5.751,9.928,11.56c-0.564,5.869-5.528,10.33-11.424,10.268
			c-6.043-0.176-10.8-5.219-10.623-11.263s5.22-10.8,11.264-10.623C107.686,389.15,107.972,389.169,108.256,389.2z"/>
		<path d="M205.564,216.752c4.025,4.512,3.631,11.433-0.88,15.458c-4.304,3.84-10.85,3.682-14.963-0.362
			c-4.312-4.239-4.372-11.17-0.133-15.482s11.17-4.371,15.482-0.132C205.24,216.401,205.405,216.574,205.564,216.752z"/>
		<path d="M242.692,269.996c2.7,5.41,0.502,11.984-4.909,14.684c-5.41,2.699-11.984,0.502-14.684-4.909
			c-2.619-5.249-0.636-11.628,4.497-14.467c5.291-2.927,11.952-1.011,14.879,4.28C242.551,269.72,242.623,269.857,242.692,269.996z"
			/>
		<path d="M409.972,229.604c-3.104,5.188-9.828,6.876-15.017,3.771c-5.188-3.105-6.876-9.828-3.771-15.016
			c3.019-5.043,9.48-6.803,14.64-3.987c5.307,2.897,7.261,9.548,4.363,14.855C410.118,229.354,410.046,229.48,409.972,229.604z"/>
		<path d="M385.832,294c-4.312,4.239-11.243,4.179-15.482-0.133c-4.044-4.113-4.202-10.659-0.361-14.963
			c4.025-4.512,10.945-4.906,15.457-0.88s4.906,10.946,0.881,15.458C386.167,293.659,386.003,293.833,385.832,294z"/>
		<path d="M505.24,396c-5.896,0.063-10.859-4.398-11.424-10.268c-0.089-5.809,4.172-10.77,9.928-11.56
			c6.012-0.649,11.411,3.698,12.061,9.709c0.649,6.012-3.697,11.411-9.709,12.061C505.812,395.972,505.525,395.992,505.24,396z"/>
	</g>
</g>
</svg>
