<?xml version="1.0" encoding="iso-8859-1"?>
<!-- Generator: Adobe Illustrator 19.0.0, SVG Export Plug-In . SVG Version: 6.00 Build 0)  -->
<svg version="1.1" id="Capa_1" xmlns="http://www.w3.org/2000/svg" xmlns:xlink="http://www.w3.org/1999/xlink" x="0px" y="0px"
	 viewBox="0 0 511.997 511.997" style="enable-background:new 0 0 511.997 511.997;" xml:space="preserve">
<g>
	<g>
		<g>
			<circle cx="95.998" cy="32.5" r="9.5"/>
			<circle cx="127.998" cy="32.5" r="9.5"/>
			<circle cx="159.998" cy="32.5" r="9.5"/>
			<path d="M111.498,131.5c1.919,0,3.839-0.732,5.304-2.196c2.929-2.93,2.929-7.678,0-10.607L103.104,105l14.697-14.696
				c2.929-2.93,2.929-7.678,0-10.607c-2.93-2.928-7.678-2.928-10.607,0l-20,20c-2.929,2.93-2.929,7.678,0,10.607l19,19
				C107.659,130.768,109.579,131.5,111.498,131.5z"/>
			<path d="M177.892,105l-13.697,13.696c-2.929,2.93-2.929,7.678,0,10.607c1.465,1.464,3.385,2.196,5.304,2.196
				s3.839-0.732,5.304-2.196l19-19c2.929-2.93,2.929-7.678,0-10.607l-20-20c-2.93-2.928-7.678-2.928-10.607,0
				c-2.929,2.93-2.929,7.678,0,10.607L177.892,105z"/>
			<path d="M131.626,131.615c0.787,0.262,1.587,0.387,2.373,0.387c3.14,0,6.066-1.987,7.114-5.13l13-39
				c1.31-3.93-0.813-8.178-4.743-9.487c-3.932-1.31-8.178,0.813-9.487,4.743l-13,39
				C125.573,126.058,127.696,130.306,131.626,131.615z"/>
			<path d="M431.234,0H80.762C67.383,0,56.498,10.885,56.498,24.264v212.473c0,13.378,10.885,24.263,24.264,24.263h135.34
				l-2.951,6.818c-2.055,4.748-2.265,10.06-0.591,14.958l17.633,51.54c2.387,6.975,7.707,12.475,14.599,15.092
				c1.855,0.704,3.764,1.176,5.688,1.419c-2.575,7.079-3.98,14.715-3.98,22.672c0,20.741,9.545,39.295,24.473,51.5h-6.868
				c-9.708,0-17.605,7.897-17.605,17.605v15.789c0,3.757,1.183,7.243,3.197,10.105c-2.013,2.862-3.197,6.348-3.197,10.105v15.789
				c0,9.708,7.897,17.605,17.605,17.605h97.789c9.708,0,17.605-7.897,17.605-17.605v-15.789c0-3.757-1.183-7.243-3.197-10.105
				c2.013-2.862,3.197-6.348,3.197-10.105v-15.789c0-9.708-7.897-17.605-17.605-17.605h-6.868
				c14.928-12.205,24.473-30.759,24.473-51.5c0-10.875-2.624-21.149-7.272-30.222c9.92-2.552,17.272-11.572,17.272-22.278v-43.16
				c1.947-2.941,5.492-8.758,8.974-16.84h32.763c13.379,0,24.264-10.885,24.264-24.264V24.264C455.498,10.885,444.613,0,431.234,0z
				 M80.762,246c-5.108,0-9.264-4.155-9.264-9.264V65h198.91l10.742,99.68l-39.392,38.453c-0.698,0.682-1.256,1.493-1.644,2.388
				L222.594,246H80.762z M364.498,494.395c0,1.437-1.169,2.605-2.605,2.605h-97.789c-1.437,0-2.605-1.169-2.605-2.605v-15.789
				c0-1.437,1.169-2.605,2.605-2.605h97.789c1.437,0,2.605,1.169,2.605,2.605V494.395z M361.893,440
				c1.437,0,2.605,1.169,2.605,2.605v15.789c0,1.437-1.169,2.605-2.605,2.605h-97.789c-1.437,0-2.605-1.169-2.605-2.605v-15.789
				c0-1.437,1.169-2.605,2.605-2.605H361.893z M312.998,425c-28.397,0-51.5-23.103-51.5-51.5c0-10.945,3.432-21.104,9.277-29.456
				c1.563-1.508,2.901-3.197,3.997-5.019C284.203,328.577,297.847,322,312.998,322c28.397,0,51.5,23.103,51.5,51.5
				C364.498,401.897,341.395,425,312.998,425z M323.738,248.414c-17.56,6.41-30.774,14.629-40.276,25.026
				c-1.941,2.124-2.496,5.173-1.428,7.845l4.337,10.842c1.671,4.179-0.241,8.882-4.354,10.708c-2.214,0.981-4.646,0.968-6.849-0.039
				c-2.193-1.004-3.788-2.825-4.495-5.128l-1.839-6.069l-5.848-19.965c-0.072-1.375,0.341-2.725,1.165-3.797
				c0.011-0.014,0.022-0.028,0.033-0.042c0.017-0.022,0.035-0.044,0.052-0.066c0.033-0.041,0.066-0.081,0.1-0.121
				c14.504-16.934,33.549-28.998,58.148-36.896c-0.005,0.166-0.01,0.333-0.014,0.501c-0.001,0.044-0.002,0.088-0.003,0.133
				c-0.003,0.119-0.006,0.24-0.008,0.361C322.337,237.576,322.765,243.167,323.738,248.414z M300.298,286.556l-2.511-6.277
				c7.466-6.957,17.481-12.729,30.377-17.51c3.184,7.018,8.035,13.677,15.334,18.838v32.81c-9.141-4.739-19.513-7.417-30.5-7.417
				c-5.281,0-10.419,0.619-15.348,1.788C302.121,302.536,303.367,294.229,300.298,286.556z M440.498,236.736
				c0,5.108-4.155,9.264-9.264,9.264H403.81c6.867-24.106,8.175-57.127-14.222-92.565l1.21-29.629c0.169-4.139-3.05-7.631-7.188-7.8
				c-0.39-0.016-0.775-0.001-1.152,0.042c-3.58,0.4-6.391,3.289-6.637,6.946c-0.005,0.067-0.008,0.134-0.011,0.201l-1.307,32
				c-0.063,1.564,0.364,3.111,1.224,4.421c0.111,0.169,0.222,0.339,0.332,0.509c0.038,0.059,0.077,0.118,0.115,0.177
				c0.072,0.111,0.143,0.222,0.214,0.333c0.045,0.07,0.09,0.141,0.135,0.211c0.058,0.091,0.116,0.181,0.173,0.272
				c0.123,0.193,0.245,0.386,0.366,0.578c0.01,0.016,0.02,0.031,0.03,0.047c15.432,24.591,17.819,47.783,15.128,66.759
				c-0.413,2.882-0.956,5.775-1.631,8.677c-4.741,20.39-14.505,33.703-14.592,33.82c-0.974,1.298-1.5,2.877-1.5,4.5V321
				c0,4.411-3.589,8-8,8s-8-3.589-8-8v-43.5c0-2.691-1.442-5.177-3.779-6.512c-14.118-8.067-17.051-24.704-17.264-36.042v-0.005
				c-0.002-0.094-0.003-0.187-0.005-0.28c0-0.021-0.001-0.042-0.001-0.062c-0.001-0.069-0.002-0.138-0.003-0.207
				c0-0.039-0.001-0.077-0.001-0.115c0-0.059-0.001-0.118-0.001-0.177c0-0.042,0-0.083-0.001-0.124c0-0.049,0-0.099-0.001-0.148
				c0-0.046,0-0.092,0-0.138c0-0.05,0-0.1,0-0.15v-0.123c0-0.052,0-0.103,0-0.154c0-0.043,0-0.085,0-0.128
				c0-0.05,0.001-0.1,0.001-0.15c0-0.042,0.001-0.083,0.001-0.125c0-0.052,0.001-0.105,0.002-0.157c0-0.034,0.001-0.069,0.001-0.103
				c0.001-0.056,0.001-0.112,0.002-0.167c0-0.035,0.001-0.069,0.002-0.104c0.001-0.069,0.002-0.138,0.004-0.206l0.001-0.044
				c0.001-0.072,0.003-0.144,0.005-0.216c0-0.019,0.001-0.038,0.001-0.057c0.002-0.079,0.004-0.157,0.006-0.235
				c0-0.006,0-0.012,0-0.019c0.002-0.073,0.004-0.146,0.006-0.218c0-0.017,0.001-0.034,0.001-0.051
				c0.003-0.085,0.005-0.169,0.008-0.252c0.159-4.804-2.036-9.404-5.872-12.307c-0.181-0.137-0.365-0.269-0.551-0.397
				c-2.48-1.705-5.4-2.601-8.358-2.621c-1.553-0.01-3.116,0.221-4.63,0.704c-5.574,1.778-10.894,3.754-15.972,5.935
				c-0.721,0.31-1.437,0.624-2.148,0.941c-0.252,0.113-0.504,0.226-0.755,0.339c-0.384,0.174-0.766,0.349-1.146,0.525
				c-0.19,0.088-0.38,0.177-0.57,0.265c-0.318,0.149-0.635,0.299-0.951,0.449c-0.719,0.343-1.433,0.69-2.143,1.042
				c-0.279,0.138-0.558,0.277-0.836,0.417c-0.185,0.093-0.369,0.187-0.553,0.28c-0.368,0.187-0.734,0.376-1.099,0.566
				c-0.182,0.095-0.365,0.19-0.547,0.286c-1.233,0.648-2.45,1.31-3.651,1.986c-0.081,0.045-0.161,0.091-0.242,0.136
				c-1.525,0.862-3.024,1.748-4.497,2.656l-0.196,0.122c-1.827,1.131-3.615,2.298-5.365,3.502c-0.188,0.129-0.376,0.259-0.563,0.389
				c-4.047,2.815-7.889,5.829-11.534,9.046c-0.021,0.018-0.041,0.036-0.062,0.055c-0.671,0.592-1.334,1.192-1.992,1.798
				c-0.098,0.09-0.195,0.18-0.293,0.271c-0.17,0.158-0.34,0.316-0.509,0.475c-0.101,0.095-0.201,0.189-0.302,0.284
				c-0.815,0.77-1.619,1.551-2.413,2.342c-2.353,2.346-4.615,4.788-6.792,7.329c-0.066,0.078-0.132,0.156-0.197,0.234
				c-0.027,0.032-0.053,0.065-0.08,0.098c-0.032,0.04-0.065,0.079-0.097,0.119c-0.044,0.054-0.088,0.109-0.131,0.164
				c-0.01,0.012-0.019,0.024-0.029,0.036c-4.211,5.332-5.545,12.323-3.56,18.873l5.846,19.291l1.613,5.324
				c0.01,0.032,0.02,0.065,0.03,0.097l6.493,21.426c0.724,2.389,0.499,4.853-0.503,6.965c-0.943,1.11-1.851,2.25-2.721,3.42
				c-0.396,0.314-0.821,0.602-1.274,0.859c-2.517,1.426-5.512,1.656-8.219,0.629c-2.705-1.027-4.793-3.187-5.729-5.924
				l-17.633-51.538c-0.464-1.358-0.406-2.831,0.163-4.146l7.466-17.25c0.007-0.016,0.014-0.031,0.021-0.047l18.891-43.645
				l40.943-39.968c1.646-1.608,2.464-3.883,2.218-6.171L285.495,65h92.69l-1.151,28.194c-0.169,4.139,3.05,7.631,7.188,7.8
				c4.161,0.175,7.631-3.05,7.8-7.188L393.198,65h47.3V236.736z M440.499,50h-0.001h-369V24.264c0-5.108,4.155-9.264,9.264-9.264
				h350.473c5.108,0,9.264,4.155,9.264,9.264V50z"/>
			<path d="M330.998,359c4.143,0,7.5-3.357,7.5-7.5s-3.357-7.5-7.5-7.5h-10.5v-2.5c0-4.143-3.357-7.5-7.5-7.5s-7.5,3.357-7.5,7.5
				v2.5h-0.048c-7.693,0-13.952,6.259-13.952,13.952v10.096c0,7.693,6.259,13.952,13.952,13.952h18.048v7h-24.5
				c-4.143,0-7.5,3.357-7.5,7.5s3.357,7.5,7.5,7.5h6.5v2.5c0,4.143,3.357,7.5,7.5,7.5s7.5-3.357,7.5-7.5V404h4.048
				c7.693,0,13.952-6.259,13.952-13.952v-9.096c0-7.693-6.259-13.952-13.952-13.952h-18.048v-8H330.998z"/>
			<path d="M223.998,112h33c4.143,0,7.5-3.357,7.5-7.5s-3.357-7.5-7.5-7.5h-33c-4.143,0-7.5,3.357-7.5,7.5S219.855,112,223.998,112z
				"/>
			<path d="M185.498,155.5c0-4.143-3.357-7.5-7.5-7.5h-66c-4.143,0-7.5,3.357-7.5,7.5s3.357,7.5,7.5,7.5h66
				C182.141,163,185.498,159.643,185.498,155.5z"/>
			<path d="M111.998,181c-4.143,0-7.5,3.357-7.5,7.5s3.357,7.5,7.5,7.5h17c4.143,0,7.5-3.357,7.5-7.5s-3.357-7.5-7.5-7.5H111.998z"
				/>
			<path d="M229.998,181h-74c-4.143,0-7.5,3.357-7.5,7.5s3.357,7.5,7.5,7.5h74c4.143,0,7.5-3.357,7.5-7.5S234.141,181,229.998,181z"
				/>
			<path d="M200.998,208h-17c-4.143,0-7.5,3.357-7.5,7.5s3.357,7.5,7.5,7.5h17c4.143,0,7.5-3.357,7.5-7.5S205.141,208,200.998,208z"
				/>
			<path d="M155.998,208h-44c-4.143,0-7.5,3.357-7.5,7.5s3.357,7.5,7.5,7.5h44c4.143,0,7.5-3.357,7.5-7.5S160.141,208,155.998,208z"
				/>
			<path d="M206.998,163h50c4.143,0,7.5-3.357,7.5-7.5s-3.357-7.5-7.5-7.5h-50c-4.143,0-7.5,3.357-7.5,7.5S202.855,163,206.998,163z
				"/>
		</g>
	</g>
</g>
<g>
</g>
<g>
</g>
<g>
</g>
<g>
</g>
<g>
</g>
<g>
</g>
<g>
</g>
<g>
</g>
<g>
</g>
<g>
</g>
<g>
</g>
<g>
</g>
<g>
</g>
<g>
</g>
<g>
</g>
</svg>
