<?xml version="1.0" encoding="iso-8859-1"?>
<!-- Generator: Adobe Illustrator 19.0.0, SVG Export Plug-In . SVG Version: 6.00 Build 0)  -->
<svg version="1.1" id="Capa_1" xmlns="http://www.w3.org/2000/svg" xmlns:xlink="http://www.w3.org/1999/xlink" x="0px" y="0px"
	 viewBox="0 0 512 512" style="enable-background:new 0 0 512 512;" xml:space="preserve">
<g>
	<g>
		<path d="M478.792,120h19.416c7.604,0,13.792-6.188,13.792-13.792V86.792C512,79.188,505.813,73,498.208,73h-19.416
			C471.188,73,465,79.188,465,86.792V89H280v-2.208C280,79.188,273.813,73,266.208,73h-19.416C239.187,73,233,79.188,233,86.792V89
			H47v-2.208C47,79.188,40.813,73,33.208,73H13.792C6.187,73,0,79.188,0,86.792v19.416C0,113.813,6.187,120,13.792,120h19.416
			C40.813,120,47,113.813,47,106.208V104h153.095c-10.982,6.298-20.933,14.442-29.367,24.165C152.847,148.78,143,175.179,143,202.5
			c0,2.884,0.109,5.744,0.321,8.575C110.209,230.922,88,267.167,88,308.5c0,42.818,23.833,80.174,58.931,99.5H47v-2.208
			C47,398.188,40.813,392,33.208,392H13.792C6.187,392,0,398.188,0,405.792v19.416C0,432.813,6.187,439,13.792,439h19.416
			C40.813,439,47,432.813,47,425.208V423h189.559c0.653,7.001,6.562,12.501,13.732,12.501h12.418c7.169,0,13.079-5.5,13.732-12.501
			H465v2.208c0,7.604,6.188,13.792,13.792,13.792h19.416c7.604,0,13.792-6.188,13.792-13.792v-19.416
			c0-7.604-6.188-13.792-13.792-13.792h-19.416c-7.604,0-13.792,6.188-13.792,13.792V408h-97.931
			C402.167,388.674,426,351.318,426,308.5c0-26.137-9.104-51.652-25.637-71.848c-2.627-3.207-7.352-3.675-10.555-1.053
			c-3.205,2.624-3.676,7.35-1.053,10.555C403.101,263.676,411,285.817,411,308.5c0,54.313-44.187,98.5-98.5,98.5
			c-14.708,0-28.672-3.24-41.218-9.044C297.875,377.165,315,344.795,315,308.5c0-2.884-0.109-5.744-0.321-8.575
			c26.457-15.858,45.953-42.185,52.721-73.211c0.27,0.181,0.539,0.364,0.807,0.548c3.413,2.348,8.084,1.48,10.429-1.933
			c2.347-3.414,1.48-8.083-1.933-10.43c-2.281-1.567-4.609-3.045-6.98-4.434c0.183-2.632,0.277-5.289,0.277-7.967
			c0-27.321-9.848-53.72-27.729-74.335c-8.433-9.723-18.384-17.867-29.366-24.165H465v2.208C465,113.813,471.188,120,478.792,120z
			 M480,88h17v17h-17V88z M32,105H15V88h17V105z M32,424H15v-17h17V424z M480,407h17v17h-17V407z M248,88h17v17h-17V88z
			 M241.972,398.297C229.619,403.887,215.916,407,201.5,407c-54.313,0-98.5-44.187-98.5-98.5c0-33.631,16.942-63.378,42.739-81.158
			c6.977,31.126,26.777,57.463,53.541,73.151c-0.185,2.646-0.28,5.315-0.28,8.007c0,36.236,17.069,68.561,43.589,89.355
			C242.379,397.997,242.173,398.145,241.972,398.297z M201.608,284.25c-21.824-14.701-37.469-37.903-42.151-64.819
			C172.214,213.384,186.469,210,201.5,210c14.707,0,28.672,3.24,41.218,9.044C222.221,235.069,207.349,257.973,201.608,284.25z
			 M257,227.162c21.506,14.721,36.905,37.741,41.544,64.407C285.786,297.616,271.531,301,256.5,301
			c-14.668,0-28.598-3.223-41.118-8.998C219.928,265.152,235.377,241.962,257,227.162z M261.501,420.501h-10.002v-10.002h10.002
			V420.501z M257,389.838c-25.944-17.758-43-47.594-43-81.338c0-0.252,0.001-0.503,0.003-0.754
			C227.135,313.067,241.482,316,256.5,316c15.399,0,30.092-3.083,43.493-8.663c0.005,0.387,0.007,0.775,0.007,1.163
			C300,342.244,282.944,372.08,257,389.838z M312.261,283.658c-5.834-26.03-20.636-48.71-40.979-64.614
			C283.828,213.24,297.792,210,312.5,210c14.347,0,28.311,3.069,41.123,8.969C349.101,245.723,333.755,268.845,312.261,283.658z
			 M355,202.5c0,0.242-0.001,0.483-0.003,0.725c-13.4-5.418-27.774-8.225-42.497-8.225c-20.146,0-39.082,5.276-55.5,14.519
			C240.582,200.276,221.646,195,201.5,195c-15.399,0-30.092,3.083-43.493,8.663c-0.005-0.387-0.007-0.775-0.007-1.163
			c0-45.345,31.688-85.02,75.014-95.677c0,0.01,0.001,0.02,0.001,0.029c0.002,0.039,0.004,0.078,0.006,0.117
			c0.001,0.018,0.002,0.036,0.003,0.054c0.002,0.04,0.005,0.08,0.007,0.12c0.001,0.017,0.002,0.034,0.004,0.052
			c0.003,0.041,0.006,0.081,0.009,0.122c0.001,0.016,0.003,0.032,0.004,0.048c0.003,0.041,0.007,0.081,0.011,0.121
			c0.002,0.018,0.004,0.036,0.005,0.055c0.004,0.038,0.007,0.075,0.011,0.113c0.002,0.02,0.004,0.041,0.007,0.061
			c0.004,0.037,0.008,0.074,0.012,0.111c0.002,0.019,0.005,0.038,0.007,0.056c0.005,0.039,0.01,0.077,0.014,0.116
			c0.002,0.015,0.004,0.03,0.006,0.044c0.006,0.042,0.011,0.084,0.017,0.126c0.002,0.013,0.004,0.025,0.005,0.038
			c0.006,0.043,0.013,0.087,0.02,0.131c0.002,0.013,0.004,0.026,0.006,0.039c0.006,0.041,0.013,0.082,0.02,0.123
			c0.004,0.021,0.007,0.042,0.011,0.064c0.006,0.035,0.012,0.069,0.018,0.104c0.003,0.017,0.006,0.033,0.009,0.049
			c0.007,0.041,0.015,0.081,0.023,0.122c0.002,0.008,0.003,0.016,0.005,0.024c0.009,0.046,0.018,0.093,0.028,0.139
			c0.002,0.009,0.004,0.019,0.006,0.028c0.063,0.301,0.136,0.599,0.218,0.893c0.005,0.018,0.01,0.036,0.015,0.053
			c0.013,0.046,0.026,0.092,0.04,0.138c0.002,0.006,0.004,0.012,0.005,0.019c0.012,0.041,0.024,0.081,0.037,0.122
			c0.004,0.013,0.008,0.026,0.012,0.04c0.011,0.037,0.023,0.074,0.035,0.111c0.005,0.016,0.01,0.031,0.015,0.047
			c0.012,0.038,0.025,0.076,0.038,0.114c0.005,0.014,0.01,0.029,0.014,0.043c0.01,0.029,0.02,0.059,0.031,0.089
			c0.009,0.026,0.017,0.051,0.026,0.077c0.008,0.021,0.015,0.043,0.023,0.065c0.011,0.03,0.021,0.06,0.032,0.09
			c0.01,0.027,0.02,0.055,0.03,0.082c0.009,0.023,0.017,0.046,0.026,0.069c0.011,0.029,0.022,0.057,0.033,0.085
			c0.009,0.024,0.019,0.049,0.028,0.073c0.01,0.024,0.019,0.049,0.029,0.073c0.011,0.028,0.022,0.056,0.034,0.083
			c0.009,0.022,0.018,0.045,0.028,0.067c0.012,0.029,0.024,0.058,0.036,0.087c0.009,0.021,0.018,0.042,0.027,0.063
			c0.013,0.03,0.026,0.06,0.039,0.089c0.01,0.023,0.02,0.046,0.03,0.068c0.012,0.026,0.023,0.053,0.035,0.079
			c0.011,0.024,0.021,0.048,0.032,0.072c0.012,0.027,0.025,0.055,0.038,0.082c0.011,0.023,0.021,0.046,0.032,0.069
			c0.013,0.027,0.026,0.055,0.039,0.082c0.01,0.02,0.019,0.039,0.029,0.059c0.016,0.032,0.031,0.063,0.047,0.095
			c0.009,0.019,0.018,0.037,0.027,0.055c0.015,0.03,0.03,0.061,0.046,0.09c0.01,0.019,0.019,0.038,0.029,0.057
			c0.015,0.03,0.031,0.06,0.046,0.089c0.01,0.02,0.021,0.04,0.031,0.06c0.015,0.028,0.03,0.056,0.045,0.084
			c0.011,0.021,0.022,0.041,0.033,0.062c0.015,0.027,0.03,0.054,0.045,0.081c0.012,0.021,0.024,0.042,0.036,0.063
			c0.016,0.028,0.032,0.056,0.048,0.084c0.011,0.019,0.021,0.038,0.032,0.056c0.017,0.029,0.034,0.059,0.052,0.088
			c0.01,0.018,0.021,0.036,0.032,0.054c0.017,0.028,0.034,0.056,0.051,0.084c0.011,0.019,0.023,0.038,0.034,0.057
			c0.018,0.03,0.037,0.06,0.055,0.09c0.01,0.016,0.02,0.032,0.03,0.048c0.02,0.032,0.041,0.064,0.061,0.097
			c0.009,0.013,0.017,0.026,0.026,0.04c0.021,0.032,0.042,0.064,0.063,0.097c0.009,0.015,0.019,0.029,0.028,0.043
			c0.021,0.031,0.042,0.063,0.063,0.094c0.01,0.014,0.019,0.028,0.029,0.043c0.023,0.034,0.046,0.068,0.07,0.102
			c0.007,0.011,0.014,0.021,0.022,0.032c0.025,0.035,0.049,0.07,0.074,0.105c0.007,0.01,0.014,0.02,0.021,0.029
			c0.023,0.032,0.046,0.064,0.069,0.096c0.01,0.014,0.02,0.027,0.029,0.041c0.025,0.034,0.05,0.068,0.076,0.103
			c0.006,0.009,0.013,0.018,0.019,0.026c0.029,0.039,0.059,0.078,0.088,0.117c0.004,0.005,0.007,0.01,0.011,0.015
			c0.201,0.262,0.412,0.517,0.631,0.764c0.003,0.003,0.005,0.006,0.008,0.009c0.033,0.037,0.067,0.075,0.101,0.112
			c0.007,0.008,0.014,0.016,0.021,0.023c0.031,0.034,0.062,0.067,0.093,0.101c0.002,0.002,0.004,0.005,0.006,0.007
			c0.035,0.038,0.07,0.075,0.105,0.111c0.007,0.007,0.014,0.015,0.021,0.022c0.03,0.031,0.06,0.063,0.091,0.094
			c0.01,0.011,0.021,0.021,0.032,0.033c0.028,0.029,0.057,0.058,0.086,0.086c0.008,0.008,0.017,0.017,0.025,0.025
			c0.03,0.029,0.059,0.059,0.089,0.088c0.012,0.012,0.025,0.024,0.037,0.036c0.027,0.026,0.053,0.052,0.08,0.078
			c0.012,0.012,0.025,0.023,0.038,0.036c0.028,0.026,0.056,0.053,0.084,0.079c0.01,0.009,0.02,0.019,0.03,0.028
			c0.03,0.028,0.06,0.056,0.091,0.083c0.011,0.01,0.022,0.02,0.033,0.03c0.029,0.026,0.058,0.053,0.088,0.079
			c0.012,0.01,0.024,0.021,0.035,0.031c0.03,0.026,0.061,0.053,0.091,0.08c0.01,0.009,0.021,0.018,0.031,0.026
			c0.028,0.024,0.057,0.049,0.085,0.073c0.017,0.015,0.035,0.029,0.052,0.044c0.025,0.021,0.05,0.042,0.075,0.062
			c0.015,0.013,0.03,0.025,0.046,0.038c0.028,0.023,0.057,0.046,0.085,0.069c0.014,0.011,0.027,0.022,0.041,0.033
			c0.028,0.023,0.057,0.045,0.086,0.068c0.015,0.012,0.03,0.023,0.045,0.035c0.028,0.022,0.056,0.043,0.084,0.065
			c0.015,0.012,0.03,0.023,0.045,0.034c0.03,0.023,0.061,0.046,0.091,0.069c0.012,0.009,0.024,0.018,0.036,0.027
			c0.031,0.023,0.063,0.047,0.094,0.07c0.014,0.01,0.027,0.02,0.041,0.03c0.03,0.022,0.061,0.044,0.092,0.066
			c0.014,0.01,0.028,0.02,0.042,0.03c0.031,0.022,0.062,0.044,0.093,0.065c0.014,0.01,0.028,0.019,0.041,0.029
			c0.029,0.02,0.057,0.039,0.086,0.059c0.019,0.013,0.038,0.026,0.057,0.039c0.025,0.017,0.051,0.034,0.076,0.051
			c0.02,0.013,0.04,0.026,0.059,0.039c0.028,0.019,0.056,0.037,0.085,0.055c0.017,0.011,0.034,0.022,0.052,0.033
			c0.031,0.02,0.061,0.039,0.092,0.058c0.015,0.009,0.03,0.019,0.045,0.028c0.033,0.021,0.066,0.041,0.1,0.062
			c0.014,0.008,0.027,0.017,0.041,0.025c0.034,0.021,0.067,0.041,0.101,0.061c0.013,0.008,0.026,0.016,0.04,0.024
			c0.036,0.021,0.073,0.043,0.11,0.064c0.01,0.006,0.021,0.012,0.031,0.018c0.039,0.022,0.078,0.045,0.118,0.067
			c0.009,0.005,0.018,0.01,0.026,0.015c0.039,0.022,0.079,0.044,0.118,0.065c0.009,0.005,0.018,0.01,0.027,0.015
			c0.041,0.022,0.082,0.044,0.124,0.066c0.007,0.004,0.015,0.008,0.022,0.012c0.044,0.023,0.089,0.046,0.133,0.069
			c0.005,0.002,0.009,0.004,0.014,0.007c0.197,0.101,0.397,0.198,0.6,0.29c0.008,0.003,0.016,0.007,0.023,0.011
			c0.043,0.019,0.086,0.039,0.13,0.058l0.024,0.01c0.042,0.019,0.085,0.037,0.128,0.055c0.017,0.007,0.034,0.014,0.05,0.021
			c0.033,0.014,0.065,0.027,0.098,0.041c0.023,0.01,0.047,0.019,0.07,0.028c0.029,0.012,0.058,0.024,0.087,0.035
			c0.02,0.008,0.04,0.016,0.06,0.023c0.031,0.012,0.063,0.024,0.094,0.037c0.021,0.008,0.043,0.016,0.064,0.024
			c0.031,0.011,0.062,0.023,0.093,0.034c0.021,0.008,0.043,0.016,0.064,0.023c0.03,0.011,0.06,0.022,0.091,0.033
			c0.026,0.009,0.052,0.018,0.078,0.027c0.026,0.009,0.052,0.018,0.078,0.027c0.026,0.009,0.052,0.018,0.078,0.026
			c0.027,0.009,0.054,0.018,0.082,0.027c0.025,0.008,0.049,0.016,0.074,0.024c0.029,0.009,0.058,0.019,0.087,0.027
			c0.024,0.008,0.048,0.015,0.072,0.022c0.028,0.009,0.057,0.018,0.085,0.026c0.026,0.008,0.053,0.016,0.08,0.024
			c0.027,0.008,0.054,0.016,0.081,0.023c0.025,0.007,0.051,0.015,0.076,0.021c0.03,0.009,0.06,0.017,0.09,0.025
			c0.023,0.006,0.046,0.012,0.069,0.019c0.031,0.008,0.063,0.017,0.095,0.025c0.023,0.006,0.045,0.012,0.068,0.018
			c0.031,0.008,0.061,0.016,0.092,0.023c0.025,0.006,0.05,0.012,0.075,0.019c0.031,0.007,0.062,0.015,0.093,0.022
			c0.023,0.005,0.045,0.01,0.068,0.016c0.031,0.007,0.062,0.014,0.094,0.021c0.026,0.006,0.052,0.012,0.078,0.017
			c0.028,0.006,0.056,0.012,0.085,0.018c0.026,0.005,0.052,0.011,0.078,0.016c0.031,0.006,0.063,0.013,0.095,0.019
			c0.023,0.004,0.046,0.009,0.069,0.013c0.033,0.006,0.066,0.013,0.099,0.019c0.023,0.004,0.046,0.008,0.069,0.013
			c0.032,0.005,0.064,0.011,0.096,0.017c0.025,0.004,0.051,0.008,0.076,0.013c0.03,0.005,0.061,0.01,0.091,0.014
			c0.026,0.004,0.052,0.008,0.078,0.012c0.029,0.004,0.057,0.008,0.086,0.013c0.028,0.004,0.056,0.008,0.084,0.012
			c0.029,0.004,0.059,0.008,0.088,0.012c0.027,0.003,0.055,0.007,0.082,0.011c0.028,0.003,0.055,0.006,0.083,0.01
			c0.029,0.003,0.058,0.007,0.087,0.01c0.03,0.003,0.06,0.007,0.09,0.01c0.026,0.003,0.053,0.006,0.08,0.008
			c0.032,0.003,0.064,0.006,0.096,0.009c0.025,0.002,0.049,0.005,0.074,0.007c0.032,0.003,0.065,0.005,0.097,0.008
			c0.026,0.002,0.052,0.004,0.078,0.006c0.028,0.002,0.057,0.004,0.085,0.006c0.03,0.002,0.06,0.004,0.09,0.006
			c0.031,0.002,0.063,0.004,0.095,0.005c0.025,0.001,0.05,0.003,0.075,0.004c0.036,0.002,0.073,0.003,0.109,0.005
			c0.022,0.001,0.044,0.002,0.066,0.003c0.037,0.001,0.075,0.002,0.112,0.003c0.021,0,0.042,0.001,0.063,0.002
			c0.041,0.001,0.081,0.001,0.122,0.002c0.018,0,0.036,0,0.054,0.001c0.058,0,0.117,0.001,0.176,0.001h19.416
			c0.059,0,0.117,0,0.176-0.001c0.018,0,0.036-0.001,0.054-0.001c0.041-0.001,0.081-0.001,0.122-0.002
			c0.021,0,0.041-0.001,0.062-0.002c0.038-0.001,0.075-0.002,0.113-0.003c0.022-0.001,0.043-0.002,0.065-0.003
			c0.037-0.001,0.073-0.003,0.11-0.005c0.025-0.001,0.05-0.003,0.075-0.004c0.031-0.001,0.063-0.003,0.095-0.005
			c0.03-0.002,0.06-0.004,0.09-0.006c0.028-0.002,0.057-0.004,0.085-0.006c0.026-0.002,0.052-0.004,0.078-0.006
			c0.032-0.003,0.065-0.005,0.097-0.008c0.025-0.002,0.049-0.004,0.074-0.007c0.032-0.003,0.064-0.006,0.097-0.009
			c0.027-0.003,0.054-0.006,0.081-0.009c0.029-0.003,0.059-0.006,0.088-0.01c0.03-0.003,0.06-0.007,0.09-0.01
			c0.027-0.003,0.053-0.006,0.08-0.01c0.028-0.003,0.055-0.007,0.083-0.011c0.03-0.004,0.059-0.008,0.089-0.012
			c0.028-0.003,0.055-0.008,0.083-0.012c0.029-0.004,0.058-0.008,0.087-0.013c0.026-0.004,0.052-0.008,0.078-0.012
			c0.03-0.004,0.061-0.009,0.091-0.014c0.025-0.004,0.051-0.009,0.076-0.013c0.032-0.006,0.064-0.011,0.096-0.017
			c0.023-0.004,0.046-0.008,0.068-0.013c0.033-0.006,0.066-0.012,0.099-0.019c0.023-0.004,0.046-0.009,0.069-0.013
			c0.031-0.006,0.063-0.012,0.094-0.019c0.026-0.005,0.052-0.011,0.078-0.016c0.029-0.006,0.057-0.012,0.086-0.018
			c0.026-0.006,0.052-0.011,0.077-0.017c0.031-0.007,0.061-0.014,0.092-0.021c0.024-0.005,0.048-0.011,0.071-0.017
			c0.03-0.007,0.06-0.014,0.09-0.021c0.025-0.006,0.05-0.012,0.075-0.019c0.031-0.008,0.062-0.015,0.093-0.023
			c0.022-0.005,0.044-0.011,0.066-0.017c0.033-0.009,0.066-0.018,0.1-0.026c0.021-0.006,0.042-0.011,0.063-0.017
			c0.031-0.009,0.063-0.018,0.094-0.026c0.025-0.007,0.049-0.014,0.074-0.021c0.027-0.008,0.054-0.016,0.082-0.023
			c0.027-0.008,0.053-0.016,0.08-0.024c0.029-0.008,0.058-0.018,0.087-0.026c0.023-0.007,0.046-0.014,0.068-0.021
			c0.031-0.01,0.061-0.02,0.092-0.029c0.024-0.008,0.047-0.015,0.071-0.023c0.028-0.009,0.056-0.019,0.084-0.028
			c0.025-0.008,0.05-0.017,0.075-0.025c0.029-0.01,0.057-0.02,0.086-0.029c0.023-0.008,0.046-0.016,0.069-0.024
			c0.033-0.012,0.067-0.024,0.1-0.036c0.018-0.006,0.036-0.013,0.054-0.02c0.034-0.013,0.068-0.025,0.103-0.039
			c0.018-0.007,0.036-0.013,0.054-0.02c0.036-0.014,0.071-0.027,0.106-0.042c0.016-0.006,0.032-0.012,0.048-0.019
			c0.036-0.014,0.071-0.029,0.107-0.043c0.016-0.007,0.032-0.013,0.048-0.02c0.042-0.017,0.083-0.035,0.125-0.052
			c0.009-0.003,0.017-0.007,0.026-0.011c0.462-0.196,0.912-0.417,1.347-0.66c0.003-0.001,0.006-0.003,0.009-0.005
			c0.046-0.026,0.092-0.052,0.137-0.078c0.047-0.027,0.094-0.055,0.141-0.083c0.004-0.002,0.009-0.005,0.013-0.008
			c0.042-0.025,0.084-0.05,0.126-0.076c0.008-0.004,0.015-0.009,0.023-0.014c0.041-0.025,0.082-0.05,0.123-0.076
			c0.003-0.001,0.005-0.003,0.008-0.005c0.043-0.027,0.086-0.054,0.129-0.082c0.007-0.004,0.014-0.009,0.021-0.014
			c0.038-0.024,0.076-0.049,0.114-0.074c0.011-0.007,0.022-0.015,0.033-0.021c0.035-0.023,0.07-0.047,0.105-0.07
			c0.011-0.007,0.021-0.014,0.032-0.021c0.035-0.024,0.07-0.048,0.105-0.072c0.01-0.007,0.02-0.014,0.029-0.021
			c0.037-0.026,0.073-0.051,0.11-0.078c0.006-0.004,0.012-0.008,0.018-0.013c0.039-0.027,0.077-0.055,0.115-0.083
			c0.007-0.005,0.014-0.01,0.02-0.015c0.04-0.029,0.08-0.059,0.119-0.088c0.002-0.001,0.004-0.003,0.006-0.004
			c0.039-0.03,0.078-0.059,0.117-0.089c0.008-0.006,0.016-0.013,0.024-0.019c0.037-0.028,0.073-0.057,0.11-0.085
			c0.005-0.004,0.01-0.008,0.016-0.012c0.037-0.029,0.074-0.059,0.111-0.088c0.007-0.006,0.014-0.011,0.02-0.017
			c0.036-0.029,0.072-0.059,0.108-0.088c0.007-0.005,0.013-0.011,0.02-0.016c0.035-0.029,0.07-0.059,0.105-0.088
			c0.007-0.006,0.015-0.013,0.022-0.019c0.039-0.033,0.077-0.066,0.115-0.099c0.001,0,0.002-0.001,0.003-0.002
			c0.082-0.071,0.163-0.143,0.243-0.216c0.002-0.002,0.004-0.003,0.006-0.005c0.081-0.073,0.161-0.148,0.24-0.223
			c0.998-0.952,1.854-2.052,2.533-3.264c0,0,0.001-0.001,0.001-0.002c0.08-0.144,0.159-0.289,0.234-0.436
			c0.001-0.003,0.003-0.005,0.004-0.008c0.024-0.047,0.048-0.094,0.072-0.142c0.001-0.002,0.002-0.004,0.003-0.006
			c0.024-0.049,0.048-0.098,0.072-0.147c0.023-0.048,0.046-0.097,0.069-0.145c0.002-0.003,0.003-0.007,0.005-0.01
			c0.022-0.047,0.044-0.094,0.065-0.142c0.001-0.003,0.003-0.007,0.005-0.01c0.022-0.049,0.044-0.098,0.065-0.146
			c0.001-0.002,0.001-0.003,0.002-0.005c0.022-0.05,0.043-0.099,0.064-0.149c0.001-0.001,0.002-0.003,0.002-0.005
			c0.021-0.049,0.041-0.099,0.062-0.148c0.001-0.002,0.002-0.005,0.003-0.008c0.02-0.048,0.039-0.097,0.059-0.146
			c0.001-0.003,0.003-0.007,0.004-0.011c0.02-0.05,0.04-0.101,0.059-0.152c0-0.001,0.001-0.001,0.001-0.002
			c0.039-0.104,0.078-0.208,0.114-0.312c0.001-0.001,0.001-0.003,0.002-0.005c0.018-0.05,0.035-0.099,0.052-0.149
			c0.001-0.004,0.003-0.008,0.004-0.012c0.018-0.053,0.035-0.105,0.052-0.158c0.139-0.428,0.258-0.864,0.355-1.31
			c0.003-0.014,0.006-0.029,0.009-0.043c0.009-0.041,0.018-0.082,0.026-0.123c0.003-0.014,0.005-0.027,0.008-0.041
			c0.009-0.043,0.017-0.085,0.026-0.128c0.002-0.011,0.004-0.022,0.006-0.033c0.008-0.044,0.017-0.089,0.025-0.133
			c0.003-0.018,0.006-0.035,0.009-0.053c0.006-0.037,0.013-0.073,0.019-0.11c0.004-0.022,0.007-0.045,0.011-0.068
			c0.006-0.035,0.011-0.069,0.016-0.104c0.004-0.024,0.007-0.049,0.011-0.074c0.004-0.028,0.008-0.057,0.013-0.085
			c0.005-0.034,0.009-0.067,0.014-0.101c0.003-0.022,0.006-0.045,0.009-0.068c0.005-0.035,0.009-0.07,0.013-0.105
			c0.002-0.021,0.005-0.041,0.007-0.061c0.004-0.037,0.009-0.074,0.012-0.111c0.002-0.021,0.005-0.041,0.007-0.062
			c0.004-0.034,0.007-0.067,0.01-0.101c0.002-0.024,0.005-0.049,0.007-0.073c0.003-0.033,0.006-0.066,0.009-0.1
			c0.002-0.022,0.004-0.045,0.006-0.068c0.003-0.038,0.006-0.075,0.008-0.113c0.001-0.018,0.003-0.036,0.004-0.054
			c0.003-0.04,0.005-0.08,0.007-0.12c0.001-0.018,0.002-0.036,0.003-0.054c0.002-0.039,0.004-0.078,0.006-0.117
			c0-0.01,0.001-0.02,0.001-0.029C323.313,117.48,355,157.155,355,202.5z"/>
	</g>
</g>
<g>
</g>
<g>
</g>
<g>
</g>
<g>
</g>
<g>
</g>
<g>
</g>
<g>
</g>
<g>
</g>
<g>
</g>
<g>
</g>
<g>
</g>
<g>
</g>
<g>
</g>
<g>
</g>
<g>
</g>
</svg>
