<?xml version="1.0" encoding="iso-8859-1"?>
<!-- Generator: Adobe Illustrator 19.0.0, SVG Export Plug-In . SVG Version: 6.00 Build 0)  -->
<svg version="1.1" id="Capa_1" xmlns="http://www.w3.org/2000/svg" xmlns:xlink="http://www.w3.org/1999/xlink" x="0px" y="0px"
	 viewBox="0 0 512 512" style="enable-background:new 0 0 512 512;" xml:space="preserve">
<g>
	<g>
		<g>
			<path d="M318.25,28.224v-1.305C318.25,12.076,306.174,0,291.331,0H85.422c-8.918,0-16.173,7.255-16.173,16.173v23.459
				c-11.446,0.844-20.5,10.426-20.5,22.082c0,11.657,9.054,21.24,20.5,22.083v13.835c-11.446,0.844-20.5,10.426-20.5,22.082
				c0,11.657,9.054,21.24,20.5,22.083v13.835c-11.446,0.844-20.5,10.426-20.5,22.082c0,11.657,9.054,21.24,20.5,22.083v13.835
				c-11.446,0.844-20.5,10.426-20.5,22.082c0,11.657,9.054,21.24,20.5,22.083v13.835c-11.446,0.844-20.5,10.426-20.5,22.082
				c0,11.657,9.054,21.24,20.5,22.083v13.835c-11.446,0.844-20.5,10.426-20.5,22.082c0,11.657,9.054,21.239,20.5,22.083v13.835
				c-11.446,0.844-20.5,10.426-20.5,22.082c0,11.657,9.054,21.239,20.5,22.083v61.361c0,10.39,8.452,18.842,18.841,18.842h206.586
				c27.886,0,50.572-22.687,50.572-50.572V58.714C345.25,43.035,333.441,30.063,318.25,28.224z M69.249,416.667
				c-3.149-0.745-5.5-3.579-5.5-6.953c0-3.373,2.351-6.207,5.5-6.952V416.667z M69.249,358.667c-3.149-0.744-5.5-3.579-5.5-6.953
				c0-3.373,2.351-6.207,5.5-6.952V358.667z M69.249,300.667c-3.149-0.744-5.5-3.579-5.5-6.953c0-3.373,2.351-6.207,5.5-6.952
				V300.667z M69.249,242.667c-3.149-0.744-5.5-3.579-5.5-6.953c0-3.373,2.351-6.207,5.5-6.952V242.667z M69.249,184.667
				c-3.149-0.744-5.5-3.579-5.5-6.953c0-3.373,2.351-6.207,5.5-6.952V184.667z M69.249,126.667c-3.149-0.744-5.5-3.579-5.5-6.953
				c0-3.373,2.351-6.207,5.5-6.952V126.667z M69.249,68.667c-3.149-0.744-5.5-3.579-5.5-6.953c0-3.373,2.351-6.207,5.5-6.952V68.667
				z M330.25,461.428c0,19.614-15.958,35.572-35.572,35.572H88.09c-2.118,0-3.841-1.724-3.841-3.842v-15.2
				c0.02,0.001,0.04,0.002,0.06,0.004c0.051,0.003,0.103,0.007,0.154,0.01c0.038,0.002,0.075,0.004,0.113,0.006
				c0.075,0.004,0.15,0.007,0.225,0.01c0.036,0.001,0.073,0.002,0.109,0.003c0.053,0.001,0.106,0.003,0.159,0.004
				c0.033,0,0.065,0.001,0.098,0.002c0.084,0.001,0.169,0.002,0.254,0.002H291.33c14.843,0,26.919-12.076,26.919-26.919V137.5
				c0-4.143-3.357-7.5-7.5-7.5s-7.5,3.357-7.5,7.5v313.581c0,6.572-5.347,11.919-11.919,11.919H85.422
				c-0.646,0-1.173-0.526-1.173-1.173v-30.03c11.446-0.844,20.5-10.426,20.5-22.083c0-4.143-3.358-7.5-7.5-7.5
				c-4.142,0-7.5,3.357-7.5,7.5c0,3.374-2.351,6.208-5.5,6.953v-42.87c11.446-0.844,20.5-10.426,20.5-22.083
				c0-4.143-3.358-7.5-7.5-7.5c-4.142,0-7.5,3.357-7.5,7.5c0,3.374-2.351,6.208-5.5,6.953v-42.87
				c11.446-0.844,20.5-10.426,20.5-22.083c0-4.143-3.358-7.5-7.5-7.5c-4.142,0-7.5,3.357-7.5,7.5c0,3.374-2.351,6.208-5.5,6.953
				v-42.87c11.446-0.844,20.5-10.426,20.5-22.083c0-4.143-3.358-7.5-7.5-7.5c-4.142,0-7.5,3.357-7.5,7.5
				c0,3.374-2.351,6.208-5.5,6.953v-42.87c11.446-0.844,20.5-10.426,20.5-22.083c0-4.143-3.358-7.5-7.5-7.5
				c-4.142,0-7.5,3.357-7.5,7.5c0,3.374-2.351,6.208-5.5,6.953v-42.87c11.446-0.844,20.5-10.426,20.5-22.083
				c0-4.143-3.358-7.5-7.5-7.5c-4.142,0-7.5,3.357-7.5,7.5c0,3.374-2.351,6.208-5.5,6.953v-42.87
				c11.446-0.844,20.5-10.426,20.5-22.083c0-4.143-3.358-7.5-7.5-7.5c-4.142,0-7.5,3.357-7.5,7.5c0,3.374-2.351,6.208-5.5,6.953
				V16.173c0-0.646,0.526-1.173,1.173-1.173h205.908c6.572,0,11.919,5.347,11.919,11.919V107.5c0,4.143,3.357,7.5,7.5,7.5
				s7.5-3.357,7.5-7.5V43.443c6.879,1.673,12,7.885,12,15.271V461.428z"/>
			<path d="M273.089,159.232c-2.91-2.949-7.659-2.98-10.606-0.071l-12.486,12.319c-1.207-0.313-2.471-0.48-3.775-0.48H141.278
				c-1.401,0-2.758,0.193-4.046,0.553l-13.143-13.321c-2.91-2.949-7.659-2.98-10.606-0.071c-2.949,2.909-2.98,7.658-0.071,10.606
				l13.316,13.496c-0.312,1.204-0.477,2.465-0.477,3.765v104.943c0,0.822,0.067,1.628,0.194,2.414l-13.962,13.775
				c-2.949,2.909-2.98,7.658-0.071,10.606c1.468,1.487,3.403,2.232,5.339,2.232c1.902,0,3.806-0.72,5.267-2.161l12.972-12.799
				c1.646,0.621,3.428,0.96,5.288,0.96h104.944c0.817,0,1.62-0.066,2.402-0.192l12.787,12.96c1.468,1.487,3.402,2.232,5.339,2.232
				c1.902,0,3.807-0.72,5.268-2.161c2.948-2.909,2.98-7.658,0.071-10.606l-11.803-11.963c0.623-1.648,0.964-3.434,0.964-5.298
				V186.028c0-1.397-0.192-2.751-0.551-4.036l12.318-12.154C275.966,166.93,275.997,162.181,273.089,159.232z M235.255,186.025
				l-15.42,15.214c-7.391-5.19-16.389-8.24-26.085-8.24c-9.992,0-19.241,3.237-26.755,8.718l-15.506-15.715L235.255,186.025z
				 M213.041,229.015l6.641-6.553c2.894,4.663,4.567,10.159,4.567,16.038c0,6.029-1.759,11.655-4.79,16.393l-6.552-6.64
				c1.497-2.929,2.342-6.244,2.342-9.752C215.249,235.097,214.455,231.877,213.041,229.015z M202.135,218.703
				c-2.578-1.096-5.412-1.703-8.386-1.703c-3.406,0-6.629,0.796-9.494,2.212l-6.552-6.641c4.664-2.897,10.163-4.572,16.046-4.572
				c5.509,0,10.681,1.468,15.146,4.033L202.135,218.703z M208.531,265.173c-4.381,2.437-9.422,3.827-14.781,3.827
				c-6.026,0-11.649-1.757-16.384-4.785l6.641-6.552c2.927,1.494,6.238,2.337,9.743,2.337c2.868,0,5.606-0.564,8.11-1.588
				L208.531,265.173z M173.841,246.62l-6.76,6.67c-2.441-4.383-3.832-9.427-3.832-14.79c0-5.505,1.466-10.674,4.028-15.137
				l6.671,6.761c-1.094,2.576-1.699,5.407-1.699,8.376C172.249,241.372,172.815,244.113,173.841,246.62z M141.252,278.774
				l0.022-81.766l15.209,15.415c-5.186,7.39-8.234,16.384-8.234,26.078c0,9.479,2.914,18.289,7.892,25.583L141.252,278.774z
				 M150.244,290.974l16.266-16.05c7.599,5.697,17.031,9.075,27.238,9.075c9.475,0,18.282-2.912,25.576-7.887l14.685,14.883
				L150.244,290.974z M246.236,282.031l-16.068-16.285c5.7-7.6,9.081-17.036,9.081-27.246c0-9.988-3.235-19.235-8.712-26.748
				l15.711-15.501L246.236,282.031z"/>
			<path d="M455.75,285c-4.143,0-7.5,3.357-7.5,7.5v53.844h-8V133.53c0-1.32-0.349-2.617-1.01-3.759l-20-34.53
				c-1.342-2.315-3.814-3.741-6.49-3.741c-2.676,0-5.148,1.426-6.49,3.741l-20,34.53c-0.661,1.142-1.01,2.438-1.01,3.759v262.413
				c0,10.508,8.549,19.057,19.057,19.057h16.887c10.508,0,19.057-8.549,19.057-19.057v-34.6h15.5c4.143,0,7.5-3.357,7.5-7.5V292.5
				C463.25,288.357,459.893,285,455.75,285z M412.75,113.964L424.355,134h-23.209L412.75,113.964z M421.193,400h-16.887
				c-2.237,0-4.057-1.819-4.057-4.057v-34.6h25v34.6h0.001C425.25,398.18,423.431,400,421.193,400z M425.25,346.344h-25V149h25
				V346.344z"/>
			<path d="M412.75,196c4.143,0,7.5-3.357,7.5-7.5v-19c0-4.143-3.357-7.5-7.5-7.5s-7.5,3.357-7.5,7.5v19
				C405.25,192.643,408.607,196,412.75,196z"/>
		</g>
	</g>
</g>
<g>
</g>
<g>
</g>
<g>
</g>
<g>
</g>
<g>
</g>
<g>
</g>
<g>
</g>
<g>
</g>
<g>
</g>
<g>
</g>
<g>
</g>
<g>
</g>
<g>
</g>
<g>
</g>
<g>
</g>
</svg>
