<?xml version="1.0" encoding="iso-8859-1"?>
<!-- Generator: Adobe Illustrator 19.0.0, SVG Export Plug-In . SVG Version: 6.00 Build 0)  -->
<svg version="1.1" id="Capa_1" xmlns="http://www.w3.org/2000/svg" xmlns:xlink="http://www.w3.org/1999/xlink" x="0px" y="0px"
	 viewBox="0 0 512 512" style="enable-background:new 0 0 512 512;" xml:space="preserve">
<g>
	<g>
		<g>
			<path d="M117.872,491h6c10.201,0,18.5-8.299,18.5-18.5s-8.299-18.5-18.5-18.5h-6c-10.201,0-18.5,8.299-18.5,18.5
				S107.671,491,117.872,491z M117.872,469h6c1.93,0,3.5,1.57,3.5,3.5s-1.57,3.5-3.5,3.5h-6c-1.93,0-3.5-1.57-3.5-3.5
				S115.942,469,117.872,469z"/>
			<path d="M117.872,444h38c10.201,0,18.5-8.299,18.5-18.5s-8.299-18.5-18.5-18.5h-38c-10.201,0-18.5,8.299-18.5,18.5
				S107.671,444,117.872,444z M117.872,422h38c1.93,0,3.5,1.57,3.5,3.5s-1.57,3.5-3.5,3.5h-38c-1.93,0-3.5-1.57-3.5-3.5
				S115.942,422,117.872,422z"/>
			<path d="M184.372,425.5c0,10.201,8.299,18.5,18.5,18.5h6c10.201,0,18.5-8.299,18.5-18.5s-8.299-18.5-18.5-18.5h-6
				C192.671,407,184.372,415.299,184.372,425.5z M202.872,422h6c1.93,0,3.5,1.57,3.5,3.5s-1.57,3.5-3.5,3.5h-6
				c-1.93,0-3.5-1.57-3.5-3.5S200.943,422,202.872,422z"/>
			<path d="M117.872,397h6c10.201,0,18.5-8.299,18.5-18.5s-8.299-18.5-18.5-18.5h-6c-10.201,0-18.5,8.299-18.5,18.5
				S107.671,397,117.872,397z M117.872,375h6c1.93,0,3.5,1.57,3.5,3.5s-1.57,3.5-3.5,3.5h-6c-1.93,0-3.5-1.57-3.5-3.5
				S115.942,375,117.872,375z"/>
			<path d="M170.872,397h6c10.201,0,18.5-8.299,18.5-18.5s-8.299-18.5-18.5-18.5h-6c-10.201,0-18.5,8.299-18.5,18.5
				S160.671,397,170.872,397z M170.872,375h6c1.93,0,3.5,1.57,3.5,3.5s-1.57,3.5-3.5,3.5h-6c-1.93,0-3.5-1.57-3.5-3.5
				S168.943,375,170.872,375z"/>
			<path d="M223.872,397h6c10.201,0,18.5-8.299,18.5-18.5s-8.299-18.5-18.5-18.5h-6c-10.201,0-18.5,8.299-18.5,18.5
				S213.671,397,223.872,397z M223.872,375h6c1.93,0,3.5,1.57,3.5,3.5s-1.57,3.5-3.5,3.5h-6c-1.93,0-3.5-1.57-3.5-3.5
				S221.943,375,223.872,375z"/>
			<path d="M276.872,397h6c10.201,0,18.5-8.299,18.5-18.5s-8.299-18.5-18.5-18.5h-6c-10.201,0-18.5,8.299-18.5,18.5
				S266.671,397,276.872,397z M276.872,375h6c1.93,0,3.5,1.57,3.5,3.5s-1.57,3.5-3.5,3.5h-6c-1.93,0-3.5-1.57-3.5-3.5
				S274.943,375,276.872,375z"/>
			<path d="M329.872,397h6c10.201,0,18.5-8.299,18.5-18.5s-8.299-18.5-18.5-18.5h-6c-10.201,0-18.5,8.299-18.5,18.5
				S319.671,397,329.872,397z M329.872,375h6c1.93,0,3.5,1.57,3.5,3.5s-1.57,3.5-3.5,3.5h-6c-1.93,0-3.5-1.57-3.5-3.5
				S327.943,375,329.872,375z"/>
			<path d="M382.872,397h6c10.201,0,18.5-8.299,18.5-18.5s-8.299-18.5-18.5-18.5h-6c-10.201,0-18.5,8.299-18.5,18.5
				S372.671,397,382.872,397z M382.872,375h6c1.93,0,3.5,1.57,3.5,3.5s-1.57,3.5-3.5,3.5h-6c-1.93,0-3.5-1.57-3.5-3.5
				S380.943,375,382.872,375z"/>
			<path d="M237.372,425.5c0,10.201,8.299,18.5,18.5,18.5h6c10.201,0,18.5-8.299,18.5-18.5s-8.299-18.5-18.5-18.5h-6
				C245.671,407,237.372,415.299,237.372,425.5z M255.872,422h6c1.93,0,3.5,1.57,3.5,3.5s-1.57,3.5-3.5,3.5h-6
				c-1.93,0-3.5-1.57-3.5-3.5S253.943,422,255.872,422z"/>
			<path d="M290.372,425.5c0,10.201,8.299,18.5,18.5,18.5h6c10.201,0,18.5-8.299,18.5-18.5s-8.299-18.5-18.5-18.5h-6
				C298.671,407,290.372,415.299,290.372,425.5z M308.872,422h6c1.93,0,3.5,1.57,3.5,3.5s-1.57,3.5-3.5,3.5h-6
				c-1.93,0-3.5-1.57-3.5-3.5S306.943,422,308.872,422z"/>
			<path d="M343.372,425.5c0,10.201,8.299,18.5,18.5,18.5h38c10.201,0,18.5-8.299,18.5-18.5s-8.299-18.5-18.5-18.5h-38
				C351.671,407,343.372,415.299,343.372,425.5z M361.872,422h38c1.93,0,3.5,1.57,3.5,3.5s-1.57,3.5-3.5,3.5h-38
				c-1.93,0-3.5-1.57-3.5-3.5S359.943,422,361.872,422z"/>
			<path d="M399.872,454h-6c-10.201,0-18.5,8.299-18.5,18.5s8.299,18.5,18.5,18.5h6c10.201,0,18.5-8.299,18.5-18.5
				S410.074,454,399.872,454z M399.872,476h-6c-1.93,0-3.5-1.57-3.5-3.5s1.57-3.5,3.5-3.5h6c1.93,0,3.5,1.57,3.5,3.5
				S401.802,476,399.872,476z"/>
			<path d="M346.872,454h-176c-10.201,0-18.5,8.299-18.5,18.5s8.299,18.5,18.5,18.5h176c10.201,0,18.5-8.299,18.5-18.5
				S357.074,454,346.872,454z M346.872,476h-176c-1.93,0-3.5-1.57-3.5-3.5s1.57-3.5,3.5-3.5h176c1.93,0,3.5,1.57,3.5,3.5
				S348.802,476,346.872,476z"/>
			<path d="M86.372,228.5c0,4.142,3.358,7.5,7.5,7.5c4.142,0,7.5-3.358,7.5-7.5V146h81.5c4.142,0,7.5-3.358,7.5-7.5
				c0-9.649,7.851-17.5,17.5-17.5c9.649,0,17.5,7.851,17.5,17.5v35c0,4.142,3.358,7.5,7.5,7.5c4.142,0,7.5-3.358,7.5-7.5v-35
				c0-17.273-13.546-31.442-30.572-32.443c-0.304-0.038-0.614-0.057-0.928-0.057h-140c-17.92,0-32.5,14.58-32.5,32.5
				c0,4.142,3.358,7.5,7.5,7.5h42.5V228.5z M53.062,131c2.813-5.908,8.843-10,15.81-10h111.624c-1.943,3.029-3.397,6.399-4.251,10
				H53.062z"/>
			<path d="M457.349,0H334.396c-10.079,0-18.278,8.2-18.278,18.278v88.443c0,10.079,8.2,18.278,18.278,18.278h22.977v105
				c0,10.477-8.523,19-19,19s-19-8.523-19-19v-31c0-18.748-15.252-34-34-34s-34,15.252-34,34v104h-11v-99.5
				c0-4.142-3.358-7.5-7.5-7.5c-4.142,0-7.5,3.358-7.5,7.5V303h-124v-44.5c0-4.142-3.358-7.5-7.5-7.5c-4.142,0-7.5,3.358-7.5,7.5
				v44.952c-8.571,1.899-15,9.559-15,18.692v170.712c0,10.556,8.588,19.144,19.144,19.144h334.712
				c10.556,0,19.144-8.588,19.144-19.144V322.144c0-10.556-8.588-19.144-19.144-19.144H266.372V199c0-10.477,8.523-19,19-19
				s19,8.523,19,19v31c0,18.748,15.252,34,34,34s34-15.252,34-34V125h84.977c10.079,0,18.278-8.2,18.278-18.278V18.278
				C475.627,8.2,467.428,0,457.349,0z M429.372,492.856c0,2.285-1.859,4.144-4.144,4.144H90.517c-2.285,0-4.144-1.859-4.144-4.144
				V348.959h343V492.856z M425.229,318c2.285,0,4.144,1.859,4.144,4.144v11.815h-343v-11.815c0-2.285,1.859-4.144,4.144-4.144
				H425.229z M331.117,18.278c0-1.808,1.471-3.278,3.278-3.278h122.953c1.808,0,3.278,1.471,3.278,3.278v7.223H331.117V18.278z
				 M460.628,106.722L460.628,106.722c-0.001,1.808-1.472,3.278-3.279,3.278H334.396c-1.808,0-3.278-1.471-3.278-3.278v-66.22
				h129.51V106.722z"/>
			<path d="M363.569,96.803c1.464,1.464,3.384,2.197,5.303,2.197s3.839-0.732,5.303-2.197c2.929-2.929,2.929-7.678,0-10.606
				L361.479,73.5l14.197-14.197c2.929-2.929,2.929-7.678,0-10.606c-2.929-2.929-7.678-2.929-10.606,0l-19.5,19.5
				c-2.929,2.929-2.929,7.678,0,10.606L363.569,96.803z"/>
			<path d="M428.266,73.5l-12.697,12.697c-2.929,2.929-2.929,7.678,0,10.606c1.464,1.464,3.384,2.197,5.303,2.197
				s3.839-0.732,5.303-2.197l18-18c2.929-2.929,2.929-7.678,0-10.606l-19.5-19.5c-2.929-2.929-7.678-2.929-10.606,0
				c-2.929,2.929-2.929,7.678,0,10.606L428.266,73.5z"/>
			<path d="M385.445,98.596c0.805,0.275,1.623,0.406,2.428,0.406c3.118,0,6.03-1.959,7.096-5.074l13-38
				c1.341-3.919-0.75-8.183-4.668-9.524c-3.92-1.341-8.183,0.75-9.524,4.668l-13,38C379.436,92.992,381.526,97.255,385.445,98.596z"
				/>
		</g>
	</g>
</g>
<g>
</g>
<g>
</g>
<g>
</g>
<g>
</g>
<g>
</g>
<g>
</g>
<g>
</g>
<g>
</g>
<g>
</g>
<g>
</g>
<g>
</g>
<g>
</g>
<g>
</g>
<g>
</g>
<g>
</g>
</svg>
